SplineFontDB: 3.2
FontName: DejaPro-UltraItalic
FullName: DejaPro Ultra Italic
FamilyName: DejaPro Ultra
Weight: Ultra
Copyright: Property of Defensecorps.
UComments: "2023-7-26: Created with FontForge (http://fontforge.org)"
Version: 20230726
ItalicAngle: -12
UnderlinePosition: -237
UnderlineWidth: 119
Ascent: 1638
Descent: 410
InvalidEm: 0
LayerCount: 2
Layer: 0 1 "Back" 1
Layer: 1 1 "Fore" 0
XUID: [1021 164 111113757 18505]
StyleMap: 0x0001
FSType: 0
OS2Version: 0
OS2_WeightWidthSlopeOnly: 0
OS2_UseTypoMetrics: 1
CreationTime: 1690353932
ModificationTime: 1690360943
PfmFamily: 17
TTFWeight: 900
TTFWidth: 5
LineGap: 0
VLineGap: 0
OS2TypoAscent: 1491
OS2TypoAOffset: 0
OS2TypoDescent: -431
OS2TypoDOffset: 0
OS2TypoLinegap: 269
OS2WinAscent: 2210
OS2WinAOffset: 0
OS2WinDescent: 514
OS2WinDOffset: 0
HheadAscent: 2210
HheadAOffset: 0
HheadDescent: -514
HheadDOffset: 0
OS2SubXSize: 1434
OS2SubYSize: 1331
OS2SubXOff: 0
OS2SubYOff: 283
OS2SupXSize: 1434
OS2SupYSize: 1331
OS2SupXOff: 0
OS2SupYOff: 977
OS2StrikeYSize: 102
OS2StrikeYPos: 530
OS2CapHeight: 1434
OS2XHeight: 1024
OS2Vendor: 'PfEd'
Lookup: 6 256 0 "SegoeUIBlack-Italic-'ccmp' Glyph Composition/Decomposition in Latin lookup 0" { "SegoeUIBlack-Italic-'ccmp' Glyph Composition/Decomposition in Latin lookup 0 subtable"  } ['ccmp' ('latn' <'dflt' > ) ]
Lookup: 4 0 0 "SegoeUIBlack-Italic-'ccmp' Glyph Composition/Decomposition in Latin lookup 1" { "SegoeUIBlack-Italic-'ccmp' Glyph Composition/Decomposition in Latin lookup 1 subtable"  } ['ccmp' ('latn' <'dflt' > ) ]
Lookup: 1 0 0 "SegoeUIBlack-Italic-'subs' Subscript in Latin lookup 2" { "SegoeUIBlack-Italic-'subs' Subscript in Latin lookup 2 subtable"  } ['subs' ('latn' <'dflt' > ) ]
Lookup: 1 0 0 "SegoeUIBlack-Italic-'sups' Superscript in Latin lookup 3" { "SegoeUIBlack-Italic-'sups' Superscript in Latin lookup 3 subtable"  } ['sups' ('latn' <'dflt' > ) ]

StartChar: SF100000
Encoding: 9472 9472 0
Width: 1024
Flags: W
LayerCount: 2
Fore
SplineSet
-10 463 m 1,0,-1
 -10 597 l 1,1,-1
 1034 597 l 1,2,-1
 1034 463 l 1,3,-1
 -10 463 l 1,0,-1
EndSplineSet
EndChar

StartChar: uni2501
Encoding: 9473 9473 1
Width: 1024
Flags: W
LayerCount: 2
Fore
SplineSet
-10 423 m 1,0,-1
 -10 637 l 1,1,-1
 1034 637 l 1,2,-1
 1034 423 l 1,3,-1
 -10 423 l 1,0,-1
EndSplineSet
EndChar

StartChar: SF110000
Encoding: 9474 9474 2
Width: 1024
Flags: W
LayerCount: 2
Fore
SplineSet
445 1501 m 1,0,-1
 579 1501 l 1,1,-1
 579 -440 l 1,2,-1
 445 -440 l 1,3,-1
 445 1501 l 1,0,-1
EndSplineSet
EndChar

StartChar: uni2503
Encoding: 9475 9475 3
Width: 1024
Flags: W
LayerCount: 2
Fore
SplineSet
405 1501 m 1,0,-1
 619 1501 l 1,1,-1
 619 -440 l 1,2,-1
 405 -440 l 1,3,-1
 405 1501 l 1,0,-1
EndSplineSet
EndChar

StartChar: uni2504
Encoding: 9476 9476 4
Width: 1024
Flags: W
LayerCount: 2
Fore
SplineSet
385 597 m 1,0,-1
 639 597 l 1,1,-1
 639 463 l 1,2,-1
 385 463 l 1,3,-1
 385 597 l 1,0,-1
-10 597 m 1,4,-1
 244 597 l 1,5,-1
 244 463 l 1,6,-1
 -10 463 l 1,7,-1
 -10 597 l 1,4,-1
780 597 m 1,8,-1
 1034 597 l 1,9,-1
 1034 463 l 1,10,-1
 780 463 l 1,11,-1
 780 597 l 1,8,-1
EndSplineSet
EndChar

StartChar: uni2505
Encoding: 9477 9477 5
Width: 1024
Flags: W
LayerCount: 2
Fore
SplineSet
385 637 m 1,0,-1
 639 637 l 1,1,-1
 639 423 l 1,2,-1
 385 423 l 1,3,-1
 385 637 l 1,0,-1
-10 637 m 1,4,-1
 244 637 l 1,5,-1
 244 423 l 1,6,-1
 -10 423 l 1,7,-1
 -10 637 l 1,4,-1
780 637 m 1,8,-1
 1034 637 l 1,9,-1
 1034 423 l 1,10,-1
 780 423 l 1,11,-1
 780 637 l 1,8,-1
EndSplineSet
EndChar

StartChar: uni2506
Encoding: 9478 9478 6
Width: 1024
Flags: W
LayerCount: 2
Fore
SplineSet
445 64 m 1,0,-1
 579 64 l 1,1,-1
 579 -440 l 1,2,-1
 445 -440 l 1,3,-1
 445 64 l 1,0,-1
579 279 m 1,4,-1
 445 279 l 1,5,-1
 445 782 l 1,6,-1
 579 782 l 1,7,-1
 579 279 l 1,4,-1
579 997 m 1,8,-1
 445 997 l 1,9,-1
 445 1501 l 1,10,-1
 579 1501 l 1,11,-1
 579 997 l 1,8,-1
EndSplineSet
EndChar

StartChar: uni2507
Encoding: 9479 9479 7
Width: 1024
Flags: W
LayerCount: 2
Fore
SplineSet
405 64 m 1,0,-1
 619 64 l 1,1,-1
 619 -440 l 1,2,-1
 405 -440 l 1,3,-1
 405 64 l 1,0,-1
619 279 m 1,4,-1
 405 279 l 1,5,-1
 405 782 l 1,6,-1
 619 782 l 1,7,-1
 619 279 l 1,4,-1
619 997 m 1,8,-1
 405 997 l 1,9,-1
 405 1501 l 1,10,-1
 619 1501 l 1,11,-1
 619 997 l 1,8,-1
EndSplineSet
EndChar

StartChar: uni2508
Encoding: 9480 9480 8
Width: 1024
Flags: W
LayerCount: 2
Fore
SplineSet
-10 597 m 1,0,-1
 139 597 l 1,1,-1
 139 463 l 1,2,-1
 -10 463 l 1,3,-1
 -10 597 l 1,0,-1
288 597 m 1,4,-1
 437 597 l 1,5,-1
 437 463 l 1,6,-1
 288 463 l 1,7,-1
 288 597 l 1,4,-1
587 597 m 1,8,-1
 736 597 l 1,9,-1
 736 463 l 1,10,-1
 587 463 l 1,11,-1
 587 597 l 1,8,-1
885 597 m 1,12,-1
 1034 597 l 1,13,-1
 1034 463 l 1,14,-1
 885 463 l 1,15,-1
 885 597 l 1,12,-1
EndSplineSet
EndChar

StartChar: uni2509
Encoding: 9481 9481 9
Width: 1024
Flags: W
LayerCount: 2
Fore
SplineSet
-10 637 m 1,0,-1
 139 637 l 1,1,-1
 139 423 l 1,2,-1
 -10 423 l 1,3,-1
 -10 637 l 1,0,-1
288 637 m 1,4,-1
 437 637 l 1,5,-1
 437 423 l 1,6,-1
 288 423 l 1,7,-1
 288 637 l 1,4,-1
587 637 m 1,8,-1
 736 637 l 1,9,-1
 736 423 l 1,10,-1
 587 423 l 1,11,-1
 587 637 l 1,8,-1
885 637 m 1,12,-1
 1034 637 l 1,13,-1
 1034 423 l 1,14,-1
 885 423 l 1,15,-1
 885 637 l 1,12,-1
EndSplineSet
EndChar

StartChar: uni250A
Encoding: 9482 9482 10
Width: 1024
Flags: W
LayerCount: 2
Fore
SplineSet
445 -106 m 1,0,-1
 579 -106 l 1,1,-1
 579 -440 l 1,2,-1
 445 -440 l 1,3,-1
 445 -106 l 1,0,-1
579 106 m 1,4,-1
 445 106 l 1,5,-1
 445 430 l 1,6,-1
 579 430 l 1,7,-1
 579 106 l 1,4,-1
579 1177 m 1,8,-1
 445 1177 l 1,9,-1
 445 1501 l 1,10,-1
 579 1501 l 1,11,-1
 579 1177 l 1,8,-1
579 641 m 1,12,-1
 445 641 l 1,13,-1
 445 965 l 1,14,-1
 579 965 l 1,15,-1
 579 641 l 1,12,-1
EndSplineSet
EndChar

StartChar: uni250B
Encoding: 9483 9483 11
Width: 1024
Flags: W
LayerCount: 2
Fore
SplineSet
405 -106 m 1,0,-1
 619 -106 l 1,1,-1
 619 -440 l 1,2,-1
 405 -440 l 1,3,-1
 405 -106 l 1,0,-1
619 106 m 1,4,-1
 405 106 l 1,5,-1
 405 430 l 1,6,-1
 619 430 l 1,7,-1
 619 106 l 1,4,-1
619 1177 m 1,8,-1
 405 1177 l 1,9,-1
 405 1501 l 1,10,-1
 619 1501 l 1,11,-1
 619 1177 l 1,8,-1
619 641 m 1,12,-1
 405 641 l 1,13,-1
 405 965 l 1,14,-1
 619 965 l 1,15,-1
 619 641 l 1,12,-1
EndSplineSet
EndChar

StartChar: SF010000
Encoding: 9484 9484 12
Width: 1024
Flags: W
LayerCount: 2
Fore
SplineSet
579 463 m 1,0,-1
 579 -440 l 1,1,-1
 445 -440 l 1,2,-1
 445 597 l 1,3,-1
 1034 597 l 1,4,-1
 1034 463 l 1,5,-1
 579 463 l 1,0,-1
EndSplineSet
EndChar

StartChar: uni250D
Encoding: 9485 9485 13
Width: 1024
Flags: W
LayerCount: 2
Fore
SplineSet
579 423 m 1,0,-1
 579 -440 l 1,1,-1
 445 -440 l 1,2,-1
 445 637 l 1,3,-1
 1034 637 l 1,4,-1
 1034 423 l 1,5,-1
 579 423 l 1,0,-1
EndSplineSet
EndChar

StartChar: uni250E
Encoding: 9486 9486 14
Width: 1024
Flags: W
LayerCount: 2
Fore
SplineSet
619 463 m 1,0,-1
 619 -440 l 1,1,-1
 405 -440 l 1,2,-1
 405 597 l 1,3,-1
 1034 597 l 1,4,-1
 1034 463 l 1,5,-1
 619 463 l 1,0,-1
EndSplineSet
EndChar

StartChar: uni250F
Encoding: 9487 9487 15
Width: 1024
Flags: W
LayerCount: 2
Fore
SplineSet
619 423 m 1,0,-1
 619 -440 l 1,1,-1
 405 -440 l 1,2,-1
 405 637 l 1,3,-1
 1034 637 l 1,4,-1
 1034 423 l 1,5,-1
 619 423 l 1,0,-1
EndSplineSet
EndChar

StartChar: SF030000
Encoding: 9488 9488 16
Width: 1024
Flags: W
LayerCount: 2
Fore
SplineSet
-10 463 m 1,0,-1
 -10 597 l 1,1,-1
 579 597 l 1,2,-1
 579 -440 l 1,3,-1
 445 -440 l 1,4,-1
 445 463 l 1,5,-1
 -10 463 l 1,0,-1
EndSplineSet
EndChar

StartChar: uni2511
Encoding: 9489 9489 17
Width: 1024
Flags: W
LayerCount: 2
Fore
SplineSet
-10 423 m 1,0,-1
 -10 637 l 1,1,-1
 579 637 l 1,2,-1
 579 -440 l 1,3,-1
 445 -440 l 1,4,-1
 445 423 l 1,5,-1
 -10 423 l 1,0,-1
EndSplineSet
EndChar

StartChar: uni2512
Encoding: 9490 9490 18
Width: 1024
Flags: W
LayerCount: 2
Fore
SplineSet
-10 463 m 1,0,-1
 -10 597 l 1,1,-1
 619 597 l 1,2,-1
 619 -440 l 1,3,-1
 405 -440 l 1,4,-1
 405 463 l 1,5,-1
 -10 463 l 1,0,-1
EndSplineSet
EndChar

StartChar: uni2513
Encoding: 9491 9491 19
Width: 1024
Flags: W
LayerCount: 2
Fore
SplineSet
-10 423 m 1,0,-1
 -10 637 l 1,1,-1
 619 637 l 1,2,-1
 619 -440 l 1,3,-1
 405 -440 l 1,4,-1
 405 423 l 1,5,-1
 -10 423 l 1,0,-1
EndSplineSet
EndChar

StartChar: SF020000
Encoding: 9492 9492 20
Width: 1024
Flags: W
LayerCount: 2
Fore
SplineSet
445 1501 m 1,0,-1
 579 1501 l 1,1,-1
 579 597 l 1,2,-1
 1034 597 l 1,3,-1
 1034 463 l 1,4,-1
 445 463 l 1,5,-1
 445 1501 l 1,0,-1
EndSplineSet
EndChar

StartChar: uni2515
Encoding: 9493 9493 21
Width: 1024
Flags: W
LayerCount: 2
Fore
SplineSet
445 1501 m 1,0,-1
 579 1501 l 1,1,-1
 579 637 l 1,2,-1
 1034 637 l 1,3,-1
 1034 423 l 1,4,-1
 445 423 l 1,5,-1
 445 1501 l 1,0,-1
EndSplineSet
EndChar

StartChar: uni2516
Encoding: 9494 9494 22
Width: 1024
Flags: W
LayerCount: 2
Fore
SplineSet
405 1501 m 1,0,-1
 619 1501 l 1,1,-1
 619 597 l 1,2,-1
 1034 597 l 1,3,-1
 1034 463 l 1,4,-1
 405 463 l 1,5,-1
 405 1501 l 1,0,-1
EndSplineSet
EndChar

StartChar: uni2517
Encoding: 9495 9495 23
Width: 1024
Flags: W
LayerCount: 2
Fore
SplineSet
405 1501 m 1,0,-1
 619 1501 l 1,1,-1
 619 637 l 1,2,-1
 1034 637 l 1,3,-1
 1034 423 l 1,4,-1
 405 423 l 1,5,-1
 405 1501 l 1,0,-1
EndSplineSet
EndChar

StartChar: SF040000
Encoding: 9496 9496 24
Width: 1024
Flags: W
LayerCount: 2
Fore
SplineSet
579 463 m 1,0,-1
 -10 463 l 1,1,-1
 -10 597 l 1,2,-1
 445 597 l 1,3,-1
 445 1501 l 1,4,-1
 579 1501 l 1,5,-1
 579 463 l 1,0,-1
EndSplineSet
EndChar

StartChar: uni2519
Encoding: 9497 9497 25
Width: 1024
Flags: W
LayerCount: 2
Fore
SplineSet
579 423 m 1,0,-1
 -10 423 l 1,1,-1
 -10 637 l 1,2,-1
 445 637 l 1,3,-1
 445 1501 l 1,4,-1
 579 1501 l 1,5,-1
 579 423 l 1,0,-1
EndSplineSet
EndChar

StartChar: uni251A
Encoding: 9498 9498 26
Width: 1024
Flags: W
LayerCount: 2
Fore
SplineSet
619 463 m 1,0,-1
 -10 463 l 1,1,-1
 -10 597 l 1,2,-1
 405 597 l 1,3,-1
 405 1501 l 1,4,-1
 619 1501 l 1,5,-1
 619 463 l 1,0,-1
EndSplineSet
EndChar

StartChar: uni251B
Encoding: 9499 9499 27
Width: 1024
Flags: W
LayerCount: 2
Fore
SplineSet
619 423 m 1,0,-1
 -10 423 l 1,1,-1
 -10 637 l 1,2,-1
 405 637 l 1,3,-1
 405 1501 l 1,4,-1
 619 1501 l 1,5,-1
 619 423 l 1,0,-1
EndSplineSet
EndChar

StartChar: SF080000
Encoding: 9500 9500 28
Width: 1024
Flags: W
LayerCount: 2
Fore
SplineSet
579 463 m 1,0,-1
 579 -440 l 1,1,-1
 445 -440 l 1,2,-1
 445 1501 l 1,3,-1
 579 1501 l 1,4,-1
 579 597 l 1,5,-1
 1034 597 l 1,6,-1
 1034 463 l 1,7,-1
 579 463 l 1,0,-1
EndSplineSet
EndChar

StartChar: uni251D
Encoding: 9501 9501 29
Width: 1024
Flags: W
LayerCount: 2
Fore
SplineSet
579 423 m 1,0,-1
 579 -440 l 1,1,-1
 445 -440 l 1,2,-1
 445 1501 l 1,3,-1
 579 1501 l 1,4,-1
 579 637 l 1,5,-1
 1034 637 l 1,6,-1
 1034 423 l 1,7,-1
 579 423 l 1,0,-1
EndSplineSet
EndChar

StartChar: uni251E
Encoding: 9502 9502 30
Width: 1024
Flags: W
LayerCount: 2
Fore
SplineSet
579 463 m 1,0,-1
 579 -440 l 1,1,-1
 445 -440 l 1,2,-1
 445 463 l 1,3,-1
 405 463 l 1,4,-1
 405 1501 l 1,5,-1
 619 1501 l 1,6,-1
 619 597 l 1,7,-1
 1034 597 l 1,8,-1
 1034 463 l 1,9,-1
 579 463 l 1,0,-1
EndSplineSet
EndChar

StartChar: uni251F
Encoding: 9503 9503 31
Width: 1024
Flags: W
LayerCount: 2
Fore
SplineSet
619 463 m 1,0,-1
 619 -440 l 1,1,-1
 405 -440 l 1,2,-1
 405 597 l 1,3,-1
 445 597 l 1,4,-1
 445 1501 l 1,5,-1
 579 1501 l 1,6,-1
 579 597 l 1,7,-1
 1034 597 l 1,8,-1
 1034 463 l 1,9,-1
 619 463 l 1,0,-1
EndSplineSet
EndChar

StartChar: uni2520
Encoding: 9504 9504 32
Width: 1024
Flags: W
LayerCount: 2
Fore
SplineSet
619 463 m 1,0,-1
 619 -440 l 1,1,-1
 405 -440 l 1,2,-1
 405 1501 l 1,3,-1
 619 1501 l 1,4,-1
 619 597 l 1,5,-1
 1034 597 l 1,6,-1
 1034 463 l 1,7,-1
 619 463 l 1,0,-1
EndSplineSet
EndChar

StartChar: uni2521
Encoding: 9505 9505 33
Width: 1024
Flags: W
LayerCount: 2
Fore
SplineSet
579 423 m 1,0,-1
 579 -438 l 1,1,-1
 445 -438 l 1,2,-1
 445 423 l 1,3,-1
 405 423 l 1,4,-1
 405 1501 l 1,5,-1
 619 1501 l 1,6,-1
 619 637 l 1,7,-1
 1034 637 l 1,8,-1
 1034 423 l 1,9,-1
 579 423 l 1,0,-1
EndSplineSet
EndChar

StartChar: uni2522
Encoding: 9506 9506 34
Width: 1024
Flags: W
LayerCount: 2
Fore
SplineSet
405 637 m 1,0,-1
 445 637 l 1,1,-1
 445 1501 l 1,2,-1
 579 1501 l 1,3,-1
 579 637 l 1,4,-1
 1034 637 l 1,5,-1
 1034 423 l 1,6,-1
 619 423 l 1,7,-1
 619 -441 l 1,8,-1
 405 -441 l 1,9,-1
 405 637 l 1,0,-1
EndSplineSet
EndChar

StartChar: uni2523
Encoding: 9507 9507 35
Width: 1024
Flags: W
LayerCount: 2
Fore
SplineSet
1034 637 m 1,0,-1
 1034 423 l 1,1,-1
 619 423 l 1,2,-1
 619 -441 l 1,3,-1
 405 -441 l 1,4,-1
 405 1501 l 1,5,-1
 619 1501 l 1,6,-1
 619 637 l 1,7,-1
 1034 637 l 1,0,-1
EndSplineSet
EndChar

StartChar: SF090000
Encoding: 9508 9508 36
Width: 1024
Flags: W
LayerCount: 2
Fore
SplineSet
445 463 m 1,0,-1
 -10 463 l 1,1,-1
 -10 597 l 1,2,-1
 445 597 l 1,3,-1
 445 1501 l 1,4,-1
 579 1501 l 1,5,-1
 579 -440 l 1,6,-1
 445 -440 l 1,7,-1
 445 463 l 1,0,-1
EndSplineSet
EndChar

StartChar: uni2525
Encoding: 9509 9509 37
Width: 1024
Flags: W
LayerCount: 2
Fore
SplineSet
445 423 m 1,0,-1
 -10 423 l 1,1,-1
 -10 637 l 1,2,-1
 445 637 l 1,3,-1
 445 1501 l 1,4,-1
 579 1501 l 1,5,-1
 579 -440 l 1,6,-1
 445 -440 l 1,7,-1
 445 423 l 1,0,-1
EndSplineSet
EndChar

StartChar: uni2526
Encoding: 9510 9510 38
Width: 1024
Flags: W
LayerCount: 2
Fore
SplineSet
579 463 m 1,0,-1
 579 -440 l 1,1,-1
 445 -440 l 1,2,-1
 445 463 l 1,3,-1
 -10 463 l 1,4,-1
 -10 597 l 1,5,-1
 405 597 l 1,6,-1
 405 1501 l 1,7,-1
 619 1501 l 1,8,-1
 619 463 l 1,9,-1
 579 463 l 1,0,-1
EndSplineSet
EndChar

StartChar: uni2527
Encoding: 9511 9511 39
Width: 1024
Flags: W
LayerCount: 2
Fore
SplineSet
619 597 m 1,0,-1
 619 -440 l 1,1,-1
 405 -440 l 1,2,-1
 405 463 l 1,3,-1
 -10 463 l 1,4,-1
 -10 597 l 1,5,-1
 445 597 l 1,6,-1
 445 1501 l 1,7,-1
 579 1501 l 1,8,-1
 579 597 l 1,9,-1
 619 597 l 1,0,-1
EndSplineSet
EndChar

StartChar: uni2528
Encoding: 9512 9512 40
Width: 1024
Flags: W
LayerCount: 2
Fore
SplineSet
405 463 m 1,0,-1
 -10 463 l 1,1,-1
 -10 597 l 1,2,-1
 405 597 l 1,3,-1
 405 1501 l 1,4,-1
 619 1501 l 1,5,-1
 619 -440 l 1,6,-1
 405 -440 l 1,7,-1
 405 463 l 1,0,-1
EndSplineSet
EndChar

StartChar: uni2529
Encoding: 9513 9513 41
Width: 1024
Flags: W
LayerCount: 2
Fore
SplineSet
405 1501 m 1,0,-1
 619 1501 l 1,1,-1
 619 423 l 1,2,-1
 579 423 l 1,3,-1
 579 -440 l 1,4,-1
 445 -440 l 1,5,-1
 445 423 l 1,6,-1
 -10 423 l 1,7,-1
 -10 637 l 1,8,-1
 405 637 l 1,9,-1
 405 1501 l 1,0,-1
EndSplineSet
EndChar

StartChar: uni252A
Encoding: 9514 9514 42
Width: 1024
Flags: W
LayerCount: 2
Fore
SplineSet
405 423 m 1,0,-1
 -10 423 l 1,1,-1
 -10 637 l 1,2,-1
 445 637 l 1,3,-1
 445 1501 l 1,4,-1
 579 1501 l 1,5,-1
 579 637 l 1,6,-1
 619 637 l 1,7,-1
 619 -440 l 1,8,-1
 405 -440 l 1,9,-1
 405 423 l 1,0,-1
EndSplineSet
EndChar

StartChar: uni252B
Encoding: 9515 9515 43
Width: 1024
Flags: W
LayerCount: 2
Fore
SplineSet
405 423 m 1,0,-1
 -10 423 l 1,1,-1
 -10 637 l 1,2,-1
 405 637 l 1,3,-1
 405 1501 l 1,4,-1
 619 1501 l 1,5,-1
 619 -440 l 1,6,-1
 405 -440 l 1,7,-1
 405 423 l 1,0,-1
EndSplineSet
EndChar

StartChar: SF060000
Encoding: 9516 9516 44
Width: 1024
Flags: W
LayerCount: 2
Fore
SplineSet
579 463 m 1,0,-1
 579 -440 l 1,1,-1
 445 -440 l 1,2,-1
 445 463 l 1,3,-1
 -10 463 l 1,4,-1
 -10 597 l 1,5,-1
 1034 597 l 1,6,-1
 1034 463 l 1,7,-1
 579 463 l 1,0,-1
EndSplineSet
EndChar

StartChar: uni252D
Encoding: 9517 9517 45
Width: 1024
Flags: W
LayerCount: 2
Fore
SplineSet
579 463 m 1,0,-1
 579 -440 l 1,1,-1
 445 -440 l 1,2,-1
 445 423 l 1,3,-1
 -10 423 l 1,4,-1
 -10 637 l 1,5,-1
 579 637 l 1,6,-1
 579 597 l 1,7,-1
 1034 597 l 1,8,-1
 1034 463 l 1,9,-1
 579 463 l 1,0,-1
EndSplineSet
EndChar

StartChar: uni252E
Encoding: 9518 9518 46
Width: 1024
Flags: W
LayerCount: 2
Fore
SplineSet
-10 463 m 1,0,-1
 -10 597 l 1,1,-1
 445 597 l 1,2,-1
 445 637 l 1,3,-1
 1034 637 l 1,4,-1
 1034 423 l 1,5,-1
 579 423 l 1,6,-1
 579 -440 l 1,7,-1
 445 -440 l 1,8,-1
 445 463 l 1,9,-1
 -10 463 l 1,0,-1
EndSplineSet
EndChar

StartChar: uni252F
Encoding: 9519 9519 47
Width: 1024
Flags: W
LayerCount: 2
Fore
SplineSet
579 423 m 1,0,-1
 579 -440 l 1,1,-1
 445 -440 l 1,2,-1
 445 423 l 1,3,-1
 -10 423 l 1,4,-1
 -10 637 l 1,5,-1
 1034 637 l 1,6,-1
 1034 423 l 1,7,-1
 579 423 l 1,0,-1
EndSplineSet
EndChar

StartChar: uni2530
Encoding: 9520 9520 48
Width: 1024
Flags: W
LayerCount: 2
Fore
SplineSet
619 463 m 1,0,-1
 619 -440 l 1,1,-1
 405 -440 l 1,2,-1
 405 463 l 1,3,-1
 -10 463 l 1,4,-1
 -10 597 l 1,5,-1
 1034 597 l 1,6,-1
 1034 463 l 1,7,-1
 619 463 l 1,0,-1
EndSplineSet
EndChar

StartChar: uni2531
Encoding: 9521 9521 49
Width: 1024
Flags: W
LayerCount: 2
Fore
SplineSet
619 463 m 1,0,-1
 619 -440 l 1,1,-1
 405 -440 l 1,2,-1
 405 423 l 1,3,-1
 -10 423 l 1,4,-1
 -10 637 l 1,5,-1
 619 637 l 1,6,-1
 619 597 l 1,7,-1
 1034 597 l 1,8,-1
 1034 463 l 1,9,-1
 619 463 l 1,0,-1
EndSplineSet
EndChar

StartChar: uni2532
Encoding: 9522 9522 50
Width: 1024
Flags: W
LayerCount: 2
Fore
SplineSet
-10 463 m 1,0,-1
 -10 597 l 1,1,-1
 405 597 l 1,2,-1
 405 637 l 1,3,-1
 1034 637 l 1,4,-1
 1034 423 l 1,5,-1
 619 423 l 1,6,-1
 619 -440 l 1,7,-1
 405 -440 l 1,8,-1
 405 463 l 1,9,-1
 -10 463 l 1,0,-1
EndSplineSet
EndChar

StartChar: uni2533
Encoding: 9523 9523 51
Width: 1024
Flags: W
LayerCount: 2
Fore
SplineSet
619 423 m 1,0,-1
 619 -440 l 1,1,-1
 405 -440 l 1,2,-1
 405 423 l 1,3,-1
 -10 423 l 1,4,-1
 -10 637 l 1,5,-1
 1034 637 l 1,6,-1
 1034 423 l 1,7,-1
 619 423 l 1,0,-1
EndSplineSet
EndChar

StartChar: SF070000
Encoding: 9524 9524 52
Width: 1024
Flags: W
LayerCount: 2
Fore
SplineSet
-10 463 m 1,0,-1
 -10 597 l 1,1,-1
 445 597 l 1,2,-1
 445 1501 l 1,3,-1
 579 1501 l 1,4,-1
 579 597 l 1,5,-1
 1034 597 l 1,6,-1
 1034 463 l 1,7,-1
 -10 463 l 1,0,-1
EndSplineSet
EndChar

StartChar: uni2535
Encoding: 9525 9525 53
Width: 1024
Flags: W
LayerCount: 2
Fore
SplineSet
-10 423 m 1,0,-1
 -10 637 l 1,1,-1
 445 637 l 1,2,-1
 445 1501 l 1,3,-1
 579 1501 l 1,4,-1
 579 597 l 1,5,-1
 1034 597 l 1,6,-1
 1034 463 l 1,7,-1
 579 463 l 1,8,-1
 579 423 l 1,9,-1
 -10 423 l 1,0,-1
EndSplineSet
EndChar

StartChar: uni2536
Encoding: 9526 9526 54
Width: 1024
Flags: W
LayerCount: 2
Fore
SplineSet
445 423 m 1,0,-1
 445 463 l 1,1,-1
 -10 463 l 1,2,-1
 -10 597 l 1,3,-1
 445 597 l 1,4,-1
 445 1501 l 1,5,-1
 579 1501 l 1,6,-1
 579 637 l 1,7,-1
 1034 637 l 1,8,-1
 1034 423 l 1,9,-1
 445 423 l 1,0,-1
EndSplineSet
EndChar

StartChar: uni2537
Encoding: 9527 9527 55
Width: 1024
Flags: W
LayerCount: 2
Fore
SplineSet
-10 423 m 1,0,-1
 -10 637 l 1,1,-1
 445 637 l 1,2,-1
 445 1501 l 1,3,-1
 579 1501 l 1,4,-1
 579 637 l 1,5,-1
 1034 637 l 1,6,-1
 1034 423 l 1,7,-1
 -10 423 l 1,0,-1
EndSplineSet
EndChar

StartChar: uni2538
Encoding: 9528 9528 56
Width: 1024
Flags: W
LayerCount: 2
Fore
SplineSet
-10 463 m 1,0,-1
 -10 597 l 1,1,-1
 405 597 l 1,2,-1
 405 1501 l 1,3,-1
 619 1501 l 1,4,-1
 619 597 l 1,5,-1
 1034 597 l 1,6,-1
 1034 463 l 1,7,-1
 -10 463 l 1,0,-1
EndSplineSet
EndChar

StartChar: uni2539
Encoding: 9529 9529 57
Width: 1024
Flags: W
LayerCount: 2
Fore
SplineSet
-10 423 m 1,0,-1
 -10 637 l 1,1,-1
 405 637 l 1,2,-1
 405 1501 l 1,3,-1
 619 1501 l 1,4,-1
 619 597 l 1,5,-1
 1034 597 l 1,6,-1
 1034 463 l 1,7,-1
 619 463 l 1,8,-1
 619 423 l 1,9,-1
 -10 423 l 1,0,-1
EndSplineSet
EndChar

StartChar: uni253A
Encoding: 9530 9530 58
Width: 1024
Flags: W
LayerCount: 2
Fore
SplineSet
405 423 m 1,0,-1
 405 463 l 1,1,-1
 -10 463 l 1,2,-1
 -10 597 l 1,3,-1
 405 597 l 1,4,-1
 405 1501 l 1,5,-1
 619 1501 l 1,6,-1
 619 637 l 1,7,-1
 1034 637 l 1,8,-1
 1034 423 l 1,9,-1
 405 423 l 1,0,-1
EndSplineSet
EndChar

StartChar: uni253B
Encoding: 9531 9531 59
Width: 1024
Flags: W
LayerCount: 2
Fore
SplineSet
-10 423 m 1,0,-1
 -10 637 l 1,1,-1
 405 637 l 1,2,-1
 405 1501 l 1,3,-1
 619 1501 l 1,4,-1
 619 637 l 1,5,-1
 1034 637 l 1,6,-1
 1034 423 l 1,7,-1
 -10 423 l 1,0,-1
EndSplineSet
EndChar

StartChar: SF050000
Encoding: 9532 9532 60
Width: 1024
Flags: W
LayerCount: 2
Fore
SplineSet
579 463 m 1,0,-1
 579 -440 l 1,1,-1
 445 -440 l 1,2,-1
 445 463 l 1,3,-1
 -10 463 l 1,4,-1
 -10 597 l 1,5,-1
 445 597 l 1,6,-1
 445 1501 l 1,7,-1
 579 1501 l 1,8,-1
 579 597 l 1,9,-1
 1034 597 l 1,10,-1
 1034 463 l 1,11,-1
 579 463 l 1,0,-1
EndSplineSet
EndChar

StartChar: uni253D
Encoding: 9533 9533 61
Width: 1024
Flags: W
LayerCount: 2
Fore
SplineSet
445 423 m 1,0,-1
 -10 423 l 1,1,-1
 -10 637 l 1,2,-1
 445 637 l 1,3,-1
 445 1501 l 1,4,-1
 579 1501 l 1,5,-1
 579 597 l 1,6,-1
 1034 597 l 1,7,-1
 1034 463 l 1,8,-1
 579 463 l 1,9,-1
 579 -440 l 1,10,-1
 445 -440 l 1,11,-1
 445 423 l 1,0,-1
EndSplineSet
EndChar

StartChar: uni253E
Encoding: 9534 9534 62
Width: 1024
Flags: W
LayerCount: 2
Fore
SplineSet
579 -440 m 1,0,-1
 445 -440 l 1,1,-1
 445 463 l 1,2,-1
 -10 463 l 1,3,-1
 -10 597 l 1,4,-1
 445 597 l 1,5,-1
 445 1501 l 1,6,-1
 579 1501 l 1,7,-1
 579 637 l 1,8,-1
 1034 637 l 1,9,-1
 1034 423 l 1,10,-1
 579 423 l 1,11,-1
 579 -440 l 1,0,-1
EndSplineSet
EndChar

StartChar: uni253F
Encoding: 9535 9535 63
Width: 1024
Flags: W
LayerCount: 2
Fore
SplineSet
579 423 m 1,0,-1
 579 -440 l 1,1,-1
 445 -440 l 1,2,-1
 445 423 l 1,3,-1
 -10 423 l 1,4,-1
 -10 637 l 1,5,-1
 445 637 l 1,6,-1
 445 1501 l 1,7,-1
 579 1501 l 1,8,-1
 579 637 l 1,9,-1
 1034 637 l 1,10,-1
 1034 423 l 1,11,-1
 579 423 l 1,0,-1
EndSplineSet
EndChar

StartChar: uni2540
Encoding: 9536 9536 64
Width: 1024
Flags: W
LayerCount: 2
Fore
SplineSet
445 463 m 1,0,-1
 -10 463 l 1,1,-1
 -10 597 l 1,2,-1
 405 597 l 1,3,-1
 405 1501 l 1,4,-1
 619 1501 l 1,5,-1
 619 597 l 1,6,-1
 1034 597 l 1,7,-1
 1034 463 l 1,8,-1
 579 463 l 1,9,-1
 579 -440 l 1,10,-1
 445 -440 l 1,11,-1
 445 463 l 1,0,-1
EndSplineSet
EndChar

StartChar: uni2541
Encoding: 9537 9537 65
Width: 1024
Flags: W
LayerCount: 2
Fore
SplineSet
405 463 m 1,0,-1
 -10 463 l 1,1,-1
 -10 597 l 1,2,-1
 445 597 l 1,3,-1
 445 1501 l 1,4,-1
 579 1501 l 1,5,-1
 579 597 l 1,6,-1
 1034 597 l 1,7,-1
 1034 463 l 1,8,-1
 619 463 l 1,9,-1
 619 -440 l 1,10,-1
 405 -440 l 1,11,-1
 405 463 l 1,0,-1
EndSplineSet
EndChar

StartChar: uni2542
Encoding: 9538 9538 66
Width: 1024
Flags: W
LayerCount: 2
Fore
SplineSet
405 463 m 1,0,-1
 -10 463 l 1,1,-1
 -10 597 l 1,2,-1
 405 597 l 1,3,-1
 405 1501 l 1,4,-1
 619 1501 l 1,5,-1
 619 597 l 1,6,-1
 1034 597 l 1,7,-1
 1034 463 l 1,8,-1
 619 463 l 1,9,-1
 619 -440 l 1,10,-1
 405 -440 l 1,11,-1
 405 463 l 1,0,-1
EndSplineSet
EndChar

StartChar: uni2543
Encoding: 9539 9539 67
Width: 1024
Flags: W
LayerCount: 2
Fore
SplineSet
445 423 m 1,0,-1
 -10 423 l 1,1,-1
 -10 637 l 1,2,-1
 405 637 l 1,3,-1
 405 1501 l 1,4,-1
 619 1501 l 1,5,-1
 619 597 l 1,6,-1
 1034 597 l 1,7,-1
 1034 463 l 1,8,-1
 619 463 l 1,9,-1
 619 423 l 1,10,-1
 579 423 l 1,11,-1
 579 -440 l 1,12,-1
 445 -440 l 1,13,-1
 445 423 l 1,0,-1
EndSplineSet
EndChar

StartChar: uni2544
Encoding: 9540 9540 68
Width: 1024
Flags: W
LayerCount: 2
Fore
SplineSet
579 -440 m 1,0,-1
 445 -440 l 1,1,-1
 445 423 l 1,2,-1
 405 423 l 1,3,-1
 405 463 l 1,4,-1
 -10 463 l 1,5,-1
 -10 597 l 1,6,-1
 405 597 l 1,7,-1
 405 1501 l 1,8,-1
 619 1501 l 1,9,-1
 619 637 l 1,10,-1
 1034 637 l 1,11,-1
 1034 423 l 1,12,-1
 579 423 l 1,13,-1
 579 -440 l 1,0,-1
EndSplineSet
EndChar

StartChar: uni2545
Encoding: 9541 9541 69
Width: 1024
Flags: W
LayerCount: 2
Fore
SplineSet
405 -440 m 1,0,-1
 405 423 l 1,1,-1
 -10 423 l 1,2,-1
 -10 637 l 1,3,-1
 445 637 l 1,4,-1
 445 1501 l 1,5,-1
 579 1501 l 1,6,-1
 579 637 l 1,7,-1
 619 637 l 1,8,-1
 619 597 l 1,9,-1
 1034 597 l 1,10,-1
 1034 463 l 1,11,-1
 619 463 l 1,12,-1
 619 -440 l 1,13,-1
 405 -440 l 1,0,-1
EndSplineSet
EndChar

StartChar: uni2546
Encoding: 9542 9542 70
Width: 1024
Flags: W
LayerCount: 2
Fore
SplineSet
405 -440 m 1,0,-1
 405 423 l 1,1,-1
 -10 423 l 1,2,-1
 -10 637 l 1,3,-1
 445 637 l 1,4,-1
 445 1501 l 1,5,-1
 579 1501 l 1,6,-1
 579 637 l 1,7,-1
 619 637 l 1,8,-1
 619 597 l 1,9,-1
 1034 597 l 1,10,-1
 1034 463 l 1,11,-1
 619 463 l 1,12,-1
 619 -440 l 1,13,-1
 405 -440 l 1,0,-1
EndSplineSet
EndChar

StartChar: uni2547
Encoding: 9543 9543 71
Width: 1024
Flags: W
LayerCount: 2
Fore
SplineSet
579 -440 m 1,0,-1
 445 -440 l 1,1,-1
 445 423 l 1,2,-1
 -10 423 l 1,3,-1
 -10 637 l 1,4,-1
 405 637 l 1,5,-1
 405 1501 l 1,6,-1
 619 1501 l 1,7,-1
 619 637 l 1,8,-1
 1034 637 l 1,9,-1
 1034 423 l 1,10,-1
 579 423 l 1,11,-1
 579 -440 l 1,0,-1
EndSplineSet
EndChar

StartChar: uni2548
Encoding: 9544 9544 72
Width: 1024
Flags: W
LayerCount: 2
Fore
SplineSet
579 637 m 1,0,-1
 1034 637 l 1,1,-1
 1034 423 l 1,2,-1
 619 423 l 1,3,-1
 619 -440 l 1,4,-1
 405 -440 l 1,5,-1
 405 423 l 1,6,-1
 -10 423 l 1,7,-1
 -10 637 l 1,8,-1
 445 637 l 1,9,-1
 445 1501 l 1,10,-1
 579 1501 l 1,11,-1
 579 637 l 1,0,-1
EndSplineSet
EndChar

StartChar: uni2549
Encoding: 9545 9545 73
Width: 1024
Flags: W
LayerCount: 2
Fore
SplineSet
405 423 m 1,0,-1
 -10 423 l 1,1,-1
 -10 637 l 1,2,-1
 405 637 l 1,3,-1
 405 1501 l 1,4,-1
 619 1501 l 1,5,-1
 619 597 l 1,6,-1
 1034 597 l 1,7,-1
 1034 463 l 1,8,-1
 619 463 l 1,9,-1
 619 -440 l 1,10,-1
 405 -440 l 1,11,-1
 405 423 l 1,0,-1
EndSplineSet
EndChar

StartChar: uni254A
Encoding: 9546 9546 74
Width: 1024
Flags: W
LayerCount: 2
Fore
SplineSet
405 -440 m 1,0,-1
 405 463 l 1,1,-1
 -10 463 l 1,2,-1
 -10 597 l 1,3,-1
 405 597 l 1,4,-1
 405 1501 l 1,5,-1
 619 1501 l 1,6,-1
 619 637 l 1,7,-1
 1034 637 l 1,8,-1
 1034 423 l 1,9,-1
 619 423 l 1,10,-1
 619 -440 l 1,11,-1
 405 -440 l 1,0,-1
EndSplineSet
EndChar

StartChar: uni254B
Encoding: 9547 9547 75
Width: 1024
Flags: W
LayerCount: 2
Fore
SplineSet
619 423 m 1,0,-1
 619 -440 l 1,1,-1
 405 -440 l 1,2,-1
 405 423 l 1,3,-1
 -10 423 l 1,4,-1
 -10 637 l 1,5,-1
 405 637 l 1,6,-1
 405 1501 l 1,7,-1
 619 1501 l 1,8,-1
 619 637 l 1,9,-1
 1034 637 l 1,10,-1
 1034 423 l 1,11,-1
 619 423 l 1,0,-1
EndSplineSet
EndChar

StartChar: uni2581
Encoding: 9601 9601 76
Width: 1921
Flags: W
LayerCount: 2
Fore
SplineSet
-10 -180 m 1,0,-1
 1931 -180 l 1,1,-1
 1931 -440 l 1,2,-1
 -10 -440 l 1,3,-1
 -10 -180 l 1,0,-1
EndSplineSet
EndChar

StartChar: uni2582
Encoding: 9602 9602 77
Width: 1921
Flags: W
LayerCount: 2
Fore
SplineSet
-10 45 m 1,0,-1
 1931 45 l 1,1,-1
 1931 -440 l 1,2,-1
 -10 -440 l 1,3,-1
 -10 45 l 1,0,-1
EndSplineSet
EndChar

StartChar: uni2583
Encoding: 9603 9603 78
Width: 1921
Flags: W
LayerCount: 2
Fore
SplineSet
-10 288 m 1,0,-1
 1931 288 l 1,1,-1
 1931 -440 l 1,2,-1
 -10 -440 l 1,3,-1
 -10 288 l 1,0,-1
EndSplineSet
EndChar

StartChar: dnblock
Encoding: 9604 9604 79
Width: 1921
Flags: W
LayerCount: 2
Fore
SplineSet
-10 530 m 1,0,-1
 1931 530 l 1,1,-1
 1931 -440 l 1,2,-1
 -10 -440 l 1,3,-1
 -10 530 l 1,0,-1
EndSplineSet
EndChar

StartChar: uni2585
Encoding: 9605 9605 80
Width: 1921
Flags: W
LayerCount: 2
Fore
SplineSet
-10 773 m 1,0,-1
 1931 773 l 1,1,-1
 1931 -440 l 1,2,-1
 -10 -440 l 1,3,-1
 -10 773 l 1,0,-1
EndSplineSet
EndChar

StartChar: uni2586
Encoding: 9606 9606 81
Width: 1921
Flags: W
LayerCount: 2
Fore
SplineSet
-10 1016 m 1,0,-1
 1931 1016 l 1,1,-1
 1931 -440 l 1,2,-1
 -10 -440 l 1,3,-1
 -10 1016 l 1,0,-1
EndSplineSet
EndChar

StartChar: uni2587
Encoding: 9607 9607 82
Width: 1921
Flags: W
LayerCount: 2
Fore
SplineSet
-10 1258 m 1,0,-1
 1931 1258 l 1,1,-1
 1931 -440 l 1,2,-1
 -10 -440 l 1,3,-1
 -10 1258 l 1,0,-1
EndSplineSet
EndChar

StartChar: block
Encoding: 9608 9608 83
Width: 1921
Flags: W
LayerCount: 2
Fore
SplineSet
-10 1501 m 1,0,-1
 1931 1501 l 1,1,-1
 1931 -440 l 1,2,-1
 -10 -440 l 1,3,-1
 -10 1501 l 1,0,-1
EndSplineSet
EndChar

StartChar: uni2589
Encoding: 9609 9609 84
Width: 1678
Flags: W
LayerCount: 2
Fore
SplineSet
-10 1501 m 1,0,-1
 1688 1501 l 1,1,-1
 1688 -440 l 1,2,-1
 -10 -440 l 1,3,-1
 -10 1501 l 1,0,-1
EndSplineSet
EndChar

StartChar: uni258A
Encoding: 9610 9610 85
Width: 1436
Flags: W
LayerCount: 2
Fore
SplineSet
-10 1501 m 1,0,-1
 1446 1501 l 1,1,-1
 1446 -440 l 1,2,-1
 -10 -440 l 1,3,-1
 -10 1501 l 1,0,-1
EndSplineSet
EndChar

StartChar: uni258B
Encoding: 9611 9611 86
Width: 1193
Flags: W
LayerCount: 2
Fore
SplineSet
-10 1501 m 1,0,-1
 1203 1501 l 1,1,-1
 1203 -440 l 1,2,-1
 -10 -440 l 1,3,-1
 -10 1501 l 1,0,-1
EndSplineSet
EndChar

StartChar: lfblock
Encoding: 9612 9612 87
Width: 950
Flags: W
LayerCount: 2
Fore
SplineSet
-10 1501 m 1,0,-1
 960 1501 l 1,1,-1
 960 -440 l 1,2,-1
 -10 -440 l 1,3,-1
 -10 1501 l 1,0,-1
EndSplineSet
EndChar

StartChar: uni258D
Encoding: 9613 9613 88
Width: 708
Flags: W
LayerCount: 2
Fore
SplineSet
-10 1501 m 1,0,-1
 718 1501 l 1,1,-1
 718 -440 l 1,2,-1
 -10 -440 l 1,3,-1
 -10 1501 l 1,0,-1
EndSplineSet
EndChar

StartChar: uni258E
Encoding: 9614 9614 89
Width: 465
Flags: W
LayerCount: 2
Fore
SplineSet
-10 1501 m 1,0,-1
 475 1501 l 1,1,-1
 475 -440 l 1,2,-1
 -10 -440 l 1,3,-1
 -10 1501 l 1,0,-1
EndSplineSet
EndChar

StartChar: uni258F
Encoding: 9615 9615 90
Width: 223
Flags: W
LayerCount: 2
Fore
SplineSet
-10 1501 m 1,0,-1
 233 1501 l 1,1,-1
 233 -440 l 1,2,-1
 -10 -440 l 1,3,-1
 -10 1501 l 1,0,-1
EndSplineSet
EndChar

StartChar: uni2669
Encoding: 9833 9833 91
Width: 803
Flags: W
LayerCount: 2
Fore
SplineSet
144 169 m 0,0,1
 144 225 144 225 167 273.5 c 128,-1,2
 190 322 190 322 229.5 357.5 c 128,-1,3
 269 393 269 393 321 413.5 c 128,-1,4
 373 434 373 434 431 434 c 0,5,6
 476 434 476 434 512 423 c 1,7,-1
 512 1434 l 1,8,-1
 615 1434 l 1,9,-1
 615 289 l 2,10,11
 615 226 615 226 595.5 169 c 128,-1,12
 576 112 576 112 541 69 c 128,-1,13
 506 26 506 26 457 0.5 c 128,-1,14
 408 -25 408 -25 349 -25 c 0,15,16
 250 -25 250 -25 197 27 c 128,-1,17
 144 79 144 79 144 169 c 0,0,1
EndSplineSet
EndChar

StartChar: musicalnote
Encoding: 9834 9834 92
Width: 1087
Flags: W
LayerCount: 2
Fore
SplineSet
144 169 m 0,0,1
 144 225 144 225 167 273.5 c 128,-1,2
 190 322 190 322 229.5 357.5 c 128,-1,3
 269 393 269 393 321 413.5 c 128,-1,4
 373 434 373 434 431 434 c 0,5,6
 476 434 476 434 512 423 c 1,7,-1
 512 1434 l 1,8,-1
 615 1434 l 1,9,-1
 615 1407 l 2,10,11
 615 1383 615 1383 623 1364 c 128,-1,12
 631 1345 631 1345 651 1324.5 c 128,-1,13
 671 1304 671 1304 704 1279 c 128,-1,14
 737 1254 737 1254 787 1220 c 0,15,16
 835 1187 835 1187 867 1154.5 c 128,-1,17
 899 1122 899 1122 918 1087.5 c 128,-1,18
 937 1053 937 1053 944.5 1015.5 c 128,-1,19
 952 978 952 978 952 933 c 0,20,21
 952 876 952 876 936.5 825 c 128,-1,22
 921 774 921 774 894 726 c 1,23,-1
 816 752 l 1,24,25
 826 789 826 789 830.5 819.5 c 128,-1,26
 835 850 835 850 835 882 c 0,27,28
 835 919 835 919 829 948.5 c 128,-1,29
 823 978 823 978 808.5 1004.5 c 128,-1,30
 794 1031 794 1031 768.5 1055.5 c 128,-1,31
 743 1080 743 1080 704 1108 c 0,32,33
 673 1130 673 1130 651.5 1143.5 c 128,-1,34
 630 1157 630 1157 615 1173 c 1,35,-1
 615 289 l 2,36,37
 615 226 615 226 595.5 169 c 128,-1,38
 576 112 576 112 541 69 c 128,-1,39
 506 26 506 26 457 0.5 c 128,-1,40
 408 -25 408 -25 349 -25 c 0,41,42
 250 -25 250 -25 197 27 c 128,-1,43
 144 79 144 79 144 169 c 0,0,1
EndSplineSet
EndChar

StartChar: musicalnotedbl
Encoding: 9835 9835 93
Width: 1718
Flags: W
LayerCount: 2
Fore
SplineSet
855 -27 m 0,0,1
 855 29 855 29 878 77.5 c 128,-1,2
 901 126 901 126 940.5 161.5 c 128,-1,3
 980 197 980 197 1032 217.5 c 128,-1,4
 1084 238 1084 238 1142 238 c 0,5,6
 1187 238 1187 238 1223 227 c 1,7,-1
 1223 1109 l 1,8,-1
 615 1255 l 1,9,-1
 615 289 l 2,10,11
 615 226 615 226 595.5 169 c 128,-1,12
 576 112 576 112 541 69 c 128,-1,13
 506 26 506 26 457 0.5 c 128,-1,14
 408 -25 408 -25 349 -25 c 0,15,16
 250 -25 250 -25 197 27 c 128,-1,17
 144 79 144 79 144 169 c 0,18,19
 144 225 144 225 167 273.5 c 128,-1,20
 190 322 190 322 229.5 357.5 c 128,-1,21
 269 393 269 393 321 413.5 c 128,-1,22
 373 434 373 434 431 434 c 0,23,24
 476 434 476 434 512 423 c 1,25,-1
 512 1434 l 1,26,-1
 1326 1238 l 1,27,-1
 1326 93 l 2,28,29
 1326 30 1326 30 1306.5 -27 c 128,-1,30
 1287 -84 1287 -84 1252 -127 c 128,-1,31
 1217 -170 1217 -170 1168 -195.5 c 128,-1,32
 1119 -221 1119 -221 1060 -221 c 0,33,34
 961 -221 961 -221 908 -169 c 128,-1,35
 855 -117 855 -117 855 -27 c 0,0,1
EndSplineSet
EndChar

StartChar: uni266C
Encoding: 9836 9836 94
Width: 1856
Flags: W
LayerCount: 2
Fore
SplineSet
993 169 m 0,0,1
 993 225 993 225 1016 273.5 c 128,-1,2
 1039 322 1039 322 1078.5 357.5 c 128,-1,3
 1118 393 1118 393 1170 413.5 c 128,-1,4
 1222 434 1222 434 1280 434 c 0,5,6
 1325 434 1325 434 1361 423 c 1,7,-1
 1361 966 l 1,8,-1
 615 966 l 1,9,-1
 615 289 l 2,10,11
 615 226 615 226 595.5 169 c 128,-1,12
 576 112 576 112 541 69 c 128,-1,13
 506 26 506 26 457 0.5 c 128,-1,14
 408 -25 408 -25 349 -25 c 0,15,16
 250 -25 250 -25 197 27 c 128,-1,17
 144 79 144 79 144 169 c 0,18,19
 144 225 144 225 167 273.5 c 128,-1,20
 190 322 190 322 229.5 357.5 c 128,-1,21
 269 393 269 393 321 413.5 c 128,-1,22
 373 434 373 434 431 434 c 0,23,24
 476 434 476 434 512 423 c 1,25,-1
 512 1434 l 1,26,-1
 1464 1434 l 1,27,-1
 1464 289 l 2,28,29
 1464 226 1464 226 1444.5 169 c 128,-1,30
 1425 112 1425 112 1390 69 c 128,-1,31
 1355 26 1355 26 1306 0.5 c 128,-1,32
 1257 -25 1257 -25 1198 -25 c 0,33,34
 1099 -25 1099 -25 1046 27 c 128,-1,35
 993 79 993 79 993 169 c 0,0,1
615 1118 m 1,36,-1
 1361 1118 l 1,37,-1
 1361 1282 l 1,38,-1
 615 1282 l 1,39,-1
 615 1118 l 1,36,-1
EndSplineSet
EndChar

StartChar: uni266D
Encoding: 9837 9837 95
Width: 924
Flags: W
LayerCount: 2
Fore
SplineSet
780 414 m 0,0,1
 780 333 780 333 754 271.5 c 128,-1,2
 728 210 728 210 684.5 164 c 128,-1,3
 641 118 641 118 584.5 86.5 c 128,-1,4
 528 55 528 55 466.5 36 c 128,-1,5
 405 17 405 17 343 8.5 c 128,-1,6
 281 0 281 0 226 0 c 2,7,-1
 188 0 l 1,8,-1
 188 1434 l 1,9,-1
 291 1434 l 1,10,-1
 291 588 l 1,11,12
 347 638 347 638 406 666.5 c 128,-1,13
 465 695 465 695 544 695 c 0,14,15
 601 695 601 695 645 674.5 c 128,-1,16
 689 654 689 654 719 617 c 128,-1,17
 749 580 749 580 764.5 528 c 128,-1,18
 780 476 780 476 780 414 c 0,0,1
291 54 m 1,19,20
 370 62 370 62 429.5 92.5 c 128,-1,21
 489 123 489 123 528.5 170.5 c 128,-1,22
 568 218 568 218 587.5 280 c 128,-1,23
 607 342 607 342 607 414 c 0,24,25
 607 452 607 452 598 485.5 c 128,-1,26
 589 519 589 519 570.5 543.5 c 128,-1,27
 552 568 552 568 524 582.5 c 128,-1,28
 496 597 496 597 458 597 c 0,29,30
 412 597 412 597 370.5 577.5 c 128,-1,31
 329 558 329 558 291 528 c 1,32,-1
 291 54 l 1,19,20
EndSplineSet
EndChar

StartChar: uni266E
Encoding: 9838 9838 96
Width: 843
Flags: W
LayerCount: 2
Fore
SplineSet
188 243 m 1,0,-1
 188 1434 l 1,1,-1
 291 1434 l 1,2,-1
 291 1021 l 1,3,-1
 592 1190 l 1,4,-1
 655 1190 l 1,5,-1
 655 -1 l 1,6,-1
 552 -1 l 1,7,-1
 552 411 l 1,8,-1
 249 243 l 1,9,-1
 188 243 l 1,0,-1
291 418 m 1,10,-1
 552 563 l 1,11,-1
 552 1016 l 1,12,-1
 291 871 l 1,13,-1
 291 418 l 1,10,-1
EndSplineSet
EndChar

StartChar: uni267A
Encoding: 9850 9850 97
Width: 1801
Flags: W
LayerCount: 2
Fore
SplineSet
912 -197 m 1,0,-1
 907 -197 l 1,1,-1
 713 69 l 1,2,-1
 907 332 l 1,3,-1
 912 332 l 1,4,-1
 912 137 l 1,5,-1
 1450 137 l 2,6,7
 1513 137 1513 137 1541.5 162.5 c 128,-1,8
 1570 188 1570 188 1570 230 c 0,9,10
 1570 262 1570 262 1558 296.5 c 128,-1,11
 1546 331 1546 331 1515 384 c 2,12,-1
 1418 547 l 1,13,-1
 1535 618 l 1,14,-1
 1644 431 l 2,15,16
 1675 378 1675 378 1691 326 c 128,-1,17
 1707 274 1707 274 1707 226 c 256,18,19
 1707 178 1707 178 1691 137 c 128,-1,20
 1675 96 1675 96 1643 65.5 c 128,-1,21
 1611 35 1611 35 1563 17.5 c 128,-1,22
 1515 0 1515 0 1450 0 c 2,23,-1
 910 0 l 1,24,-1
 912 -197 l 1,0,-1
237 947 m 1,25,-1
 240 953 l 1,26,-1
 568 983 l 1,27,-1
 696 685 l 1,28,-1
 694 682 l 1,29,-1
 529 780 l 1,30,-1
 260 316 l 2,31,32
 246 291 246 291 239.5 272.5 c 128,-1,33
 233 254 233 254 233 237 c 0,34,35
 233 183 233 183 267.5 160 c 128,-1,36
 302 137 302 137 378 137 c 2,37,-1
 632 137 l 1,38,-1
 632 0 l 1,39,-1
 378 0 l 2,40,41
 317 0 317 0 265 13.5 c 128,-1,42
 213 27 213 27 175 54.5 c 128,-1,43
 137 82 137 82 115.5 125 c 128,-1,44
 94 168 94 168 94 228 c 0,45,46
 94 263 94 263 105.5 302.5 c 128,-1,47
 117 342 117 342 143 386 c 2,48,-1
 411 851 l 1,49,-1
 237 947 l 1,25,-1
1572 950 m 1,50,-1
 1575 945 l 1,51,-1
 1443 642 l 1,52,-1
 1122 673 l 1,53,-1
 1120 678 l 1,54,-1
 1285 776 l 1,55,-1
 1023 1218 l 2,56,57
 993 1268 993 1268 970 1291.5 c 128,-1,58
 947 1315 947 1315 911 1315 c 0,59,60
 874 1315 874 1315 848 1292 c 128,-1,61
 822 1269 822 1269 793 1220 c 2,62,-1
 665 1004 l 1,63,-1
 549 1075 l 1,64,-1
 677 1289 l 2,65,66
 703 1332 703 1332 727.5 1364 c 128,-1,67
 752 1396 752 1396 779 1417 c 128,-1,68
 806 1438 806 1438 838 1448 c 128,-1,69
 870 1458 870 1458 912 1458 c 0,70,71
 950 1458 950 1458 981 1447.5 c 128,-1,72
 1012 1437 1012 1437 1039 1416 c 128,-1,73
 1066 1395 1066 1395 1090 1363 c 128,-1,74
 1114 1331 1114 1331 1140 1288 c 2,75,-1
 1401 847 l 1,76,-1
 1572 950 l 1,50,-1
EndSplineSet
EndChar

StartChar: uni26A0
Encoding: 9888 9888 98
Width: 1764
Flags: W
LayerCount: 2
Fore
SplineSet
1693 -62 m 2,0,-1
 67 -62 l 2,1,2
 50 -62 50 -62 36.5 -52 c 128,-1,3
 23 -42 23 -42 15 -28 c 256,4,5
 7 -14 7 -14 7 2 c 0,6,7
 7 17 7 17 15 33 c 2,8,-1
 827 1475 l 2,9,10
 835 1489 835 1489 849 1496 c 128,-1,11
 863 1503 863 1503 879 1503 c 256,12,13
 895 1503 895 1503 909 1496 c 128,-1,14
 923 1489 923 1489 931 1475 c 2,15,-1
 1745 33 l 2,16,17
 1753 17 1753 17 1753 2 c 0,18,19
 1753 -14 1753 -14 1745 -28 c 256,20,21
 1737 -42 1737 -42 1723.5 -52 c 128,-1,22
 1710 -62 1710 -62 1693 -62 c 2,0,-1
171 66 m 1,23,-1
 1587 66 l 1,24,-1
 879 1320 l 1,25,-1
 171 66 l 1,23,-1
972 430 m 1,26,-1
 786 430 l 1,27,-1
 786 985 l 1,28,-1
 972 985 l 1,29,-1
 972 430 l 1,26,-1
1000 248 m 0,30,31
 1000 222 1000 222 990.5 200 c 128,-1,32
 981 178 981 178 964.5 161.5 c 128,-1,33
 948 145 948 145 926 135.5 c 128,-1,34
 904 126 904 126 879 126 c 256,35,36
 854 126 854 126 832 135.5 c 128,-1,37
 810 145 810 145 794 161.5 c 128,-1,38
 778 178 778 178 769 200 c 128,-1,39
 760 222 760 222 760 248 c 0,40,41
 760 273 760 273 769 296 c 128,-1,42
 778 319 778 319 794 335.5 c 128,-1,43
 810 352 810 352 832 362 c 128,-1,44
 854 372 854 372 879 372 c 256,45,46
 904 372 904 372 926 362 c 128,-1,47
 948 352 948 352 964.5 335.5 c 128,-1,48
 981 319 981 319 990.5 296 c 128,-1,49
 1000 273 1000 273 1000 248 c 0,30,31
EndSplineSet
EndChar

StartChar: .notdef
Encoding: 1114112 -1 99
Width: 1024
GlyphClass: 2
Flags: W
LayerCount: 2
Fore
SplineSet
0 0 m 1,0,-1
 0 1398 l 1,1,-1
 990 1398 l 1,2,-1
 990 0 l 1,3,-1
 0 0 l 1,0,-1
148 148 m 1,4,-1
 842 148 l 1,5,-1
 842 1250 l 1,6,-1
 148 1250 l 1,7,-1
 148 148 l 1,4,-1
EndSplineSet
EndChar

StartChar: exclam
Encoding: 33 33 103
Width: 713
GlyphClass: 2
Flags: W
LayerCount: 2
Fore
SplineSet
512 483 m 1,0,-1
 170 483 l 1,1,-1
 319 1434 l 1,2,-1
 768 1434 l 1,3,-1
 512 483 l 1,0,-1
526 188 m 0,4,5
 526 91 526 91 456.5 33 c 128,-1,6
 387 -25 387 -25 274 -25 c 0,7,8
 175 -25 175 -25 112 26.5 c 128,-1,9
 49 78 49 78 49 160 c 0,10,11
 49 256 49 256 119 315.5 c 128,-1,12
 189 375 189 375 303 375 c 0,13,14
 403 375 403 375 464.5 322 c 128,-1,15
 526 269 526 269 526 188 c 0,4,5
EndSplineSet
EndChar

StartChar: quotedbl
Encoding: 34 34 104
Width: 1188
GlyphClass: 2
Flags: W
LayerCount: 2
Fore
SplineSet
1124 1024 m 1,0,-1
 866 1024 l 1,1,-1
 815 1468 l 1,2,-1
 1174 1468 l 1,3,-1
 1124 1024 l 1,0,-1
641 1024 m 1,4,-1
 379 1024 l 1,5,-1
 334 1468 l 1,6,-1
 690 1468 l 1,7,-1
 641 1024 l 1,4,-1
EndSplineSet
EndChar

StartChar: numbersign
Encoding: 35 35 105
Width: 1145
GlyphClass: 2
Flags: W
LayerCount: 2
Fore
SplineSet
1126 864 m 1,0,-1
 1004 864 l 1,1,-1
 952 643 l 1,2,-1
 1094 643 l 1,3,-1
 1036 408 l 1,4,-1
 901 408 l 1,5,-1
 834 106 l 1,6,-1
 586 106 l 1,7,-1
 649 408 l 1,8,-1
 430 408 l 1,9,-1
 365 106 l 1,10,-1
 113 106 l 1,11,-1
 176 408 l 1,12,-1
 49 408 l 1,13,-1
 98 643 l 1,14,-1
 227 643 l 1,15,-1
 279 864 l 1,16,-1
 135 864 l 1,17,-1
 182 1100 l 1,18,-1
 328 1100 l 1,19,-1
 395 1417 l 1,20,-1
 651 1417 l 1,21,-1
 584 1100 l 1,22,-1
 799 1100 l 1,23,-1
 866 1417 l 1,24,-1
 1122 1417 l 1,25,-1
 1055 1100 l 1,26,-1
 1178 1100 l 1,27,-1
 1126 864 l 1,0,-1
530 864 m 1,28,-1
 479 643 l 1,29,-1
 698 643 l 1,30,-1
 750 864 l 1,31,-1
 530 864 l 1,28,-1
EndSplineSet
EndChar

StartChar: dollar
Encoding: 36 36 106
Width: 1227
GlyphClass: 2
Flags: W
LayerCount: 2
Fore
SplineSet
1100 1028 m 1,0,1
 985 1090 985 1090 905.5 1111.5 c 128,-1,2
 826 1133 826 1133 750 1133 c 0,3,4
 684 1133 684 1133 644 1104.5 c 128,-1,5
 604 1076 604 1076 604 1030 c 256,6,7
 604 984 604 984 639 951.5 c 128,-1,8
 674 919 674 919 770 868 c 0,9,10
 942 776 942 776 1005.5 683 c 128,-1,11
 1069 590 1069 590 1069 449 c 0,12,13
 1069 329 1069 329 1010.5 230.5 c 128,-1,14
 952 132 952 132 848 75.5 c 128,-1,15
 744 19 744 19 602 2 c 1,16,-1
 561 -195 l 1,17,-1
 324 -195 l 1,18,-1
 365 0 l 1,19,20
 168 17 168 17 14 100 c 1,21,-1
 88 449 l 1,22,23
 279 309 279 309 467 309 c 0,24,25
 543 309 543 309 582 337 c 128,-1,26
 621 365 621 365 621 418 c 0,27,28
 621 463 621 463 589.5 494 c 128,-1,29
 558 525 558 525 451 575 c 0,30,31
 287 654 287 654 221.5 746.5 c 128,-1,32
 156 839 156 839 156 979 c 0,33,34
 156 1109 156 1109 222.5 1214.5 c 128,-1,35
 289 1320 289 1320 404 1378 c 128,-1,36
 519 1436 519 1436 672 1446 c 1,37,-1
 707 1608 l 1,38,-1
 944 1608 l 1,39,-1
 907 1436 l 1,40,41
 1023 1419 1023 1419 1169 1368 c 1,42,-1
 1100 1028 l 1,0,1
EndSplineSet
EndChar

StartChar: percent
Encoding: 37 37 107
Width: 1839
GlyphClass: 2
Flags: W
LayerCount: 2
Fore
SplineSet
1753 416 m 0,0,1
 1753 288 1753 288 1702 185 c 128,-1,2
 1651 82 1651 82 1560.5 31 c 128,-1,3
 1470 -20 1470 -20 1346 -20 c 0,4,5
 1188 -20 1188 -20 1096 66.5 c 128,-1,6
 1004 153 1004 153 1004 293 c 0,7,8
 1004 419 1004 419 1057 523.5 c 128,-1,9
 1110 628 1110 628 1203 677.5 c 128,-1,10
 1296 727 1296 727 1419 727 c 0,11,12
 1575 727 1575 727 1664 645 c 128,-1,13
 1753 563 1753 563 1753 416 c 0,0,1
506 0 m 1,14,-1
 188 0 l 1,15,-1
 1415 1434 l 1,16,-1
 1731 1434 l 1,17,-1
 506 0 l 1,14,-1
911 1143 m 0,18,19
 911 1016 911 1016 859 911.5 c 128,-1,20
 807 807 807 807 716.5 757 c 128,-1,21
 626 707 626 707 502 707 c 0,22,23
 344 707 344 707 253 793.5 c 128,-1,24
 162 880 162 880 162 1020 c 0,25,26
 162 1146 162 1146 215 1250.5 c 128,-1,27
 268 1355 268 1355 361 1404.5 c 128,-1,28
 454 1454 454 1454 578 1454 c 0,29,30
 735 1454 735 1454 823 1371 c 128,-1,31
 911 1288 911 1288 911 1143 c 0,18,19
1485 410 m 0,32,33
 1485 458 1485 458 1462 485 c 128,-1,34
 1439 512 1439 512 1403 512 c 0,35,36
 1343 512 1343 512 1308.5 455 c 128,-1,37
 1274 398 1274 398 1274 297 c 0,38,39
 1274 251 1274 251 1296.5 224 c 128,-1,40
 1319 197 1319 197 1356 197 c 0,41,42
 1415 197 1415 197 1450 257 c 128,-1,43
 1485 317 1485 317 1485 410 c 0,32,33
643 1137 m 0,44,45
 643 1184 643 1184 621.5 1211.5 c 128,-1,46
 600 1239 600 1239 561 1239 c 0,47,48
 501 1239 501 1239 466.5 1180 c 128,-1,49
 432 1121 432 1121 432 1024 c 0,50,51
 432 978 432 978 454.5 951 c 128,-1,52
 477 924 477 924 514 924 c 0,53,54
 573 924 573 924 608 984 c 128,-1,55
 643 1044 643 1044 643 1137 c 0,44,45
EndSplineSet
EndChar

StartChar: ampersand
Encoding: 38 38 108
Width: 1550
GlyphClass: 2
Flags: W
LayerCount: 2
Fore
SplineSet
1485 782 m 1,0,1
 1458 653 1458 653 1384 524.5 c 128,-1,2
 1310 396 1310 396 1206 297 c 1,3,-1
 1415 0 l 1,4,-1
 985 0 l 1,5,-1
 930 86 l 1,6,7
 730 -25 730 -25 496 -25 c 0,8,9
 272 -25 272 -25 156.5 71 c 128,-1,10
 41 167 41 167 41 342 c 0,11,12
 41 492 41 492 142.5 599 c 128,-1,13
 244 706 244 706 471 795 c 1,14,15
 383 940 383 940 383 1065 c 0,16,17
 383 1175 383 1175 449 1269 c 128,-1,18
 515 1363 515 1363 623 1410.5 c 128,-1,19
 731 1458 731 1458 872 1458 c 0,20,21
 1056 1458 1056 1458 1164 1370.5 c 128,-1,22
 1272 1283 1272 1283 1272 1135 c 0,23,24
 1272 885 1272 885 901 760 c 1,25,-1
 1049 539 l 1,26,27
 1135 657 1135 657 1159 782 c 1,28,-1
 1485 782 l 1,0,1
934 1122 m 0,29,30
 934 1210 934 1210 834 1210 c 0,31,32
 789 1210 789 1210 756 1176 c 128,-1,33
 723 1142 723 1142 723 1100 c 256,34,35
 723 1058 723 1058 736 1024.5 c 128,-1,36
 749 991 749 991 780 946 c 1,37,38
 859 983 859 983 896.5 1023 c 128,-1,39
 934 1063 934 1063 934 1122 c 0,29,30
596 600 m 1,40,41
 527 568 527 568 482.5 511.5 c 128,-1,42
 438 455 438 455 438 401 c 0,43,44
 438 334 438 334 483.5 291 c 128,-1,45
 529 248 529 248 596 248 c 0,46,47
 692 248 692 248 780 309 c 1,48,-1
 596 600 l 1,40,41
EndSplineSet
EndChar

StartChar: quotesingle
Encoding: 39 39 109
Width: 705
GlyphClass: 2
Flags: W
LayerCount: 2
Fore
SplineSet
641 1026 m 1,0,-1
 379 1026 l 1,1,-1
 334 1468 l 1,2,-1
 690 1468 l 1,3,-1
 641 1026 l 1,0,-1
EndSplineSet
EndChar

StartChar: parenleft
Encoding: 40 40 110
Width: 862
GlyphClass: 2
Flags: W
LayerCount: 2
Fore
SplineSet
1061 1434 m 1,0,1
 783 1133 783 1133 663 856 c 128,-1,2
 543 579 543 579 543 262 c 0,3,4
 543 95 543 95 576.5 -58 c 128,-1,5
 610 -211 610 -211 668 -324 c 1,6,-1
 346 -324 l 1,7,8
 269 -201 269 -201 223.5 -21 c 128,-1,9
 178 159 178 159 178 328 c 0,10,11
 178 656 178 656 317 939.5 c 128,-1,12
 456 1223 456 1223 709 1434 c 1,13,-1
 1061 1434 l 1,0,1
EndSplineSet
EndChar

StartChar: parenright
Encoding: 41 41 111
Width: 862
GlyphClass: 2
Flags: W
LayerCount: 2
Fore
SplineSet
684 782 m 0,0,1
 684 456 684 456 546.5 172 c 128,-1,2
 409 -112 409 -112 154 -324 c 1,3,-1
 -199 -324 l 1,4,5
 79 -23 79 -23 199 254 c 128,-1,6
 319 531 319 531 319 848 c 0,7,8
 319 1011 319 1011 287 1163 c 128,-1,9
 255 1315 255 1315 195 1434 c 1,10,-1
 516 1434 l 1,11,12
 592 1316 592 1316 638 1138.5 c 128,-1,13
 684 961 684 961 684 782 c 0,0,1
EndSplineSet
EndChar

StartChar: asterisk
Encoding: 42 42 112
Width: 991
GlyphClass: 2
Flags: W
LayerCount: 2
Fore
SplineSet
754 989 m 1,0,-1
 961 795 l 1,1,-1
 729 637 l 1,2,-1
 600 887 l 1,3,-1
 471 639 l 1,4,-1
 240 795 l 1,5,-1
 446 989 l 1,6,-1
 166 1016 l 1,7,-1
 256 1272 l 1,8,-1
 508 1153 l 1,9,-1
 449 1434 l 1,10,-1
 752 1434 l 1,11,-1
 692 1153 l 1,12,-1
 944 1272 l 1,13,-1
 1034 1016 l 1,14,-1
 754 989 l 1,0,-1
EndSplineSet
EndChar

StartChar: plus
Encoding: 43 43 113
Width: 1464
GlyphClass: 2
Flags: W
LayerCount: 2
Fore
SplineSet
868 455 m 1,0,-1
 868 82 l 1,1,-1
 621 82 l 1,2,-1
 621 455 l 1,3,-1
 250 455 l 1,4,-1
 250 702 l 1,5,-1
 621 702 l 1,6,-1
 621 1073 l 1,7,-1
 868 1073 l 1,8,-1
 868 702 l 1,9,-1
 1241 702 l 1,10,-1
 1241 455 l 1,11,-1
 868 455 l 1,0,-1
EndSplineSet
EndChar

StartChar: comma
Encoding: 44 44 114
Width: 655
GlyphClass: 2
Flags: W
LayerCount: 2
Fore
SplineSet
240 -238 m 1,0,-1
 -115 -238 l 1,1,-1
 135 272 l 1,2,-1
 530 272 l 1,3,-1
 240 -238 l 1,0,-1
EndSplineSet
EndChar

StartChar: hyphen
Encoding: 45 45 115
Width: 834
GlyphClass: 2
Flags: W
LayerCount: 2
Fore
SplineSet
659 393 m 1,0,-1
 113 393 l 1,1,-1
 174 680 l 1,2,-1
 721 680 l 1,3,-1
 659 393 l 1,0,-1
EndSplineSet
EndChar

StartChar: period
Encoding: 46 46 116
Width: 655
GlyphClass: 2
Flags: W
LayerCount: 2
Fore
SplineSet
500 188 m 0,0,1
 500 93 500 93 430.5 34 c 128,-1,2
 361 -25 361 -25 248 -25 c 0,3,4
 149 -25 149 -25 86 26.5 c 128,-1,5
 23 78 23 78 23 160 c 0,6,7
 23 257 23 257 92 316 c 128,-1,8
 161 375 161 375 276 375 c 0,9,10
 377 375 377 375 438.5 322.5 c 128,-1,11
 500 270 500 270 500 188 c 0,0,1
EndSplineSet
EndChar

StartChar: slash
Encoding: 47 47 117
Width: 987
GlyphClass: 2
Flags: W
LayerCount: 2
Fore
SplineSet
141 -238 m 1,0,-1
 -281 -238 l 1,1,-1
 784 1434 l 1,2,-1
 1206 1434 l 1,3,-1
 141 -238 l 1,0,-1
EndSplineSet
EndChar

StartChar: zero
Encoding: 48 48 118
Width: 1264
GlyphClass: 2
Flags: W
LayerCount: 2
Fore
SplineSet
1229 975 m 0,0,1
 1229 788 1229 788 1181.5 601.5 c 128,-1,2
 1134 415 1134 415 1049.5 273.5 c 128,-1,3
 965 132 965 132 839 53.5 c 128,-1,4
 713 -25 713 -25 537 -25 c 0,5,6
 319 -25 319 -25 196.5 107 c 128,-1,7
 74 239 74 239 74 475 c 0,8,9
 74 657 74 657 123.5 843.5 c 128,-1,10
 173 1030 173 1030 257.5 1168 c 128,-1,11
 342 1306 342 1306 466.5 1382 c 128,-1,12
 591 1458 591 1458 770 1458 c 0,13,14
 911 1458 911 1458 1014.5 1401 c 128,-1,15
 1118 1344 1118 1344 1173.5 1231.5 c 128,-1,16
 1229 1119 1229 1119 1229 975 c 0,0,1
821 1016 m 0,17,18
 821 1147 821 1147 748 1147 c 0,19,20
 674 1147 674 1147 618.5 1029.5 c 128,-1,21
 563 912 563 912 522 724 c 128,-1,22
 481 536 481 536 481 424 c 0,23,24
 481 289 481 289 561 289 c 0,25,26
 604 289 604 289 635 326 c 0,27,28
 703 406 703 406 762 636 c 128,-1,29
 821 866 821 866 821 1016 c 0,17,18
EndSplineSet
Substitution2: "SegoeUIBlack-Italic-'salt' Stylistic Alternatives in Latin lookup 5 subtable" zero.salt
Substitution2: "SegoeUIBlack-Italic-'sups' Superscript in Latin lookup 3 subtable" uni2070
Substitution2: "SegoeUIBlack-Italic-'subs' Subscript in Latin lookup 2 subtable" uni2080
EndChar

StartChar: one
Encoding: 49 49 119
Width: 990
GlyphClass: 2
Flags: W
LayerCount: 2
Fore
SplineSet
214 0 m 1,0,-1
 442 1081 l 1,1,-1
 143 1036 l 1,2,-1
 212 1356 l 1,3,-1
 950 1458 l 1,4,-1
 640 0 l 1,5,-1
 214 0 l 1,0,-1
EndSplineSet
Substitution2: "SegoeUIBlack-Italic-'salt' Stylistic Alternatives in Latin lookup 5 subtable" one.salt
Substitution2: "SegoeUIBlack-Italic-'sups' Superscript in Latin lookup 3 subtable" uni00B9
Substitution2: "SegoeUIBlack-Italic-'subs' Subscript in Latin lookup 2 subtable" uni2081
EndChar

StartChar: two
Encoding: 50 50 120
Width: 1137
GlyphClass: 2
Flags: W
LayerCount: 2
Fore
SplineSet
-86 0 m 1,0,-1
 -62 115 l 2,1,2
 -37 236 -37 236 11.5 326 c 128,-1,3
 60 416 60 416 140 494 c 128,-1,4
 220 572 220 572 411 699 c 0,5,6
 568 805 568 805 613 845 c 128,-1,7
 658 885 658 885 680 923.5 c 128,-1,8
 702 962 702 962 702 1008 c 0,9,10
 702 1063 702 1063 663.5 1095.5 c 128,-1,11
 625 1128 625 1128 556 1128 c 0,12,13
 338 1128 338 1128 182 1021 c 1,14,-1
 256 1370 l 1,15,16
 450 1458 450 1458 730 1458 c 0,17,18
 858 1458 858 1458 950.5 1410 c 128,-1,19
 1043 1362 1043 1362 1092 1277 c 128,-1,20
 1141 1192 1141 1192 1141 1083 c 0,21,22
 1141 970 1141 970 1099.5 882 c 128,-1,23
 1058 794 1058 794 973.5 718.5 c 128,-1,24
 889 643 889 643 710 544 c 0,25,26
 550 453 550 453 496.5 411 c 128,-1,27
 443 369 443 369 436 342 c 1,28,-1
 986 342 l 1,29,-1
 914 0 l 1,30,-1
 -86 0 l 1,0,-1
EndSplineSet
Substitution2: "SegoeUIBlack-Italic-'salt' Stylistic Alternatives in Latin lookup 5 subtable" two.salt
Substitution2: "SegoeUIBlack-Italic-'sups' Superscript in Latin lookup 3 subtable" uni00B2
Substitution2: "SegoeUIBlack-Italic-'subs' Subscript in Latin lookup 2 subtable" uni2082
EndChar

StartChar: three
Encoding: 51 51 121
Width: 1065
GlyphClass: 2
Flags: W
LayerCount: 2
Fore
SplineSet
1059 1104 m 0,0,1
 1059 1016 1059 1016 1014.5 934.5 c 128,-1,2
 970 853 970 853 889.5 798.5 c 128,-1,3
 809 744 809 744 702 727 c 1,4,-1
 702 723 l 1,5,6
 950 670 950 670 950 414 c 0,7,8
 950 277 950 277 872.5 176.5 c 128,-1,9
 795 76 795 76 653 25.5 c 128,-1,10
 511 -25 511 -25 313 -25 c 0,11,12
 92 -25 92 -25 -84 55 c 1,13,-1
 -15 377 l 1,14,15
 146 287 146 287 297 287 c 0,16,17
 403 287 403 287 465.5 328.5 c 128,-1,18
 528 370 528 370 528 442 c 0,19,20
 528 510 528 510 477 542.5 c 128,-1,21
 426 575 426 575 315 575 c 2,22,-1
 182 575 l 1,23,-1
 248 889 l 1,24,-1
 415 889 l 2,25,26
 519 889 519 889 578 926 c 128,-1,27
 637 963 637 963 637 1034 c 0,28,29
 637 1147 637 1147 465 1147 c 0,30,31
 332 1147 332 1147 186 1083 c 1,32,-1
 250 1399 l 1,33,34
 362 1433 362 1433 449.5 1445.5 c 128,-1,35
 537 1458 537 1458 624 1458 c 0,36,37
 835 1458 835 1458 947 1366 c 128,-1,38
 1059 1274 1059 1274 1059 1104 c 0,0,1
EndSplineSet
Substitution2: "SegoeUIBlack-Italic-'salt' Stylistic Alternatives in Latin lookup 5 subtable" three.salt
Substitution2: "SegoeUIBlack-Italic-'sups' Superscript in Latin lookup 3 subtable" uni00B3
Substitution2: "SegoeUIBlack-Italic-'subs' Subscript in Latin lookup 2 subtable" uni2083
EndChar

StartChar: four
Encoding: 52 52 122
Width: 1214
GlyphClass: 2
Flags: W
LayerCount: 2
Fore
SplineSet
1172 1434 m 1,0,-1
 981 537 l 1,1,-1
 1144 537 l 1,2,-1
 1083 246 l 1,3,-1
 919 246 l 1,4,-1
 867 0 l 1,5,-1
 492 0 l 1,6,-1
 544 246 l 1,7,-1
 -35 246 l 1,8,-1
 27 541 l 1,9,10
 206 706 206 706 404 946.5 c 128,-1,11
 602 1187 602 1187 765 1434 c 1,12,-1
 1172 1434 l 1,0,-1
604 537 m 1,13,-1
 692 950 l 1,14,15
 633 858 633 858 533.5 735 c 128,-1,16
 434 612 434 612 351 537 c 1,17,-1
 604 537 l 1,13,-1
EndSplineSet
Substitution2: "SegoeUIBlack-Italic-'salt' Stylistic Alternatives in Latin lookup 5 subtable" four.salt
Substitution2: "SegoeUIBlack-Italic-'sups' Superscript in Latin lookup 3 subtable" uni2074
Substitution2: "SegoeUIBlack-Italic-'subs' Subscript in Latin lookup 2 subtable" uni2084
EndChar

StartChar: five
Encoding: 53 53 123
Width: 1118
GlyphClass: 2
Flags: W
LayerCount: 2
Fore
SplineSet
1097 1102 m 1,0,-1
 581 1102 l 1,1,-1
 536 901 l 1,2,-1
 579 903 l 1,3,4
 788 903 788 903 904.5 794 c 128,-1,5
 1021 685 1021 685 1021 496 c 0,6,7
 1021 350 1021 350 937 226.5 c 128,-1,8
 853 103 853 103 708.5 39 c 128,-1,9
 564 -25 564 -25 376 -25 c 0,10,11
 258 -25 258 -25 148.5 -1 c 128,-1,12
 39 23 39 23 -23 59 c 1,13,-1
 44 375 l 1,14,15
 104 339 104 339 198 313 c 128,-1,16
 292 287 292 287 356 287 c 0,17,18
 469 287 469 287 535.5 333.5 c 128,-1,19
 602 380 602 380 602 455 c 0,20,21
 602 598 602 598 358 598 c 0,22,23
 309 598 309 598 235 591.5 c 128,-1,24
 161 585 161 585 120 575 c 1,25,-1
 305 1434 l 1,26,-1
 1169 1434 l 1,27,-1
 1097 1102 l 1,0,-1
EndSplineSet
Substitution2: "SegoeUIBlack-Italic-'salt' Stylistic Alternatives in Latin lookup 5 subtable" five.salt
Substitution2: "SegoeUIBlack-Italic-'sups' Superscript in Latin lookup 3 subtable" uni2075
Substitution2: "SegoeUIBlack-Italic-'subs' Subscript in Latin lookup 2 subtable" uni2085
EndChar

StartChar: six
Encoding: 54 54 124
Width: 1214
GlyphClass: 2
Flags: W
LayerCount: 2
Fore
SplineSet
1151 1087 m 1,0,1
 1054 1147 1054 1147 908 1147 c 256,2,3
 762 1147 762 1147 661 1061 c 128,-1,4
 560 975 560 975 520 821 c 1,5,-1
 525 821 l 1,6,7
 577 877 577 877 648 910.5 c 128,-1,8
 719 944 719 944 803 944 c 0,9,10
 958 944 958 944 1049.5 836.5 c 128,-1,11
 1141 729 1141 729 1141 541 c 0,12,13
 1141 391 1141 391 1068 256.5 c 128,-1,14
 995 122 995 122 869 49.5 c 128,-1,15
 743 -23 743 -23 584 -23 c 0,16,17
 353 -23 353 -23 216.5 127 c 128,-1,18
 80 277 80 277 80 541 c 0,19,20
 80 806 80 806 189.5 1018.5 c 128,-1,21
 299 1231 299 1231 490 1344.5 c 128,-1,22
 681 1458 681 1458 920 1458 c 0,23,24
 1096 1458 1096 1458 1223 1413 c 1,25,-1
 1151 1087 l 1,0,1
744 498 m 0,26,27
 744 566 744 566 715.5 606.5 c 128,-1,28
 687 647 687 647 635 647 c 0,29,30
 568 647 568 647 526 587.5 c 128,-1,31
 484 528 484 528 484 438 c 0,32,33
 484 367 484 367 514.5 332 c 128,-1,34
 545 297 545 297 590 297 c 0,35,36
 656 297 656 297 700 357 c 128,-1,37
 744 417 744 417 744 498 c 0,26,27
EndSplineSet
Substitution2: "SegoeUIBlack-Italic-'salt' Stylistic Alternatives in Latin lookup 5 subtable" six.salt
Substitution2: "SegoeUIBlack-Italic-'sups' Superscript in Latin lookup 3 subtable" uni2076
Substitution2: "SegoeUIBlack-Italic-'subs' Subscript in Latin lookup 2 subtable" uni2086
EndChar

StartChar: seven
Encoding: 55 55 125
Width: 1124
GlyphClass: 2
Flags: W
LayerCount: 2
Fore
SplineSet
36 0 m 1,0,1
 107 196 107 196 197.5 366 c 128,-1,2
 288 536 288 536 400 696 c 128,-1,3
 512 856 512 856 719 1102 c 1,4,-1
 95 1102 l 1,5,-1
 165 1434 l 1,6,-1
 1214 1434 l 1,7,-1
 1161 1182 l 1,8,9
 968 934 968 934 857.5 761.5 c 128,-1,10
 747 589 747 589 653 402.5 c 128,-1,11
 559 216 559 216 479 0 c 1,12,-1
 36 0 l 1,0,1
EndSplineSet
Substitution2: "SegoeUIBlack-Italic-'salt' Stylistic Alternatives in Latin lookup 5 subtable" seven.salt
Substitution2: "SegoeUIBlack-Italic-'sups' Superscript in Latin lookup 3 subtable" uni2077
Substitution2: "SegoeUIBlack-Italic-'subs' Subscript in Latin lookup 2 subtable" uni2087
EndChar

StartChar: eight
Encoding: 56 56 126
Width: 1227
GlyphClass: 2
Flags: W
LayerCount: 2
Fore
SplineSet
8 358 m 0,0,1
 8 517 8 517 97 621 c 128,-1,2
 186 725 186 725 371 763 c 1,3,4
 306 799 306 799 264 877.5 c 128,-1,5
 222 956 222 956 222 1048 c 0,6,7
 222 1166 222 1166 286.5 1260 c 128,-1,8
 351 1354 351 1354 471 1406 c 128,-1,9
 591 1458 591 1458 754 1458 c 0,10,11
 992 1458 992 1458 1123.5 1357 c 128,-1,12
 1255 1256 1255 1256 1255 1079 c 0,13,14
 1255 943 1255 943 1167 846.5 c 128,-1,15
 1079 750 1079 750 914 710 c 1,16,17
 1017 666 1017 666 1070.5 586.5 c 128,-1,18
 1124 507 1124 507 1124 399 c 0,19,20
 1124 276 1124 276 1053.5 180 c 128,-1,21
 983 84 983 84 851 30.5 c 128,-1,22
 719 -23 719 -23 533 -23 c 0,23,24
 376 -23 376 -23 256.5 25.5 c 128,-1,25
 137 74 137 74 72.5 161.5 c 128,-1,26
 8 249 8 249 8 358 c 0,0,1
411 405 m 0,27,28
 411 334 411 334 451.5 297 c 128,-1,29
 492 260 492 260 555 260 c 0,30,31
 630 260 630 260 676.5 309.5 c 128,-1,32
 723 359 723 359 723 435 c 0,33,34
 723 504 723 504 684 543.5 c 128,-1,35
 645 583 645 583 579 583 c 0,36,37
 503 583 503 583 457 536 c 128,-1,38
 411 489 411 489 411 405 c 0,27,28
601 1001 m 0,39,40
 601 932 601 932 635.5 900.5 c 128,-1,41
 670 869 670 869 724 869 c 0,42,43
 786 869 786 869 826 915 c 128,-1,44
 866 961 866 961 866 1026 c 0,45,46
 866 1095 866 1095 833.5 1130 c 128,-1,47
 801 1165 801 1165 744 1165 c 0,48,49
 679 1165 679 1165 640 1120.5 c 128,-1,50
 601 1076 601 1076 601 1001 c 0,39,40
EndSplineSet
Substitution2: "SegoeUIBlack-Italic-'salt' Stylistic Alternatives in Latin lookup 5 subtable" eight.salt
Substitution2: "SegoeUIBlack-Italic-'sups' Superscript in Latin lookup 3 subtable" uni2078
Substitution2: "SegoeUIBlack-Italic-'subs' Subscript in Latin lookup 2 subtable" uni2088
EndChar

StartChar: nine
Encoding: 57 57 127
Width: 1227
GlyphClass: 2
Flags: W
LayerCount: 2
Fore
SplineSet
1182 885 m 0,0,1
 1182 740 1182 740 1144 602 c 128,-1,2
 1106 464 1106 464 1031.5 342.5 c 128,-1,3
 957 221 957 221 846 134 c 128,-1,4
 735 47 735 47 618 12 c 128,-1,5
 501 -23 501 -23 343 -23 c 0,6,7
 255 -23 255 -23 172.5 -8 c 128,-1,8
 90 7 90 7 39 27 c 1,9,-1
 103 348 l 1,10,11
 143 324 143 324 219 306.5 c 128,-1,12
 295 289 295 289 365 289 c 0,13,14
 660 289 660 289 740 616 c 1,15,-1
 736 616 l 1,16,17
 672 549 672 549 610 522.5 c 128,-1,18
 548 496 548 496 465 496 c 0,19,20
 316 496 316 496 218.5 607.5 c 128,-1,21
 121 719 121 719 121 899 c 0,22,23
 121 1053 121 1053 195 1186.5 c 128,-1,24
 269 1320 269 1320 395 1390 c 128,-1,25
 521 1460 521 1460 681 1460 c 0,26,27
 913 1460 913 1460 1047.5 1305 c 128,-1,28
 1182 1150 1182 1150 1182 885 c 0,0,1
787 991 m 0,29,30
 787 1052 787 1052 754.5 1096.5 c 128,-1,31
 722 1141 722 1141 672 1141 c 0,32,33
 610 1141 610 1141 568.5 1080.5 c 128,-1,34
 527 1020 527 1020 527 938 c 0,35,36
 527 873 527 873 557.5 832 c 128,-1,37
 588 791 588 791 638 791 c 0,38,39
 701 791 701 791 744 846 c 128,-1,40
 787 901 787 901 787 991 c 0,29,30
EndSplineSet
Substitution2: "SegoeUIBlack-Italic-'salt' Stylistic Alternatives in Latin lookup 5 subtable" nine.salt
Substitution2: "SegoeUIBlack-Italic-'sups' Superscript in Latin lookup 3 subtable" uni2079
Substitution2: "SegoeUIBlack-Italic-'subs' Subscript in Latin lookup 2 subtable" uni2089
EndChar

StartChar: colon
Encoding: 58 58 128
Width: 655
GlyphClass: 2
Flags: W
LayerCount: 2
Fore
SplineSet
633 838 m 0,0,1
 633 743 633 743 563.5 684 c 128,-1,2
 494 625 494 625 381 625 c 0,3,4
 283 625 283 625 219.5 675.5 c 128,-1,5
 156 726 156 726 156 809 c 0,6,7
 156 906 156 906 225 965 c 128,-1,8
 294 1024 294 1024 410 1024 c 0,9,10
 509 1024 509 1024 571 972 c 128,-1,11
 633 920 633 920 633 838 c 0,0,1
500 188 m 0,12,13
 500 93 500 93 430.5 34 c 128,-1,14
 361 -25 361 -25 248 -25 c 0,15,16
 149 -25 149 -25 86 26.5 c 128,-1,17
 23 78 23 78 23 160 c 0,18,19
 23 257 23 257 92 316 c 128,-1,20
 161 375 161 375 276 375 c 0,21,22
 377 375 377 375 438.5 322.5 c 128,-1,23
 500 270 500 270 500 188 c 0,12,13
EndSplineSet
EndChar

StartChar: semicolon
Encoding: 59 59 129
Width: 655
GlyphClass: 2
Flags: W
LayerCount: 2
Fore
SplineSet
633 838 m 0,0,1
 633 743 633 743 563.5 684 c 128,-1,2
 494 625 494 625 381 625 c 0,3,4
 283 625 283 625 219.5 675.5 c 128,-1,5
 156 726 156 726 156 809 c 0,6,7
 156 906 156 906 225 965 c 128,-1,8
 294 1024 294 1024 410 1024 c 0,9,10
 509 1024 509 1024 571 972 c 128,-1,11
 633 920 633 920 633 838 c 0,0,1
207 -238 m 1,12,-1
 -147 -238 l 1,13,-1
 102 272 l 1,14,-1
 498 272 l 1,15,-1
 207 -238 l 1,12,-1
EndSplineSet
EndChar

StartChar: less
Encoding: 60 60 130
Width: 1464
GlyphClass: 2
Flags: W
LayerCount: 2
Fore
SplineSet
213 436 m 1,0,-1
 213 676 l 1,1,-1
 1204 1083 l 1,2,-1
 1204 791 l 1,3,-1
 504 555 l 1,4,-1
 504 551 l 1,5,-1
 1204 315 l 1,6,-1
 1204 23 l 1,7,-1
 213 436 l 1,0,-1
EndSplineSet
EndChar

StartChar: equal
Encoding: 61 61 131
Width: 1464
GlyphClass: 2
Flags: W
LayerCount: 2
Fore
SplineSet
250 666 m 1,0,-1
 250 913 l 1,1,-1
 1241 913 l 1,2,-1
 1241 666 l 1,3,-1
 250 666 l 1,0,-1
250 236 m 1,4,-1
 250 483 l 1,5,-1
 1241 483 l 1,6,-1
 1241 236 l 1,7,-1
 250 236 l 1,4,-1
EndSplineSet
EndChar

StartChar: greater
Encoding: 62 62 132
Width: 1464
GlyphClass: 2
Flags: W
LayerCount: 2
Fore
SplineSet
274 43 m 1,0,-1
 274 338 l 1,1,-1
 975 571 l 1,2,-1
 975 575 l 1,3,-1
 274 809 l 1,4,-1
 274 1104 l 1,5,-1
 1266 696 l 1,6,-1
 1266 457 l 1,7,-1
 274 43 l 1,0,-1
EndSplineSet
EndChar

StartChar: question
Encoding: 63 63 133
Width: 907
GlyphClass: 2
Flags: W
LayerCount: 2
Fore
SplineSet
1028 1126 m 0,0,1
 1028 871 1028 871 721 700 c 0,2,3
 637 653 637 653 600 603.5 c 128,-1,4
 563 554 563 554 547 463 c 1,5,-1
 211 463 l 1,6,7
 235 583 235 583 259 642.5 c 128,-1,8
 283 702 283 702 320 751.5 c 128,-1,9
 357 801 357 801 412 840 c 0,10,11
 532 926 532 926 555 948 c 128,-1,12
 578 970 578 970 589 990.5 c 128,-1,13
 600 1011 600 1011 600 1036 c 0,14,15
 600 1087 600 1087 562.5 1112 c 128,-1,16
 525 1137 525 1137 459 1137 c 0,17,18
 311 1137 311 1137 139 1051 c 1,19,-1
 215 1399 l 1,20,21
 295 1435 295 1435 397.5 1456 c 128,-1,22
 500 1477 500 1477 582 1477 c 0,23,24
 795 1477 795 1477 911.5 1386.5 c 128,-1,25
 1028 1296 1028 1296 1028 1126 c 0,0,1
580 188 m 0,26,27
 580 93 580 93 510.5 34 c 128,-1,28
 441 -25 441 -25 328 -25 c 0,29,30
 228 -25 228 -25 165 27.5 c 128,-1,31
 102 80 102 80 102 160 c 0,32,33
 102 256 102 256 172 315.5 c 128,-1,34
 242 375 242 375 356 375 c 0,35,36
 455 375 455 375 517.5 322.5 c 128,-1,37
 580 270 580 270 580 188 c 0,26,27
EndSplineSet
EndChar

StartChar: at
Encoding: 64 64 134
Width: 1944
GlyphClass: 2
Flags: W
LayerCount: 2
Fore
SplineSet
1890 817 m 0,0,1
 1890 647 1890 647 1815 493.5 c 128,-1,2
 1740 340 1740 340 1613 260 c 128,-1,3
 1486 180 1486 180 1319 180 c 0,4,5
 1240 180 1240 180 1188.5 200 c 128,-1,6
 1137 220 1137 220 1109 251.5 c 128,-1,7
 1081 283 1081 283 1081 317 c 2,8,-1
 1081 330 l 1,9,-1
 1075 330 l 1,10,11
 973 180 973 180 813 180 c 0,12,13
 687 180 687 180 620 268.5 c 128,-1,14
 553 357 553 357 553 518 c 0,15,16
 553 670 553 670 618.5 803 c 128,-1,17
 684 936 684 936 791 1004.5 c 128,-1,18
 898 1073 898 1073 1026 1073 c 0,19,20
 1084 1073 1084 1073 1126.5 1045.5 c 128,-1,21
 1169 1018 1169 1018 1184 965 c 1,22,-1
 1188 965 l 1,23,-1
 1208 1051 l 1,24,-1
 1501 1051 l 1,25,26
 1465 908 1465 908 1432 767.5 c 128,-1,27
 1399 627 1399 627 1382.5 553 c 128,-1,28
 1366 479 1366 479 1366 467 c 0,29,30
 1366 436 1366 436 1378.5 421 c 128,-1,31
 1391 406 1391 406 1423 406 c 0,32,33
 1466 406 1466 406 1512 462.5 c 128,-1,34
 1558 519 1558 519 1586 611.5 c 128,-1,35
 1614 704 1614 704 1614 811 c 0,36,37
 1614 1019 1614 1019 1483.5 1125 c 128,-1,38
 1353 1231 1353 1231 1104 1231 c 0,39,40
 902 1231 902 1231 743.5 1142 c 128,-1,41
 585 1053 585 1053 498.5 891.5 c 128,-1,42
 412 730 412 730 412 524 c 0,43,44
 412 284 412 284 550 157.5 c 128,-1,45
 688 31 688 31 954 31 c 0,46,47
 1078 31 1078 31 1213.5 58.5 c 128,-1,48
 1349 86 1349 86 1419 119 c 1,49,-1
 1378 -119 l 1,50,51
 1316 -145 1316 -145 1177 -166.5 c 128,-1,52
 1038 -188 1038 -188 909 -188 c 0,53,54
 531 -188 531 -188 325 -2.5 c 128,-1,55
 119 183 119 183 119 518 c 0,56,57
 119 783 119 783 249 1000 c 128,-1,58
 379 1217 379 1217 605 1334.5 c 128,-1,59
 831 1452 831 1452 1118 1452 c 0,60,61
 1490 1452 1490 1452 1690 1287.5 c 128,-1,62
 1890 1123 1890 1123 1890 817 c 0,0,1
1135 760 m 0,63,64
 1135 805 1135 805 1111.5 829.5 c 128,-1,65
 1088 854 1088 854 1044 854 c 0,66,67
 968 854 968 854 910 755.5 c 128,-1,68
 852 657 852 657 852 535 c 0,69,70
 852 399 852 399 942 399 c 0,71,72
 988 399 988 399 1032.5 454 c 128,-1,73
 1077 509 1077 509 1106 598.5 c 128,-1,74
 1135 688 1135 688 1135 760 c 0,63,64
EndSplineSet
EndChar

StartChar: A
Encoding: 65 65 135
Width: 1536
GlyphClass: 2
Flags: W
AnchorPoint: "Anchor-14" 0 2100 basechar 0
AnchorPoint: "Anchor-13" 1402 2100 basechar 0
AnchorPoint: "Anchor-10" 1125 0 basechar 0
AnchorPoint: "Anchor-9" 741 -50 basechar 0
AnchorPoint: "Anchor-8" 1201 1434 basechar 0
AnchorPoint: "Anchor-7" 1379 -420 basechar 0
AnchorPoint: "Anchor-6" 1456 1900 basechar 0
AnchorPoint: "Anchor-5" 768 717 basechar 0
AnchorPoint: "Anchor-4" 861 1434 basechar 0
AnchorPoint: "Anchor-2" 768 -15 basechar 0
AnchorPoint: "Anchor-1" 996 1500 basechar 0
AnchorPoint: "Anchor-0" 768 1600 basechar 0
LayerCount: 2
Fore
SplineSet
961 0 m 1,0,-1
 940 264 l 1,1,-1
 510 264 l 1,2,-1
 381 0 l 1,3,-1
 -94 0 l 1,4,-1
 702 1434 l 1,5,-1
 1239 1434 l 1,6,-1
 1401 0 l 1,7,-1
 961 0 l 1,0,-1
898 1008 m 2,8,9
 898 1076 898 1076 903 1106 c 1,10,-1
 893 1106 l 1,11,-1
 874 1056 l 1,12,-1
 836 969 l 1,13,-1
 662 602 l 1,14,-1
 918 602 l 1,15,-1
 899 961 l 1,16,-1
 898 1008 l 2,8,9
EndSplineSet
EndChar

StartChar: B
Encoding: 66 66 136
Width: 1436
GlyphClass: 2
Flags: W
AnchorPoint: "Anchor-14" 0 2100 basechar 0
AnchorPoint: "Anchor-13" 1263 2100 basechar 0
AnchorPoint: "Anchor-10" 600 0 basechar 0
AnchorPoint: "Anchor-8" 1303 1274 basechar 0
AnchorPoint: "Anchor-7" 1160 -420 basechar 0
AnchorPoint: "Anchor-6" 1326 1900 basechar 0
AnchorPoint: "Anchor-5" 676 717 basechar 0
AnchorPoint: "Anchor-4" 1049 1314 basechar 0
AnchorPoint: "Anchor-2" 659 -15 basechar 0
AnchorPoint: "Anchor-1" 1089 1500 basechar 0
AnchorPoint: "Anchor-0" 659 1600 basechar 0
LayerCount: 2
Fore
SplineSet
1423 1098 m 0,0,1
 1423 963 1423 963 1327.5 874 c 128,-1,2
 1232 785 1232 785 1065 754 c 1,3,-1
 1065 750 l 1,4,5
 1200 733 1200 733 1276 651.5 c 128,-1,6
 1352 570 1352 570 1352 444 c 0,7,8
 1352 308 1352 308 1277 208.5 c 128,-1,9
 1202 109 1202 109 1056.5 54.5 c 128,-1,10
 911 0 911 0 702 0 c 2,11,-1
 31 0 l 1,12,-1
 334 1434 l 1,13,-1
 924 1434 l 2,14,15
 1177 1434 1177 1434 1300 1352 c 128,-1,16
 1423 1270 1423 1270 1423 1098 c 0,0,1
965 1014 m 0,17,18
 965 1086 965 1086 924.5 1115.5 c 128,-1,19
 884 1145 884 1145 784 1145 c 2,20,-1
 705 1145 l 1,21,-1
 647 874 l 1,22,-1
 782 874 l 2,23,24
 862 874 862 874 913.5 915 c 128,-1,25
 965 956 965 956 965 1014 c 0,17,18
893 453 m 0,26,27
 893 512 893 512 855 548 c 128,-1,28
 817 584 817 584 750 584 c 2,29,-1
 588 584 l 1,30,-1
 522 291 l 1,31,-1
 674 291 l 2,32,33
 777 291 777 291 835 334.5 c 128,-1,34
 893 378 893 378 893 453 c 0,26,27
EndSplineSet
EndChar

StartChar: C
Encoding: 67 67 137
Width: 1290
GlyphClass: 2
Flags: W
AnchorPoint: "Anchor-14" 0 2100 basechar 0
AnchorPoint: "Anchor-13" 1277 2100 basechar 0
AnchorPoint: "Anchor-10" 869 -15 basechar 0
AnchorPoint: "Anchor-9" 743 -15 basechar 0
AnchorPoint: "Anchor-8" 1362 1401 basechar 0
AnchorPoint: "Anchor-7" 1173 -420 basechar 0
AnchorPoint: "Anchor-6" 1281 1900 basechar 0
AnchorPoint: "Anchor-5" 763 741 basechar 0
AnchorPoint: "Anchor-4" 1175 1410 basechar 0
AnchorPoint: "Anchor-2" 759 -25 basechar 0
AnchorPoint: "Anchor-1" 1229 1500 basechar 0
AnchorPoint: "Anchor-0" 779 1600 basechar 0
LayerCount: 2
Fore
SplineSet
1294 1014 m 1,0,1
 1233 1043 1233 1043 1160 1063 c 128,-1,2
 1087 1083 1087 1083 983 1083 c 0,3,4
 847 1083 847 1083 747.5 1024.5 c 128,-1,5
 648 966 648 966 594.5 861.5 c 128,-1,6
 541 757 541 757 541 629 c 0,7,8
 541 495 541 495 622 419.5 c 128,-1,9
 703 344 703 344 856 344 c 0,10,11
 924 344 924 344 1008 366 c 128,-1,12
 1092 388 1092 388 1171 426 c 1,13,-1
 1085 31 l 1,14,15
 929 -25 929 -25 741 -25 c 0,16,17
 425 -25 425 -25 253.5 138 c 128,-1,18
 82 301 82 301 82 590 c 0,19,20
 82 849 82 849 199 1051.5 c 128,-1,21
 316 1254 316 1254 526.5 1356 c 128,-1,22
 737 1458 737 1458 1020 1458 c 0,23,24
 1111 1458 1111 1458 1212 1443.5 c 128,-1,25
 1313 1429 1313 1429 1382 1409 c 1,26,-1
 1294 1014 l 1,0,1
EndSplineSet
EndChar

StartChar: D
Encoding: 68 68 138
Width: 1591
GlyphClass: 2
Flags: W
AnchorPoint: "Anchor-14" 0 2100 basechar 0
AnchorPoint: "Anchor-13" 1479 2100 basechar 0
AnchorPoint: "Anchor-10" 600 0 basechar 0
AnchorPoint: "Anchor-8" 1443 1274 basechar 0
AnchorPoint: "Anchor-7" 1385 -420 basechar 0
AnchorPoint: "Anchor-6" 1512 1900 basechar 0
AnchorPoint: "Anchor-5" 803 717 basechar 0
AnchorPoint: "Anchor-4" 1242 1287 basechar 0
AnchorPoint: "Anchor-2" 743 -15 basechar 0
AnchorPoint: "Anchor-1" 1273 1500 basechar 0
AnchorPoint: "Anchor-0" 743 1600 basechar 0
LayerCount: 2
Fore
SplineSet
1561 852 m 0,0,1
 1561 597 1561 597 1454.5 400 c 128,-1,2
 1348 203 1348 203 1155.5 101.5 c 128,-1,3
 963 0 963 0 700 0 c 2,4,-1
 31 0 l 1,5,-1
 334 1434 l 1,6,-1
 905 1434 l 2,7,8
 1229 1434 1229 1434 1395 1281 c 128,-1,9
 1561 1128 1561 1128 1561 852 c 0,0,1
1102 819 m 0,10,11
 1102 958 1102 958 1029 1027 c 128,-1,12
 956 1096 956 1096 805 1096 c 2,13,-1
 694 1096 l 1,14,-1
 535 338 l 1,15,-1
 680 338 l 2,16,17
 878 338 878 338 990 467.5 c 128,-1,18
 1102 597 1102 597 1102 819 c 0,10,11
EndSplineSet
EndChar

StartChar: E
Encoding: 69 69 139
Width: 1130
GlyphClass: 2
Flags: W
AnchorPoint: "Anchor-14" 0 2100 basechar 0
AnchorPoint: "Anchor-13" 1071 2100 basechar 0
AnchorPoint: "Anchor-10" 760 0 basechar 0
AnchorPoint: "Anchor-9" 560 0 basechar 0
AnchorPoint: "Anchor-8" 1115 1434 basechar 0
AnchorPoint: "Anchor-7" 983 -420 basechar 0
AnchorPoint: "Anchor-6" 1095 1900 basechar 0
AnchorPoint: "Anchor-5" 553 717 basechar 0
AnchorPoint: "Anchor-4" 951 1434 basechar 0
AnchorPoint: "Anchor-2" 635 -15 basechar 0
AnchorPoint: "Anchor-1" 1015 1500 basechar 0
AnchorPoint: "Anchor-0" 635 1600 basechar 0
LayerCount: 2
Fore
SplineSet
1155 1096 m 1,0,-1
 694 1096 l 1,1,-1
 651 887 l 1,2,-1
 1083 887 l 1,3,-1
 1012 549 l 1,4,-1
 580 549 l 1,5,-1
 535 338 l 1,6,-1
 1028 338 l 1,7,-1
 956 0 l 1,8,-1
 31 0 l 1,9,-1
 334 1434 l 1,10,-1
 1227 1434 l 1,11,-1
 1155 1096 l 1,0,-1
EndSplineSet
EndChar

StartChar: F
Encoding: 70 70 140
Width: 1108
GlyphClass: 2
Flags: W
AnchorPoint: "Anchor-14" 0 2100 basechar 0
AnchorPoint: "Anchor-13" 1040 2100 basechar 0
AnchorPoint: "Anchor-10" 230 0 basechar 0
AnchorPoint: "Anchor-8" 1120 1434 basechar 0
AnchorPoint: "Anchor-7" 956 -420 basechar 0
AnchorPoint: "Anchor-6" 1069 1900 basechar 0
AnchorPoint: "Anchor-5" 540 717 basechar 0
AnchorPoint: "Anchor-4" 965 1434 basechar 0
AnchorPoint: "Anchor-2" 640 -15 basechar 0
AnchorPoint: "Anchor-1" 1020 1500 basechar 0
AnchorPoint: "Anchor-0" 640 1600 basechar 0
LayerCount: 2
Fore
SplineSet
1161 1096 m 1,0,-1
 694 1096 l 1,1,-1
 641 838 l 1,2,-1
 1067 838 l 1,3,-1
 993 500 l 1,4,-1
 567 500 l 1,5,-1
 463 0 l 1,6,-1
 31 0 l 1,7,-1
 334 1434 l 1,8,-1
 1233 1434 l 1,9,-1
 1161 1096 l 1,0,-1
EndSplineSet
EndChar

StartChar: G
Encoding: 71 71 141
Width: 1497
GlyphClass: 2
Flags: W
AnchorPoint: "Anchor-14" 0 2100 basechar 0
AnchorPoint: "Anchor-13" 1436 2100 basechar 0
AnchorPoint: "Anchor-10" 935 0 basechar 0
AnchorPoint: "Anchor-9" 791 -15 basechar 0
AnchorPoint: "Anchor-8" 1367 1385 basechar 0
AnchorPoint: "Anchor-7" 1291 -420 basechar 0
AnchorPoint: "Anchor-6" 1459 1900 basechar 0
AnchorPoint: "Anchor-5" 733 741 basechar 0
AnchorPoint: "Anchor-4" 1262 1344 basechar 0
AnchorPoint: "Anchor-2" 851 -25 basechar 0
AnchorPoint: "Anchor-1" 1311 1500 basechar 0
AnchorPoint: "Anchor-0" 851 1600 basechar 0
LayerCount: 2
Fore
SplineSet
1391 1014 m 1,0,1
 1317 1057 1317 1057 1221.5 1082.5 c 128,-1,2
 1126 1108 1126 1108 1036 1108 c 0,3,4
 808 1108 808 1108 679.5 978.5 c 128,-1,5
 551 849 551 849 551 621 c 0,6,7
 551 477 551 477 622 398 c 128,-1,8
 693 319 693 319 823 319 c 0,9,10
 869 319 869 319 913 330 c 1,11,-1
 958 539 l 1,12,-1
 694 539 l 1,13,-1
 764 866 l 1,14,-1
 1460 866 l 1,15,-1
 1296 94 l 1,16,17
 1052 -25 1052 -25 760 -25 c 0,18,19
 443 -25 443 -25 267.5 142 c 128,-1,20
 92 309 92 309 92 614 c 0,21,22
 92 856 92 856 210.5 1052 c 128,-1,23
 329 1248 329 1248 542.5 1353 c 128,-1,24
 756 1458 756 1458 1044 1458 c 0,25,26
 1244 1458 1244 1458 1475 1386 c 1,27,-1
 1391 1014 l 1,0,1
EndSplineSet
EndChar

StartChar: H
Encoding: 72 72 142
Width: 1645
GlyphClass: 2
Flags: W
AnchorPoint: "Anchor-14" 0 2100 basechar 0
AnchorPoint: "Anchor-13" 1523 2100 basechar 0
AnchorPoint: "Anchor-10" 1100 0 basechar 0
AnchorPoint: "Anchor-8" 1563 1434 basechar 0
AnchorPoint: "Anchor-7" 1335 -420 basechar 0
AnchorPoint: "Anchor-6" 1575 1900 basechar 0
AnchorPoint: "Anchor-5" 822 717 basechar 0
AnchorPoint: "Anchor-4" 1340 1434 basechar 0
AnchorPoint: "Anchor-2" 822 -15 basechar 0
AnchorPoint: "Anchor-1" 1389 1500 basechar 0
AnchorPoint: "Anchor-0" 822 1600 basechar 0
LayerCount: 2
Fore
SplineSet
1391 0 m 1,0,-1
 956 0 l 1,1,-1
 1071 535 l 1,2,-1
 575 535 l 1,3,-1
 461 0 l 1,4,-1
 29 0 l 1,5,-1
 334 1434 l 1,6,-1
 766 1434 l 1,7,-1
 653 903 l 1,8,-1
 1149 903 l 1,9,-1
 1262 1434 l 1,10,-1
 1696 1434 l 1,11,-1
 1391 0 l 1,0,-1
EndSplineSet
EndChar

StartChar: I
Encoding: 73 73 143
Width: 713
GlyphClass: 2
Flags: W
AnchorPoint: "Anchor-14" 0 2100 basechar 0
AnchorPoint: "Anchor-13" 635 2100 basechar 0
AnchorPoint: "Anchor-10" 230 0 basechar 0
AnchorPoint: "Anchor-9" 290 0 basechar 0
AnchorPoint: "Anchor-8" 800 1434 basechar 0
AnchorPoint: "Anchor-7" 586 -420 basechar 0
AnchorPoint: "Anchor-6" 682 1900 basechar 0
AnchorPoint: "Anchor-5" 402 717 basechar 0
AnchorPoint: "Anchor-4" 570 1434 basechar 0
AnchorPoint: "Anchor-2" 386 -15 basechar 0
AnchorPoint: "Anchor-1" 610 1500 basechar 0
AnchorPoint: "Anchor-0" 386 1600 basechar 0
LayerCount: 2
Fore
SplineSet
461 0 m 1,0,-1
 29 0 l 1,1,-1
 332 1434 l 1,2,-1
 764 1434 l 1,3,-1
 461 0 l 1,0,-1
EndSplineSet
EndChar

StartChar: J
Encoding: 74 74 144
Width: 1051
GlyphClass: 2
Flags: W
AnchorPoint: "Anchor-14" 0 2100 basechar 0
AnchorPoint: "Anchor-13" 849 2100 basechar 0
AnchorPoint: "Anchor-10" 200 0 basechar 0
AnchorPoint: "Anchor-8" 1089 1434 basechar 0
AnchorPoint: "Anchor-7" 673 -420 basechar 0
AnchorPoint: "Anchor-6" 930 1900 basechar 0
AnchorPoint: "Anchor-5" 644 729 basechar 0
AnchorPoint: "Anchor-4" 675 1440 basechar 0
AnchorPoint: "Anchor-2" 498 -15 basechar 0
AnchorPoint: "Anchor-1" 718 1500 basechar 0
AnchorPoint: "Anchor-0" 657 1600 basechar 0
LayerCount: 2
Fore
SplineSet
186 -25 m 0,0,1
 133 -25 133 -25 63 -12.5 c 128,-1,2
 -7 0 -7 0 -66 23 c 1,3,-1
 20 422 l 1,4,5
 69 385 69 385 126.5 364.5 c 128,-1,6
 184 344 184 344 221 344 c 0,7,8
 337 344 337 344 409 415 c 128,-1,9
 481 486 481 486 514 637 c 2,10,-1
 684 1434 l 1,11,-1
 1118 1434 l 1,12,-1
 942 612 l 2,13,14
 804 -25 804 -25 186 -25 c 0,0,1
EndSplineSet
EndChar

StartChar: K
Encoding: 75 75 145
Width: 1413
GlyphClass: 2
Flags: W
AnchorPoint: "Anchor-14" 0 2100 basechar 0
AnchorPoint: "Anchor-13" 1269 2100 basechar 0
AnchorPoint: "Anchor-10" 970 0 basechar 0
AnchorPoint: "Anchor-9" 691 -50 basechar 0
AnchorPoint: "Anchor-8" 1409 1434 basechar 0
AnchorPoint: "Anchor-7" 1267 -420 basechar 0
AnchorPoint: "Anchor-6" 1332 1900 basechar 0
AnchorPoint: "Anchor-5" 376 1003 basechar 0
AnchorPoint: "Anchor-4" 1149 1434 basechar 0
AnchorPoint: "Anchor-2" 731 -15 basechar 0
AnchorPoint: "Anchor-1" 1281 1500 basechar 0
AnchorPoint: "Anchor-0" 731 1600 basechar 0
LayerCount: 2
Fore
SplineSet
1612 1434 m 1,0,-1
 1051 750 l 1,1,-1
 1348 0 l 1,2,-1
 823 0 l 1,3,-1
 629 598 l 2,4,5
 620 623 620 623 610 680 c 1,6,-1
 606 680 l 1,7,-1
 463 0 l 1,8,-1
 31 0 l 1,9,-1
 334 1434 l 1,10,-1
 766 1434 l 1,11,-1
 627 774 l 1,12,-1
 631 774 l 1,13,-1
 656 812 l 1,14,-1
 1100 1434 l 1,15,-1
 1612 1434 l 1,0,-1
EndSplineSet
EndChar

StartChar: L
Encoding: 76 76 146
Width: 1108
GlyphClass: 2
Flags: W
AnchorPoint: "Anchor-14" 0 2100 basechar 0
AnchorPoint: "Anchor-13" 1018 2100 basechar 0
AnchorPoint: "Anchor-10" 730 0 basechar 0
AnchorPoint: "Anchor-9" 562 0 basechar 0
AnchorPoint: "Anchor-8" 676 1434 basechar 0
AnchorPoint: "Anchor-7" 986 -420 basechar 0
AnchorPoint: "Anchor-6" 1055 1900 basechar 0
AnchorPoint: "Anchor-5" 349 717 basechar 0
AnchorPoint: "Anchor-4" 416 1434 basechar 0
AnchorPoint: "Anchor-2" 644 -15 basechar 0
AnchorPoint: "Anchor-1" 954 1500 basechar 0
AnchorPoint: "Anchor-0" 644 1600 basechar 0
LayerCount: 2
Fore
SplineSet
956 0 m 1,0,-1
 31 0 l 1,1,-1
 334 1434 l 1,2,-1
 766 1434 l 1,3,-1
 535 338 l 1,4,-1
 1028 338 l 1,5,-1
 956 0 l 1,0,-1
EndSplineSet
EndChar

StartChar: M
Encoding: 77 77 147
Width: 2019
GlyphClass: 2
Flags: W
AnchorPoint: "Anchor-14" 0 2100 basechar 0
AnchorPoint: "Anchor-13" 1903 2100 basechar 0
AnchorPoint: "Anchor-10" 1490 0 basechar 0
AnchorPoint: "Anchor-8" 1974 1434 basechar 0
AnchorPoint: "Anchor-7" 1714 -420 basechar 0
AnchorPoint: "Anchor-6" 1957 1900 basechar 0
AnchorPoint: "Anchor-5" 1010 834 basechar 0
AnchorPoint: "Anchor-4" 1709 1434 basechar 0
AnchorPoint: "Anchor-2" 1010 -15 basechar 0
AnchorPoint: "Anchor-1" 1764 1500 basechar 0
AnchorPoint: "Anchor-0" 1010 1600 basechar 0
LayerCount: 2
Fore
SplineSet
1767 0 m 1,0,-1
 1341 0 l 1,1,-1
 1520 844 l 1,2,-1
 1567 1059 l 1,3,-1
 1559 1059 l 1,4,-1
 1485 881 l 1,5,-1
 1081 0 l 1,6,-1
 684 0 l 1,7,-1
 633 831 l 2,8,9
 627 915 627 915 627 1059 c 1,10,-1
 618 1059 l 1,11,12
 589 838 589 838 551 655 c 2,13,-1
 412 0 l 1,14,-1
 29 0 l 1,15,-1
 332 1434 l 1,16,-1
 938 1434 l 1,17,-1
 988 577 l 2,18,19
 988 512 988 512 983 442 c 1,20,-1
 989 442 l 1,21,22
 1006 490 1006 490 1024 542.5 c 128,-1,23
 1042 595 1042 595 1061 637 c 2,24,-1
 1411 1434 l 1,25,-1
 2071 1434 l 1,26,-1
 1767 0 l 1,0,-1
EndSplineSet
EndChar

StartChar: N
Encoding: 78 78 148
Width: 1690
GlyphClass: 2
Flags: W
AnchorPoint: "Anchor-14" 0 2100 basechar 0
AnchorPoint: "Anchor-13" 1578 2100 basechar 0
AnchorPoint: "Anchor-10" 1160 0 basechar 0
AnchorPoint: "Anchor-9" 812 -50 basechar 0
AnchorPoint: "Anchor-8" 1618 1434 basechar 0
AnchorPoint: "Anchor-7" 1390 -420 basechar 0
AnchorPoint: "Anchor-6" 1617 1900 basechar 0
AnchorPoint: "Anchor-5" 846 717 basechar 0
AnchorPoint: "Anchor-4" 1395 1434 basechar 0
AnchorPoint: "Anchor-2" 846 -15 basechar 0
AnchorPoint: "Anchor-1" 1446 1500 basechar 0
AnchorPoint: "Anchor-0" 831 1600 basechar 0
LayerCount: 2
Fore
SplineSet
1438 0 m 1,0,-1
 1098 0 l 1,1,-1
 682 702 l 2,2,3
 625 801 625 801 608 850 c 1,4,-1
 604 850 l 1,5,6
 586 729 586 729 559 612 c 2,7,-1
 428 0 l 1,8,-1
 29 0 l 1,9,-1
 332 1434 l 1,10,-1
 705 1434 l 1,11,-1
 1106 768 l 2,12,13
 1119 749 1119 749 1140.5 705.5 c 128,-1,14
 1162 662 1162 662 1171 631 c 1,15,-1
 1176 631 l 1,16,17
 1179 668 1179 668 1188 709 c 2,18,-1
 1341 1434 l 1,19,-1
 1741 1434 l 1,20,-1
 1438 0 l 1,0,-1
EndSplineSet
EndChar

StartChar: O
Encoding: 79 79 149
Width: 1565
GlyphClass: 2
Flags: W
AnchorPoint: "Anchor-14" 0 2100 basechar 0
AnchorPoint: "Anchor-13" 1554 2100 basechar 0
AnchorPoint: "Anchor-10" 840 -15 basechar 0
AnchorPoint: "Anchor-9" 782 -15 basechar 0
AnchorPoint: "Anchor-8" 1350 1320 basechar 0
AnchorPoint: "Anchor-7" 1460 -420 basechar 0
AnchorPoint: "Anchor-6" 1558 1900 basechar 0
AnchorPoint: "Anchor-5" 784 741 basechar 0
AnchorPoint: "Anchor-4" 1371 1172 basechar 0
AnchorPoint: "Anchor-2" 780 -25 basechar 0
AnchorPoint: "Anchor-1" 1310 1500 basechar 0
AnchorPoint: "Anchor-0" 784 1600 basechar 0
LayerCount: 2
Fore
SplineSet
1534 829 m 0,0,1
 1534 593 1534 593 1430.5 390 c 128,-1,2
 1327 187 1327 187 1143.5 81 c 128,-1,3
 960 -25 960 -25 707 -25 c 0,4,5
 515 -25 515 -25 376.5 53.5 c 128,-1,6
 238 132 238 132 165 275 c 128,-1,7
 92 418 92 418 92 602 c 0,8,9
 92 840 92 840 197 1042 c 128,-1,10
 302 1244 302 1244 486 1351 c 128,-1,11
 670 1458 670 1458 913 1458 c 0,12,13
 1202 1458 1202 1458 1368 1290 c 128,-1,14
 1534 1122 1534 1122 1534 829 c 0,0,1
1075 815 m 0,15,16
 1075 946 1075 946 1020.5 1014.5 c 128,-1,17
 966 1083 966 1083 864 1083 c 0,18,19
 770 1083 770 1083 700 1020 c 128,-1,20
 630 957 630 957 590.5 845.5 c 128,-1,21
 551 734 551 734 551 612 c 0,22,23
 551 479 551 479 606 411.5 c 128,-1,24
 661 344 661 344 758 344 c 0,25,26
 848 344 848 344 919 400 c 128,-1,27
 990 456 990 456 1032.5 570.5 c 128,-1,28
 1075 685 1075 685 1075 815 c 0,15,16
EndSplineSet
EndChar

StartChar: P
Encoding: 80 80 150
Width: 1364
GlyphClass: 2
Flags: W
AnchorPoint: "Anchor-14" 0 2100 basechar 0
AnchorPoint: "Anchor-13" 1220 2100 basechar 0
AnchorPoint: "Anchor-10" 230 0 basechar 0
AnchorPoint: "Anchor-8" 1260 1274 basechar 0
AnchorPoint: "Anchor-7" 1138 -420 basechar 0
AnchorPoint: "Anchor-6" 1270 1900 basechar 0
AnchorPoint: "Anchor-5" 745 1003 basechar 0
AnchorPoint: "Anchor-4" 1100 1314 basechar 0
AnchorPoint: "Anchor-2" 683 -15 basechar 0
AnchorPoint: "Anchor-1" 1073 1500 basechar 0
AnchorPoint: "Anchor-0" 683 1600 basechar 0
LayerCount: 2
Fore
SplineSet
1413 1001 m 0,0,1
 1413 839 1413 839 1331.5 713 c 128,-1,2
 1250 587 1250 587 1105 524 c 128,-1,3
 960 461 960 461 764 461 c 2,4,-1
 559 461 l 1,5,-1
 463 0 l 1,6,-1
 31 0 l 1,7,-1
 334 1434 l 1,8,-1
 913 1434 l 2,9,10
 1155 1434 1155 1434 1284 1322.5 c 128,-1,11
 1413 1211 1413 1211 1413 1001 c 0,0,1
954 971 m 0,12,13
 954 1045 954 1045 908 1084.5 c 128,-1,14
 862 1124 862 1124 776 1124 c 2,15,-1
 700 1124 l 1,16,-1
 627 770 l 1,17,-1
 748 770 l 2,18,19
 841 770 841 770 897.5 826.5 c 128,-1,20
 954 883 954 883 954 971 c 0,12,13
EndSplineSet
EndChar

StartChar: Q
Encoding: 81 81 151
Width: 1565
GlyphClass: 2
Flags: W
AnchorPoint: "Anchor-14" 0 2100 basechar 0
AnchorPoint: "Anchor-13" 1554 2100 basechar 0
AnchorPoint: "Anchor-10" 890 -180 basechar 0
AnchorPoint: "Anchor-8" 1350 1320 basechar 0
AnchorPoint: "Anchor-7" 1494 -420 basechar 0
AnchorPoint: "Anchor-6" 1558 1900 basechar 0
AnchorPoint: "Anchor-5" 784 738 basechar 0
AnchorPoint: "Anchor-4" 1371 1172 basechar 0
AnchorPoint: "Anchor-2" 780 -270 basechar 0
AnchorPoint: "Anchor-1" 1310 1500 basechar 0
AnchorPoint: "Anchor-0" 784 1600 basechar 0
LayerCount: 2
Fore
SplineSet
1534 829 m 0,0,1
 1534 724 1534 724 1511 618 c 128,-1,2
 1488 512 1488 512 1445 419 c 128,-1,3
 1402 326 1402 326 1343.5 253.5 c 128,-1,4
 1285 181 1285 181 1212 137 c 1,5,-1
 1487 -193 l 1,6,-1
 985 -193 l 1,7,-1
 851 -18 l 1,8,9
 772 -25 772 -25 707 -25 c 0,10,11
 515 -25 515 -25 376.5 53.5 c 128,-1,12
 238 132 238 132 165 275 c 128,-1,13
 92 418 92 418 92 602 c 0,14,15
 92 840 92 840 197 1042 c 128,-1,16
 302 1244 302 1244 486 1351 c 128,-1,17
 670 1458 670 1458 913 1458 c 0,18,19
 1202 1458 1202 1458 1368 1290 c 128,-1,20
 1534 1122 1534 1122 1534 829 c 0,0,1
1075 815 m 0,21,22
 1075 946 1075 946 1020.5 1014.5 c 128,-1,23
 966 1083 966 1083 864 1083 c 0,24,25
 770 1083 770 1083 700 1020 c 128,-1,26
 630 957 630 957 590.5 845.5 c 128,-1,27
 551 734 551 734 551 612 c 0,28,29
 551 479 551 479 606 411.5 c 128,-1,30
 661 344 661 344 758 344 c 0,31,32
 848 344 848 344 919 400 c 128,-1,33
 990 456 990 456 1032.5 570.5 c 128,-1,34
 1075 685 1075 685 1075 815 c 0,21,22
EndSplineSet
EndChar

StartChar: R
Encoding: 82 82 152
Width: 1397
GlyphClass: 2
Flags: W
AnchorPoint: "Anchor-14" 0 2100 basechar 0
AnchorPoint: "Anchor-13" 1286 2100 basechar 0
AnchorPoint: "Anchor-10" 1040 0 basechar 0
AnchorPoint: "Anchor-9" 673 -50 basechar 0
AnchorPoint: "Anchor-8" 1326 1274 basechar 0
AnchorPoint: "Anchor-7" 1277 -420 basechar 0
AnchorPoint: "Anchor-6" 1336 1900 basechar 0
AnchorPoint: "Anchor-5" 723 1003 basechar 0
AnchorPoint: "Anchor-4" 1076 1314 basechar 0
AnchorPoint: "Anchor-2" 731 -15 basechar 0
AnchorPoint: "Anchor-1" 1101 1500 basechar 0
AnchorPoint: "Anchor-0" 671 1600 basechar 0
LayerCount: 2
Fore
SplineSet
1401 1063 m 0,0,1
 1401 900 1401 900 1288.5 784 c 128,-1,2
 1176 668 1176 668 989 635 c 1,3,-1
 989 631 l 1,4,5
 1146 573 1146 573 1188 375 c 2,6,-1
 1268 0 l 1,7,-1
 809 0 l 1,8,-1
 756 319 l 2,9,10
 740 409 740 409 697.5 456.5 c 128,-1,11
 655 504 655 504 573 504 c 2,12,-1
 569 504 l 1,13,-1
 463 0 l 1,14,-1
 31 0 l 1,15,-1
 334 1434 l 1,16,-1
 897 1434 l 2,17,18
 1135 1434 1135 1434 1268 1337 c 128,-1,19
 1401 1240 1401 1240 1401 1063 c 0,0,1
940 983 m 0,20,21
 940 1055 940 1055 900.5 1095 c 128,-1,22
 861 1135 861 1135 782 1135 c 2,23,-1
 705 1135 l 1,24,-1
 631 807 l 1,25,-1
 727 807 l 2,26,27
 824 807 824 807 882 858 c 128,-1,28
 940 909 940 909 940 983 c 0,20,21
EndSplineSet
EndChar

StartChar: S
Encoding: 83 83 153
Width: 1171
GlyphClass: 2
Flags: W
AnchorPoint: "Anchor-14" 0 2100 basechar 0
AnchorPoint: "Anchor-13" 1116 2100 basechar 0
AnchorPoint: "Anchor-10" 610 0 basechar 0
AnchorPoint: "Anchor-9" 572 -15 basechar 0
AnchorPoint: "Anchor-8" 1156 1428 basechar 0
AnchorPoint: "Anchor-7" 1018 -420 basechar 0
AnchorPoint: "Anchor-6" 1143 1900 basechar 0
AnchorPoint: "Anchor-5" 612 741 basechar 0
AnchorPoint: "Anchor-4" 969 1410 basechar 0
AnchorPoint: "Anchor-2" 578 -25 basechar 0
AnchorPoint: "Anchor-1" 1008 1500 basechar 0
AnchorPoint: "Anchor-0" 598 1600 basechar 0
LayerCount: 2
Fore
SplineSet
1133 1030 m 1,0,1
 1027 1089 1027 1089 943 1113 c 128,-1,2
 859 1137 859 1137 774 1137 c 0,3,4
 706 1137 706 1137 666.5 1108 c 128,-1,5
 627 1079 627 1079 627 1032 c 0,6,7
 627 988 627 988 659 956 c 128,-1,8
 691 924 691 924 797 866 c 0,9,10
 967 776 967 776 1034.5 680.5 c 128,-1,11
 1102 585 1102 585 1102 438 c 0,12,13
 1102 299 1102 299 1024.5 190 c 128,-1,14
 947 81 947 81 810.5 28 c 128,-1,15
 674 -25 674 -25 487 -25 c 0,16,17
 351 -25 351 -25 232.5 5.5 c 128,-1,18
 114 36 114 36 25 84 c 1,19,-1
 100 438 l 1,20,21
 291 297 291 297 487 297 c 0,22,23
 643 297 643 297 643 408 c 0,24,25
 643 458 643 458 604.5 491.5 c 128,-1,26
 566 525 566 525 469 569 c 0,27,28
 307 645 307 645 237.5 739.5 c 128,-1,29
 168 834 168 834 168 981 c 0,30,31
 168 1120 168 1120 244 1232.5 c 128,-1,32
 320 1345 320 1345 452 1401.5 c 128,-1,33
 584 1458 584 1458 758 1458 c 0,34,35
 896 1458 896 1458 1005.5 1433 c 128,-1,36
 1115 1408 1115 1408 1204 1376 c 1,37,-1
 1133 1030 l 1,0,1
EndSplineSet
EndChar

StartChar: T
Encoding: 84 84 154
Width: 1303
GlyphClass: 2
Flags: W
AnchorPoint: "Anchor-14" 0 2100 basechar 0
AnchorPoint: "Anchor-13" 1160 2100 basechar 0
AnchorPoint: "Anchor-10" 460 0 basechar 0
AnchorPoint: "Anchor-9" 536 0 basechar 0
AnchorPoint: "Anchor-8" 1317 1443 basechar 0
AnchorPoint: "Anchor-7" 1123 -420 basechar 0
AnchorPoint: "Anchor-6" 1217 1900 basechar 0
AnchorPoint: "Anchor-5" 650 717 basechar 0
AnchorPoint: "Anchor-4" 1112 1434 basechar 0
AnchorPoint: "Anchor-2" 652 -15 basechar 0
AnchorPoint: "Anchor-1" 1187 1500 basechar 0
AnchorPoint: "Anchor-0" 652 1600 basechar 0
LayerCount: 2
Fore
SplineSet
1393 1096 m 1,0,-1
 987 1096 l 1,1,-1
 756 0 l 1,2,-1
 322 0 l 1,3,-1
 553 1096 l 1,4,-1
 152 1096 l 1,5,-1
 223 1434 l 1,6,-1
 1464 1434 l 1,7,-1
 1393 1096 l 1,0,-1
EndSplineSet
EndChar

StartChar: U
Encoding: 85 85 155
Width: 1511
GlyphClass: 2
Flags: W
AnchorPoint: "Anchor-14" 0 2100 basechar 0
AnchorPoint: "Anchor-13" 1445 2100 basechar 0
AnchorPoint: "Anchor-10" 760 0 basechar 0
AnchorPoint: "Anchor-9" 741 -15 basechar 0
AnchorPoint: "Anchor-8" 1480 1439 basechar 0
AnchorPoint: "Anchor-7" 1275 -420 basechar 0
AnchorPoint: "Anchor-6" 1478 1900 basechar 0
AnchorPoint: "Anchor-5" 758 729 basechar 0
AnchorPoint: "Anchor-4" 1271 1440 basechar 0
AnchorPoint: "Anchor-2" 778 -25 basechar 0
AnchorPoint: "Anchor-1" 1338 1500 basechar 0
AnchorPoint: "Anchor-0" 758 1600 basechar 0
LayerCount: 2
Fore
SplineSet
684 -25 m 0,0,1
 417 -25 417 -25 274 103 c 128,-1,2
 131 231 131 231 131 475 c 0,3,4
 131 566 131 566 166 741 c 2,5,-1
 313 1434 l 1,6,-1
 748 1434 l 1,7,-1
 598 737 l 2,8,9
 586 677 586 677 574.5 622 c 128,-1,10
 563 567 563 567 563 526 c 0,11,12
 563 440 563 440 607.5 392 c 128,-1,13
 652 344 652 344 733 344 c 0,14,15
 827 344 827 344 883.5 409 c 128,-1,16
 940 474 940 474 971 621 c 2,17,-1
 1145 1434 l 1,18,-1
 1579 1434 l 1,19,-1
 1401 596 l 2,20,21
 1347 351 1347 351 1257.5 222 c 128,-1,22
 1168 93 1168 93 1027.5 34 c 128,-1,23
 887 -25 887 -25 684 -25 c 0,0,1
EndSplineSet
EndChar

StartChar: V
Encoding: 86 86 156
Width: 1438
GlyphClass: 2
Flags: W
AnchorPoint: "Anchor-14" 0 2100 basechar 0
AnchorPoint: "Anchor-13" 1334 2100 basechar 0
AnchorPoint: "Anchor-10" 560 0 basechar 0
AnchorPoint: "Anchor-8" 1455 1434 basechar 0
AnchorPoint: "Anchor-7" 1316 -420 basechar 0
AnchorPoint: "Anchor-6" 1376 1900 basechar 0
AnchorPoint: "Anchor-5" 719 717 basechar 0
AnchorPoint: "Anchor-4" 1295 1434 basechar 0
AnchorPoint: "Anchor-2" 719 -15 basechar 0
AnchorPoint: "Anchor-1" 1362 1500 basechar 0
AnchorPoint: "Anchor-0" 719 1600 basechar 0
LayerCount: 2
Fore
SplineSet
850 0 m 1,0,-1
 365 0 l 1,1,-1
 205 1434 l 1,2,-1
 647 1434 l 1,3,-1
 696 495 l 2,4,5
 696 440 696 440 688 391 c 1,6,-1
 698 391 l 1,7,8
 706 418 706 418 718.5 450.5 c 128,-1,9
 731 483 731 483 1149 1434 c 1,10,-1
 1622 1434 l 1,11,-1
 850 0 l 1,0,-1
EndSplineSet
EndChar

StartChar: W
Encoding: 87 87 157
Width: 2157
GlyphClass: 2
Flags: W
AnchorPoint: "Anchor-14" 0 2100 basechar 0
AnchorPoint: "Anchor-13" 2003 2100 basechar 0
AnchorPoint: "Anchor-10" 1305 0 basechar 0
AnchorPoint: "Anchor-8" 2170 1434 basechar 0
AnchorPoint: "Anchor-7" 1978 -420 basechar 0
AnchorPoint: "Anchor-6" 2068 1900 basechar 0
AnchorPoint: "Anchor-5" 1079 717 basechar 0
AnchorPoint: "Anchor-4" 1953 1434 basechar 0
AnchorPoint: "Anchor-2" 1079 -15 basechar 0
AnchorPoint: "Anchor-1" 2040 1500 basechar 0
AnchorPoint: "Anchor-0" 1079 1600 basechar 0
LayerCount: 2
Fore
SplineSet
1663 0 m 1,0,-1
 1210 0 l 1,1,-1
 1176 826 l 2,2,3
 1176 869 1176 869 1190 948 c 2,4,-1
 1196 983 l 1,5,-1
 1192 983 l 1,6,7
 1188 965 1188 965 1168.5 911.5 c 128,-1,8
 1149 858 1149 858 1130 817 c 2,9,-1
 748 0 l 1,10,-1
 252 0 l 1,11,-1
 213 1434 l 1,12,-1
 668 1434 l 1,13,-1
 627 586 l 2,14,15
 623 524 623 524 606 422 c 1,16,-1
 612 422 l 1,17,18
 619 449 619 449 639 504.5 c 128,-1,19
 659 560 659 560 674 592 c 2,20,-1
 1065 1434 l 1,21,-1
 1534 1434 l 1,22,-1
 1542 580 l 2,23,24
 1542 552 1542 552 1538.5 499 c 128,-1,25
 1535 446 1535 446 1532 424 c 1,26,-1
 1536 424 l 1,27,-1
 1587 586 l 1,28,-1
 1884 1434 l 1,29,-1
 2329 1434 l 1,30,-1
 1663 0 l 1,0,-1
EndSplineSet
EndChar

StartChar: X
Encoding: 88 88 158
Width: 1438
GlyphClass: 2
Flags: W
AnchorPoint: "Anchor-14" 0 2100 basechar 0
AnchorPoint: "Anchor-13" 1293 2100 basechar 0
AnchorPoint: "Anchor-10" 970 0 basechar 0
AnchorPoint: "Anchor-8" 1365 1434 basechar 0
AnchorPoint: "Anchor-7" 1263 -420 basechar 0
AnchorPoint: "Anchor-6" 1353 1900 basechar 0
AnchorPoint: "Anchor-5" 719 717 basechar 0
AnchorPoint: "Anchor-4" 1213 1434 basechar 0
AnchorPoint: "Anchor-2" 719 -15 basechar 0
AnchorPoint: "Anchor-1" 1315 1500 basechar 0
AnchorPoint: "Anchor-0" 719 1600 basechar 0
LayerCount: 2
Fore
SplineSet
1055 700 m 1,0,-1
 1309 0 l 1,1,-1
 821 0 l 1,2,-1
 741 371 l 2,3,4
 731 418 731 418 729 494 c 2,5,-1
 729 524 l 1,6,-1
 725 524 l 1,7,8
 694 444 694 444 657 385 c 2,9,-1
 414 0 l 1,10,-1
 -121 0 l 1,11,-1
 467 741 l 1,12,-1
 225 1434 l 1,13,-1
 727 1434 l 1,14,-1
 782 1073 l 2,15,16
 792 1014 792 1014 794 949 c 2,17,-1
 793 915 l 1,18,-1
 797 915 l 1,19,20
 805 938 805 938 824.5 983.5 c 128,-1,21
 844 1029 844 1029 861.5 1055.5 c 128,-1,22
 879 1082 879 1082 1118 1434 c 1,23,-1
 1620 1434 l 1,24,-1
 1055 700 l 1,0,-1
EndSplineSet
EndChar

StartChar: Y
Encoding: 89 89 159
Width: 1331
GlyphClass: 2
Flags: W
AnchorPoint: "Anchor-14" 0 2100 basechar 0
AnchorPoint: "Anchor-13" 1207 2100 basechar 0
AnchorPoint: "Anchor-10" 500 0 basechar 0
AnchorPoint: "Anchor-8" 1355 1434 basechar 0
AnchorPoint: "Anchor-7" 1195 -420 basechar 0
AnchorPoint: "Anchor-6" 1257 1900 basechar 0
AnchorPoint: "Anchor-5" 659 430 basechar 0
AnchorPoint: "Anchor-4" 1155 1434 basechar 0
AnchorPoint: "Anchor-2" 655 -15 basechar 0
AnchorPoint: "Anchor-1" 1275 1500 basechar 0
AnchorPoint: "Anchor-0" 655 1600 basechar 0
LayerCount: 2
Fore
SplineSet
764 0 m 1,0,-1
 330 0 l 1,1,-1
 434 492 l 1,2,-1
 193 1434 l 1,3,-1
 662 1434 l 1,4,-1
 721 983 l 2,5,6
 731 906 731 906 731 831 c 1,7,-1
 735 831 l 1,8,9
 780 948 780 948 795 975 c 2,10,-1
 1040 1434 l 1,11,-1
 1524 1434 l 1,12,-1
 868 498 l 1,13,-1
 764 0 l 1,0,-1
EndSplineSet
EndChar

StartChar: Z
Encoding: 90 90 160
Width: 1313
GlyphClass: 2
Flags: W
AnchorPoint: "Anchor-14" 0 2100 basechar 0
AnchorPoint: "Anchor-13" 1224 2100 basechar 0
AnchorPoint: "Anchor-10" 910 0 basechar 0
AnchorPoint: "Anchor-8" 1336 1434 basechar 0
AnchorPoint: "Anchor-7" 1180 -420 basechar 0
AnchorPoint: "Anchor-6" 1258 1900 basechar 0
AnchorPoint: "Anchor-5" 640 717 basechar 0
AnchorPoint: "Anchor-4" 1156 1434 basechar 0
AnchorPoint: "Anchor-2" 676 -15 basechar 0
AnchorPoint: "Anchor-1" 1256 1500 basechar 0
AnchorPoint: "Anchor-0" 676 1600 basechar 0
LayerCount: 2
Fore
SplineSet
592 338 m 1,0,-1
 1225 338 l 1,1,-1
 1153 0 l 1,2,-1
 -49 0 l 1,3,-1
 14 303 l 1,4,-1
 827 1096 l 1,5,-1
 223 1096 l 1,6,-1
 295 1434 l 1,7,-1
 1436 1434 l 1,8,-1
 1372 1133 l 1,9,-1
 592 338 l 1,0,-1
EndSplineSet
EndChar

StartChar: bracketleft
Encoding: 91 91 161
Width: 862
GlyphClass: 2
Flags: W
LayerCount: 2
Fore
SplineSet
934 1174 m 1,0,-1
 717 1174 l 1,1,-1
 453 -68 l 1,2,-1
 670 -68 l 1,3,-1
 614 -326 l 1,4,-1
 68 -326 l 1,5,-1
 440 1434 l 1,6,-1
 987 1434 l 1,7,-1
 934 1174 l 1,0,-1
EndSplineSet
EndChar

StartChar: backslash
Encoding: 92 92 162
Width: 987
GlyphClass: 2
Flags: W
LayerCount: 2
Fore
SplineSet
541 -238 m 1,0,-1
 199 1434 l 1,1,-1
 561 1434 l 1,2,-1
 901 -238 l 1,3,-1
 541 -238 l 1,0,-1
EndSplineSet
EndChar

StartChar: bracketright
Encoding: 93 93 163
Width: 862
GlyphClass: 2
Flags: W
LayerCount: 2
Fore
SplineSet
422 -326 m 1,0,-1
 -121 -326 l 1,1,-1
 -66 -68 l 1,2,-1
 145 -68 l 1,3,-1
 410 1174 l 1,4,-1
 193 1174 l 1,5,-1
 248 1434 l 1,6,-1
 795 1434 l 1,7,-1
 422 -326 l 1,0,-1
EndSplineSet
EndChar

StartChar: asciicircum
Encoding: 94 94 164
Width: 1464
GlyphClass: 2
Flags: W
LayerCount: 2
Fore
SplineSet
1032 629 m 1,0,-1
 795 1182 l 1,1,-1
 791 1182 l 1,2,-1
 555 629 l 1,3,-1
 250 629 l 1,4,-1
 674 1458 l 1,5,-1
 911 1458 l 1,6,-1
 1335 629 l 1,7,-1
 1032 629 l 1,0,-1
EndSplineSet
EndChar

StartChar: underscore
Encoding: 95 95 165
Width: 850
GlyphClass: 2
Flags: W
LayerCount: 2
Fore
SplineSet
-178 -297 m 1,0,-1
 -154 -178 l 1,1,-1
 696 -178 l 1,2,-1
 672 -297 l 1,3,-1
 -178 -297 l 1,0,-1
EndSplineSet
EndChar

StartChar: grave
Encoding: 96 96 166
Width: 1024
GlyphClass: 2
Flags: W
LayerCount: 2
Fore
SplineSet
555 1145 m 1,0,-1
 289 1466 l 1,1,-1
 629 1466 l 1,2,-1
 838 1145 l 1,3,-1
 555 1145 l 1,0,-1
EndSplineSet
EndChar

StartChar: a
Encoding: 97 97 167
Width: 1292
GlyphClass: 2
Flags: W
AnchorPoint: "Anchor-14" 0 2100 basechar 0
AnchorPoint: "Anchor-13" 1082 2100 basechar 0
AnchorPoint: "Anchor-10" 850 0 basechar 0
AnchorPoint: "Anchor-9" 490 -15 basechar 0
AnchorPoint: "Anchor-8" 1140 1009 basechar 0
AnchorPoint: "Anchor-7" 939 -420 basechar 0
AnchorPoint: "Anchor-6" 1109 1900 basechar 0
AnchorPoint: "Anchor-5" 561 321 basechar 0
AnchorPoint: "Anchor-4" 920 910 basechar 0
AnchorPoint: "Anchor-2" 560 -25 basechar 0
AnchorPoint: "Anchor-1" 940 1200 basechar 0
AnchorPoint: "Anchor-0" 560 1300 basechar 0
LayerCount: 2
Fore
SplineSet
1118 0 m 1,0,-1
 696 0 l 1,1,2
 696 32 696 32 711 182 c 1,3,-1
 707 182 l 1,4,5
 555 -25 555 -25 365 -25 c 0,6,7
 214 -25 214 -25 131.5 80 c 128,-1,8
 49 185 49 185 49 375 c 0,9,10
 49 511 49 511 101.5 643 c 128,-1,11
 154 775 154 775 246.5 863 c 128,-1,12
 339 951 339 951 473.5 1000 c 128,-1,13
 608 1049 608 1049 784 1049 c 0,14,15
 1025 1049 1025 1049 1290 987 c 1,16,-1
 1157 360 l 2,17,18
 1141 289 1141 289 1129.5 180 c 128,-1,19
 1118 71 1118 71 1118 0 c 1,0,-1
821 772 m 1,20,21
 797 778 797 778 760 778 c 0,22,23
 680 778 680 778 616 732 c 128,-1,24
 552 686 552 686 512.5 594 c 128,-1,25
 473 502 473 502 473 410 c 0,26,27
 473 350 473 350 499 318.5 c 128,-1,28
 525 287 525 287 563 287 c 0,29,30
 635 287 635 287 692 368.5 c 128,-1,31
 749 450 749 450 782 602 c 2,32,-1
 821 772 l 1,20,21
EndSplineSet
EndChar

StartChar: b
Encoding: 98 98 168
Width: 1292
GlyphClass: 2
Flags: W
AnchorPoint: "Anchor-14" 0 2100 basechar 0
AnchorPoint: "Anchor-13" 1245 2100 basechar 0
AnchorPoint: "Anchor-12" 700 80 basechar 0
AnchorPoint: "Anchor-11" 783 80 basechar 0
AnchorPoint: "Anchor-10" 710 0 basechar 0
AnchorPoint: "Anchor-8" 1085 950 basechar 0
AnchorPoint: "Anchor-7" 1149 -420 basechar 0
AnchorPoint: "Anchor-6" 1275 1900 basechar 0
AnchorPoint: "Anchor-5" 731 462 basechar 0
AnchorPoint: "Anchor-4" 1080 914 basechar 0
AnchorPoint: "Anchor-2" 661 -25 basechar 0
AnchorPoint: "Anchor-1" 1011 1400 basechar 0
AnchorPoint: "Anchor-0" 641 1650 basechar 0
LayerCount: 2
Fore
SplineSet
1243 672 m 0,0,1
 1243 465 1243 465 1151 300.5 c 128,-1,2
 1059 136 1059 136 892 55.5 c 128,-1,3
 725 -25 725 -25 500 -25 c 0,4,5
 377 -25 377 -25 247.5 6.5 c 128,-1,6
 118 38 118 38 14 98 c 1,7,-1
 315 1516 l 1,8,-1
 741 1516 l 1,9,-1
 638 1030 l 1,10,-1
 596 866 l 1,11,-1
 606 866 l 1,12,13
 739 1049 739 1049 938 1049 c 0,14,15
 1077 1049 1077 1049 1160 950 c 128,-1,16
 1243 851 1243 851 1243 672 c 0,0,1
819 606 m 0,17,18
 819 737 819 737 721 737 c 0,19,20
 655 737 655 737 599 652.5 c 128,-1,21
 543 568 543 568 512 428 c 2,22,-1
 475 264 l 1,23,24
 506 246 506 246 565 246 c 0,25,26
 634 246 634 246 692 297.5 c 128,-1,27
 750 349 750 349 784.5 434.5 c 128,-1,28
 819 520 819 520 819 606 c 0,17,18
EndSplineSet
EndChar

StartChar: c
Encoding: 99 99 169
Width: 971
GlyphClass: 2
Flags: W
AnchorPoint: "Anchor-14" 0 2100 basechar 0
AnchorPoint: "Anchor-13" 972 2100 basechar 0
AnchorPoint: "Anchor-12" 491 26 basechar 0
AnchorPoint: "Anchor-11" 560 26 basechar 0
AnchorPoint: "Anchor-10" 660 0 basechar 0
AnchorPoint: "Anchor-9" 596 -15 basechar 0
AnchorPoint: "Anchor-8" 883 1009 basechar 0
AnchorPoint: "Anchor-7" 892 -420 basechar 0
AnchorPoint: "Anchor-6" 989 1900 basechar 0
AnchorPoint: "Anchor-5" 599 536 basechar 0
AnchorPoint: "Anchor-4" 887 991 basechar 0
AnchorPoint: "Anchor-2" 596 -25 basechar 0
AnchorPoint: "Anchor-1" 946 1200 basechar 0
AnchorPoint: "Anchor-0" 576 1300 basechar 0
LayerCount: 2
Fore
SplineSet
926 694 m 1,0,1
 860 737 860 737 750 737 c 0,2,3
 634 737 634 737 553.5 654 c 128,-1,4
 473 571 473 571 473 449 c 0,5,6
 473 287 473 287 643 287 c 0,7,8
 691 287 691 287 750 301.5 c 128,-1,9
 809 316 809 316 856 342 c 1,10,-1
 797 51 l 1,11,12
 725 13 725 13 639.5 -6 c 128,-1,13
 554 -25 554 -25 475 -25 c 0,14,15
 276 -25 276 -25 162.5 87.5 c 128,-1,16
 49 200 49 200 49 397 c 0,17,18
 49 576 49 576 135.5 727 c 128,-1,19
 222 878 222 878 376 963.5 c 128,-1,20
 530 1049 530 1049 723 1049 c 0,21,22
 887 1049 887 1049 995 995 c 1,23,-1
 926 694 l 1,0,1
EndSplineSet
EndChar

StartChar: d
Encoding: 100 100 170
Width: 1292
GlyphClass: 2
Flags: W
AnchorPoint: "Anchor-14" 0 2100 basechar 0
AnchorPoint: "Anchor-13" 1247 2100 basechar 0
AnchorPoint: "Anchor-12" 826 0 basechar 0
AnchorPoint: "Anchor-11" 860 9 basechar 0
AnchorPoint: "Anchor-10" 870 0 basechar 0
AnchorPoint: "Anchor-8" 1269 1522 basechar 0
AnchorPoint: "Anchor-7" 1081 -420 basechar 0
AnchorPoint: "Anchor-6" 1275 1900 basechar 0
AnchorPoint: "Anchor-5" 651 539 basechar 0
AnchorPoint: "Anchor-4" 1073 1513 basechar 0
AnchorPoint: "Anchor-2" 581 -25 basechar 0
AnchorPoint: "Anchor-1" 1141 1600 basechar 0
AnchorPoint: "Anchor-0" 581 1650 basechar 0
LayerCount: 2
Fore
SplineSet
1118 0 m 1,0,-1
 696 0 l 1,1,2
 696 32 696 32 711 182 c 1,3,-1
 707 182 l 1,4,5
 558 -25 558 -25 365 -25 c 0,6,7
 216 -25 216 -25 132.5 79 c 128,-1,8
 49 183 49 183 49 369 c 0,9,10
 49 568 49 568 137.5 723.5 c 128,-1,11
 226 879 226 879 386.5 964 c 128,-1,12
 547 1049 547 1049 745 1049 c 0,13,14
 759 1049 759 1049 814.5 1046 c 128,-1,15
 870 1043 870 1043 874 1040 c 1,16,-1
 977 1516 l 1,17,-1
 1401 1516 l 1,18,-1
 1157 360 l 2,19,20
 1141 289 1141 289 1129.5 180 c 128,-1,21
 1118 71 1118 71 1118 0 c 1,0,-1
821 772 m 1,22,23
 785 778 785 778 758 778 c 0,24,25
 678 778 678 778 615 732 c 128,-1,26
 552 686 552 686 512.5 592.5 c 128,-1,27
 473 499 473 499 473 410 c 0,28,29
 473 350 473 350 500 318.5 c 128,-1,30
 527 287 527 287 565 287 c 0,31,32
 634 287 634 287 690.5 367.5 c 128,-1,33
 747 448 747 448 782 602 c 2,34,-1
 821 772 l 1,22,23
EndSplineSet
EndChar

StartChar: e
Encoding: 101 101 171
Width: 1110
GlyphClass: 2
Flags: W
AnchorPoint: "Anchor-14" 0 2100 basechar 0
AnchorPoint: "Anchor-13" 1101 2100 basechar 0
AnchorPoint: "Anchor-10" 670 0 basechar 0
AnchorPoint: "Anchor-9" 585 -15 basechar 0
AnchorPoint: "Anchor-8" 911 973 basechar 0
AnchorPoint: "Anchor-7" 1019 -420 basechar 0
AnchorPoint: "Anchor-6" 1118 1900 basechar 0
AnchorPoint: "Anchor-5" 595 600 basechar 0
AnchorPoint: "Anchor-4" 950 910 basechar 0
AnchorPoint: "Anchor-2" 600 -25 basechar 0
AnchorPoint: "Anchor-1" 930 1200 basechar 0
AnchorPoint: "Anchor-0" 600 1300 basechar 0
LayerCount: 2
Fore
SplineSet
1116 743 m 0,0,1
 1116 567 1116 567 954.5 481 c 128,-1,2
 793 395 793 395 457 385 c 1,3,-1
 457 377 l 2,4,5
 457 319 457 319 506 286.5 c 128,-1,6
 555 254 555 254 637 254 c 0,7,8
 710 254 710 254 812.5 279 c 128,-1,9
 915 304 915 304 981 338 c 1,10,-1
 922 59 l 1,11,12
 844 22 844 22 732.5 -1.5 c 128,-1,13
 621 -25 621 -25 510 -25 c 0,14,15
 295 -25 295 -25 172 89 c 128,-1,16
 49 203 49 203 49 401 c 0,17,18
 49 581 49 581 133.5 733 c 128,-1,19
 218 885 218 885 366.5 967 c 128,-1,20
 515 1049 515 1049 709 1049 c 256,21,22
 903 1049 903 1049 1009.5 970 c 128,-1,23
 1116 891 1116 891 1116 743 c 0,0,1
723 745 m 0,24,25
 723 767 723 767 709.5 785 c 128,-1,26
 696 803 696 803 662 803 c 0,27,28
 595 803 595 803 546.5 752 c 128,-1,29
 498 701 498 701 481 608 c 1,30,31
 594 608 594 608 658.5 642 c 128,-1,32
 723 676 723 676 723 745 c 0,24,25
EndSplineSet
EndChar

StartChar: f
Encoding: 102 102 172
Width: 883
GlyphClass: 2
Flags: W
AnchorPoint: "Anchor-14" 0 2100 basechar 0
AnchorPoint: "Anchor-13" 730 2100 basechar 0
AnchorPoint: "Anchor-12" 220 0 basechar 0
AnchorPoint: "Anchor-11" 270 0 basechar 0
AnchorPoint: "Anchor-10" 240 0 basechar 0
AnchorPoint: "Anchor-8" 959 1538 basechar 0
AnchorPoint: "Anchor-7" 761 -420 basechar 0
AnchorPoint: "Anchor-6" 795 1900 basechar 0
AnchorPoint: "Anchor-5" 429 615 basechar 0
AnchorPoint: "Anchor-4" 763 1520 basechar 0
AnchorPoint: "Anchor-2" 439 -15 basechar 0
AnchorPoint: "Anchor-1" 839 1600 basechar 0
AnchorPoint: "Anchor-0" 569 1650 basechar 0
LayerCount: 2
Fore
SplineSet
1028 1198 m 1,0,1
 945 1229 945 1229 899 1229 c 0,2,3
 768 1229 768 1229 739 1094 c 2,4,-1
 725 1024 l 1,5,-1
 965 1024 l 1,6,-1
 903 729 l 1,7,-1
 662 729 l 1,8,-1
 432 -340 l 1,9,-1
 10 -340 l 1,10,-1
 236 729 l 1,11,-1
 61 729 l 1,12,-1
 123 1024 l 1,13,-1
 297 1024 l 1,14,-1
 322 1133 l 2,15,16
 412 1540 412 1540 860 1540 c 0,17,18
 991 1540 991 1540 1094 1509 c 1,19,-1
 1028 1198 l 1,0,1
EndSplineSet
EndChar

StartChar: g
Encoding: 103 103 173
Width: 1292
GlyphClass: 2
Flags: W
AnchorPoint: "Anchor-14" 0 2100 basechar 0
AnchorPoint: "Anchor-13" 1247 2100 basechar 0
AnchorPoint: "Anchor-12" 581 -320 basechar 0
AnchorPoint: "Anchor-11" 567 -365 basechar 0
AnchorPoint: "Anchor-10" 763 -400 basechar 0
AnchorPoint: "Anchor-9" 521 -450 basechar 0
AnchorPoint: "Anchor-8" 1078 1028 basechar 0
AnchorPoint: "Anchor-7" 1081 -420 basechar 0
AnchorPoint: "Anchor-6" 1275 1900 basechar 0
AnchorPoint: "Anchor-5" 651 508 basechar 0
AnchorPoint: "Anchor-4" 1073 1023 basechar 0
AnchorPoint: "Anchor-2" 611 -470 basechar 0
AnchorPoint: "Anchor-1" 1121 1200 basechar 0
AnchorPoint: "Anchor-0" 611 1300 basechar 0
LayerCount: 2
Fore
SplineSet
317 -481 m 0,0,1
 143 -481 143 -481 -27 -412 c 1,2,-1
 43 -88 l 1,3,4
 113 -135 113 -135 194 -160.5 c 128,-1,5
 275 -186 275 -186 348 -186 c 0,6,7
 491 -186 491 -186 568 -118 c 128,-1,8
 645 -50 645 -50 674 88 c 2,9,-1
 690 166 l 1,10,-1
 686 166 l 1,11,12
 626 73 626 73 542.5 24 c 128,-1,13
 459 -25 459 -25 362 -25 c 0,14,15
 216 -25 216 -25 132.5 79 c 128,-1,16
 49 183 49 183 49 360 c 0,17,18
 49 565 49 565 141.5 726 c 128,-1,19
 234 887 234 887 396 968 c 128,-1,20
 558 1049 558 1049 772 1049 c 0,21,22
 891 1049 891 1049 1028 1032.5 c 128,-1,23
 1165 1016 1165 1016 1290 987 c 1,24,-1
 1116 164 l 2,25,26
 1064 -82 1064 -82 968.5 -215.5 c 128,-1,27
 873 -349 873 -349 714 -415 c 128,-1,28
 555 -481 555 -481 317 -481 c 0,0,1
821 772 m 1,29,30
 797 778 797 778 752 778 c 0,31,32
 676 778 676 778 612 728.5 c 128,-1,33
 548 679 548 679 510.5 592.5 c 128,-1,34
 473 506 473 506 473 410 c 0,35,36
 473 350 473 350 499 318.5 c 128,-1,37
 525 287 525 287 563 287 c 0,38,39
 632 287 632 287 689.5 367.5 c 128,-1,40
 747 448 747 448 782 602 c 2,41,-1
 821 772 l 1,29,30
EndSplineSet
EndChar

StartChar: h
Encoding: 104 104 174
Width: 1282
GlyphClass: 2
Flags: W
AnchorPoint: "Anchor-14" 0 2100 basechar 0
AnchorPoint: "Anchor-13" 1195 2100 basechar 0
AnchorPoint: "Anchor-12" 786 0 basechar 0
AnchorPoint: "Anchor-11" 836 0 basechar 0
AnchorPoint: "Anchor-10" 860 0 basechar 0
AnchorPoint: "Anchor-8" 1017 938 basechar 0
AnchorPoint: "Anchor-7" 1052 -420 basechar 0
AnchorPoint: "Anchor-6" 1228 1900 basechar 0
AnchorPoint: "Anchor-5" 312 1137 basechar 0
AnchorPoint: "Anchor-4" 1030 821 basechar 0
AnchorPoint: "Anchor-2" 632 -15 basechar 0
AnchorPoint: "Anchor-1" 1006 1400 basechar 0
AnchorPoint: "Anchor-0" 626 1650 basechar 0
LayerCount: 2
Fore
SplineSet
1233 797 m 0,0,1
 1233 727 1233 727 1210 623 c 2,2,-1
 1079 0 l 1,3,-1
 653 0 l 1,4,-1
 774 567 l 2,5,6
 791 635 791 635 791 670 c 0,7,8
 791 737 791 737 721 737 c 0,9,10
 667 737 667 737 604 665.5 c 128,-1,11
 541 594 541 594 522 504 c 2,12,-1
 416 0 l 1,13,-1
 -10 0 l 1,14,-1
 311 1516 l 1,15,-1
 737 1516 l 1,16,-1
 596 848 l 1,17,-1
 600 848 l 1,18,19
 681 940 681 940 787 994.5 c 128,-1,20
 893 1049 893 1049 987 1049 c 0,21,22
 1233 1049 1233 1049 1233 797 c 0,0,1
EndSplineSet
EndChar

StartChar: i
Encoding: 105 105 175
Width: 631
GlyphClass: 2
Flags: W
AnchorPoint: "Anchor-14" 0 2100 basechar 0
AnchorPoint: "Anchor-13" 544 2100 basechar 0
AnchorPoint: "Anchor-10" 230 0 basechar 0
AnchorPoint: "Anchor-9" 298 20 basechar 0
AnchorPoint: "Anchor-8" 593 1025 basechar 0
AnchorPoint: "Anchor-7" 406 -420 basechar 0
AnchorPoint: "Anchor-6" 583 1900 basechar 0
AnchorPoint: "Anchor-5" 324 550 basechar 0
AnchorPoint: "Anchor-4" 378 1020 basechar 0
AnchorPoint: "Anchor-2" 316 -15 basechar 0
AnchorPoint: "Anchor-1" 468 1550 basechar 0
AnchorPoint: "Anchor-0" 316 1650 basechar 0
LayerCount: 2
Fore
SplineSet
692 1311 m 0,0,1
 692 1216 692 1216 622.5 1157 c 128,-1,2
 553 1098 553 1098 440 1098 c 0,3,4
 340 1098 340 1098 277 1150.5 c 128,-1,5
 214 1203 214 1203 214 1282 c 0,6,7
 214 1378 214 1378 284 1437.5 c 128,-1,8
 354 1497 354 1497 468 1497 c 0,9,10
 566 1497 566 1497 629 1445.5 c 128,-1,11
 692 1394 692 1394 692 1311 c 0,0,1
364 -25 m 0,12,13
 214 -25 214 -25 127 54 c 128,-1,14
 40 133 40 133 40 264 c 0,15,16
 40 328 40 328 61 420 c 2,17,-1
 192 1024 l 1,18,-1
 618 1024 l 1,19,-1
 493 434 l 2,20,21
 483 392 483 392 483 356 c 0,22,23
 483 299 483 299 552 299 c 0,24,25
 608 299 608 299 665 324 c 1,26,-1
 599 14 l 1,27,28
 570 0 570 0 508 -12.5 c 128,-1,29
 446 -25 446 -25 364 -25 c 0,12,13
EndSplineSet
Substitution2: "SegoeUIBlack-Italic-Single Substitution lookup 6 subtable" dotlessi
Substitution2: "SegoeUIBlack-Italic-'sups' Superscript in Latin lookup 3 subtable" uni2071
EndChar

StartChar: j
Encoding: 106 106 176
Width: 631
GlyphClass: 2
Flags: W
AnchorPoint: "Anchor-14" 0 2100 basechar 0
AnchorPoint: "Anchor-13" 544 2100 basechar 0
AnchorPoint: "Anchor-12" 0 -375 basechar 0
AnchorPoint: "Anchor-11" 20 -375 basechar 0
AnchorPoint: "Anchor-10" 98 -420 basechar 0
AnchorPoint: "Anchor-8" 584 1025 basechar 0
AnchorPoint: "Anchor-7" 406 -420 basechar 0
AnchorPoint: "Anchor-6" 583 1900 basechar 0
AnchorPoint: "Anchor-5" 324 495 basechar 0
AnchorPoint: "Anchor-4" 379 1016 basechar 0
AnchorPoint: "Anchor-2" 128 -470 basechar 0
AnchorPoint: "Anchor-1" 468 1550 basechar 0
AnchorPoint: "Anchor-0" 316 1650 basechar 0
LayerCount: 2
Fore
SplineSet
707 1311 m 0,0,1
 707 1216 707 1216 637.5 1157 c 128,-1,2
 568 1098 568 1098 455 1098 c 0,3,4
 355 1098 355 1098 292 1150.5 c 128,-1,5
 229 1203 229 1203 229 1282 c 0,6,7
 229 1378 229 1378 299 1437.5 c 128,-1,8
 369 1497 369 1497 483 1497 c 0,9,10
 581 1497 581 1497 644 1445.5 c 128,-1,11
 707 1394 707 1394 707 1311 c 0,0,1
-137 -481 m 0,12,13
 -242 -481 -242 -481 -309 -446 c 1,14,-1
 -244 -145 l 1,15,16
 -231 -155 -231 -155 -206 -162.5 c 128,-1,17
 -181 -170 -181 -170 -160 -170 c 0,18,19
 -93 -170 -93 -170 -59.5 -124 c 128,-1,20
 -26 -78 -26 -78 -6 20 c 2,21,-1
 207 1024 l 1,22,-1
 633 1024 l 1,23,-1
 428 55 l 2,24,25
 387 -140 387 -140 312 -255.5 c 128,-1,26
 237 -371 237 -371 124.5 -426 c 128,-1,27
 12 -481 12 -481 -137 -481 c 0,12,13
EndSplineSet
Substitution2: "SegoeUIBlack-Italic-Single Substitution lookup 6 subtable" uni0237
EndChar

StartChar: k
Encoding: 107 107 177
Width: 1239
GlyphClass: 2
Flags: W
AnchorPoint: "Anchor-14" 0 2100 basechar 0
AnchorPoint: "Anchor-13" 1088 2100 basechar 0
AnchorPoint: "Anchor-12" 808 0 basechar 0
AnchorPoint: "Anchor-11" 858 0 basechar 0
AnchorPoint: "Anchor-10" 790 0 basechar 0
AnchorPoint: "Anchor-9" 579 -50 basechar 0
AnchorPoint: "Anchor-8" 1218 1035 basechar 0
AnchorPoint: "Anchor-7" 1086 -420 basechar 0
AnchorPoint: "Anchor-6" 1145 1900 basechar 0
AnchorPoint: "Anchor-5" 346 1061 basechar 0
AnchorPoint: "Anchor-4" 968 1026 basechar 0
AnchorPoint: "Anchor-2" 660 -15 basechar 0
AnchorPoint: "Anchor-1" 970 1400 basechar 0
AnchorPoint: "Anchor-0" 660 1650 basechar 0
LayerCount: 2
Fore
SplineSet
948 520 m 1,0,-1
 1141 0 l 1,1,-1
 676 0 l 1,2,-1
 528 516 l 1,3,-1
 524 516 l 1,4,-1
 414 0 l 1,5,-1
 -12 0 l 1,6,-1
 311 1516 l 1,7,-1
 737 1516 l 1,8,-1
 532 553 l 1,9,-1
 537 553 l 1,10,-1
 872 1024 l 1,11,-1
 1362 1024 l 1,12,-1
 948 520 l 1,0,-1
EndSplineSet
EndChar

StartChar: l
Encoding: 108 108 178
Width: 631
GlyphClass: 2
Flags: W
AnchorPoint: "Anchor-14" 0 2100 basechar 0
AnchorPoint: "Anchor-13" 544 2100 basechar 0
AnchorPoint: "Anchor-12" 130 0 basechar 0
AnchorPoint: "Anchor-11" 170 0 basechar 0
AnchorPoint: "Anchor-10" 180 0 basechar 0
AnchorPoint: "Anchor-9" 250 0 basechar 0
AnchorPoint: "Anchor-8" 607 1522 basechar 0
AnchorPoint: "Anchor-7" 378 -420 basechar 0
AnchorPoint: "Anchor-6" 583 1900 basechar 0
AnchorPoint: "Anchor-5" 324 761 basechar 0
AnchorPoint: "Anchor-4" 368 1513 basechar 0
AnchorPoint: "Anchor-2" 316 -15 basechar 0
AnchorPoint: "Anchor-1" 428 1600 basechar 0
AnchorPoint: "Anchor-0" 316 1650 basechar 0
LayerCount: 2
Fore
SplineSet
364 -25 m 0,0,1
 214 -25 214 -25 127 54 c 128,-1,2
 40 133 40 133 40 264 c 0,3,4
 40 328 40 328 61 420 c 2,5,-1
 297 1516 l 1,6,-1
 723 1516 l 1,7,-1
 493 434 l 2,8,9
 483 392 483 392 483 356 c 0,10,11
 483 299 483 299 552 299 c 0,12,13
 608 299 608 299 665 324 c 1,14,-1
 599 14 l 1,15,16
 570 0 570 0 508 -12.5 c 128,-1,17
 446 -25 446 -25 364 -25 c 0,0,1
EndSplineSet
EndChar

StartChar: m
Encoding: 109 109 179
Width: 1942
GlyphClass: 2
Flags: W
AnchorPoint: "Anchor-14" 0 2100 basechar 0
AnchorPoint: "Anchor-13" 1830 2100 basechar 0
AnchorPoint: "Anchor-12" 1452 0 basechar 0
AnchorPoint: "Anchor-11" 1490 0 basechar 0
AnchorPoint: "Anchor-10" 1450 0 basechar 0
AnchorPoint: "Anchor-8" 1870 888 basechar 0
AnchorPoint: "Anchor-7" 1686 -420 basechar 0
AnchorPoint: "Anchor-6" 1880 1900 basechar 0
AnchorPoint: "Anchor-5" 973 524 basechar 0
AnchorPoint: "Anchor-4" 1666 928 basechar 0
AnchorPoint: "Anchor-2" 982 -15 basechar 0
AnchorPoint: "Anchor-1" 1666 1200 basechar 0
AnchorPoint: "Anchor-0" 982 1300 basechar 0
LayerCount: 2
Fore
SplineSet
1892 797 m 0,0,1
 1892 722 1892 722 1870 623 c 2,2,-1
 1739 0 l 1,3,-1
 1313 0 l 1,4,-1
 1434 567 l 2,5,6
 1450 631 1450 631 1450 670 c 0,7,8
 1450 737 1450 737 1382 737 c 0,9,10
 1349 737 1349 737 1305.5 703.5 c 128,-1,11
 1262 670 1262 670 1229 615.5 c 128,-1,12
 1196 561 1196 561 1184 504 c 2,13,-1
 1081 0 l 1,14,-1
 653 0 l 1,15,-1
 774 567 l 2,16,17
 791 635 791 635 791 670 c 0,18,19
 791 737 791 737 723 737 c 0,20,21
 669 737 669 737 606 665.5 c 128,-1,22
 543 594 543 594 524 504 c 2,23,-1
 418 0 l 1,24,-1
 -10 0 l 1,25,-1
 135 680 l 2,26,27
 170 846 170 846 195 1024 c 1,28,-1
 614 1024 l 1,29,30
 607 904 607 904 594 848 c 1,31,-1
 598 848 l 1,32,33
 680 941 680 941 786.5 995 c 128,-1,34
 893 1049 893 1049 987 1049 c 0,35,36
 1216 1049 1216 1049 1231 823 c 1,37,38
 1309 926 1309 926 1421.5 987.5 c 128,-1,39
 1534 1049 1534 1049 1647 1049 c 0,40,41
 1892 1049 1892 1049 1892 797 c 0,0,1
EndSplineSet
EndChar

StartChar: n
Encoding: 110 110 180
Width: 1282
GlyphClass: 2
Flags: W
AnchorPoint: "Anchor-14" 0 2100 basechar 0
AnchorPoint: "Anchor-13" 1203 2100 basechar 0
AnchorPoint: "Anchor-12" 800 0 basechar 0
AnchorPoint: "Anchor-11" 834 9 basechar 0
AnchorPoint: "Anchor-10" 860 0 basechar 0
AnchorPoint: "Anchor-9" 623 -50 basechar 0
AnchorPoint: "Anchor-8" 1243 888 basechar 0
AnchorPoint: "Anchor-7" 1060 -420 basechar 0
AnchorPoint: "Anchor-6" 1239 1900 basechar 0
AnchorPoint: "Anchor-5" 654 524 basechar 0
AnchorPoint: "Anchor-4" 1024 928 basechar 0
AnchorPoint: "Anchor-2" 640 -15 basechar 0
AnchorPoint: "Anchor-1" 1044 1200 basechar 0
AnchorPoint: "Anchor-0" 640 1300 basechar 0
LayerCount: 2
Fore
SplineSet
1233 797 m 0,0,1
 1233 727 1233 727 1210 623 c 2,2,-1
 1079 0 l 1,3,-1
 653 0 l 1,4,-1
 774 567 l 2,5,6
 791 635 791 635 791 670 c 0,7,8
 791 737 791 737 723 737 c 0,9,10
 669 737 669 737 606 665.5 c 128,-1,11
 543 594 543 594 524 504 c 2,12,-1
 420 0 l 1,13,-1
 -10 0 l 1,14,-1
 135 680 l 2,15,16
 170 846 170 846 195 1024 c 1,17,-1
 614 1024 l 1,18,19
 607 904 607 904 594 848 c 1,20,-1
 598 848 l 1,21,22
 680 941 680 941 786.5 995 c 128,-1,23
 893 1049 893 1049 987 1049 c 0,24,25
 1233 1049 1233 1049 1233 797 c 0,0,1
EndSplineSet
Substitution2: "SegoeUIBlack-Italic-'sups' Superscript in Latin lookup 3 subtable" uni207F
EndChar

StartChar: o
Encoding: 111 111 181
Width: 1237
GlyphClass: 2
Flags: W
AnchorPoint: "Anchor-14" 0 2100 basechar 0
AnchorPoint: "Anchor-13" 1238 2100 basechar 0
AnchorPoint: "Anchor-10" 670 0 basechar 0
AnchorPoint: "Anchor-9" 638 -15 basechar 0
AnchorPoint: "Anchor-8" 1028 900 basechar 0
AnchorPoint: "Anchor-7" 1142 -420 basechar 0
AnchorPoint: "Anchor-6" 1261 1900 basechar 0
AnchorPoint: "Anchor-5" 650 536 basechar 0
AnchorPoint: "Anchor-4" 1058 910 basechar 0
AnchorPoint: "Anchor-2" 650 -25 basechar 0
AnchorPoint: "Anchor-1" 1038 1200 basechar 0
AnchorPoint: "Anchor-0" 650 1300 basechar 0
LayerCount: 2
Fore
SplineSet
1189 598 m 0,0,1
 1189 419 1189 419 1108.5 270.5 c 128,-1,2
 1028 122 1028 122 884 48.5 c 128,-1,3
 740 -25 740 -25 546 -25 c 0,4,5
 309 -25 309 -25 179.5 94 c 128,-1,6
 50 213 50 213 50 428 c 0,7,8
 50 554 50 554 96 675 c 128,-1,9
 142 796 142 796 224 878.5 c 128,-1,10
 306 961 306 961 425.5 1005 c 128,-1,11
 545 1049 545 1049 699 1049 c 0,12,13
 933 1049 933 1049 1061 931.5 c 128,-1,14
 1189 814 1189 814 1189 598 c 0,0,1
765 598 m 0,15,16
 765 666 765 666 736 701.5 c 128,-1,17
 707 737 707 737 658 737 c 0,18,19
 603 737 603 737 562 694.5 c 128,-1,20
 521 652 521 652 497.5 577.5 c 128,-1,21
 474 503 474 503 474 424 c 0,22,23
 474 356 474 356 503.5 321.5 c 128,-1,24
 533 287 533 287 583 287 c 0,25,26
 665 287 665 287 715 375 c 128,-1,27
 765 463 765 463 765 598 c 0,15,16
EndSplineSet
EndChar

StartChar: p
Encoding: 112 112 182
Width: 1292
GlyphClass: 2
Flags: W
AnchorPoint: "Anchor-14" 0 2100 basechar 0
AnchorPoint: "Anchor-13" 1245 2100 basechar 0
AnchorPoint: "Anchor-12" 701 63 basechar 0
AnchorPoint: "Anchor-11" 780 63 basechar 0
AnchorPoint: "Anchor-10" 211 -480 basechar 0
AnchorPoint: "Anchor-8" 1085 903 basechar 0
AnchorPoint: "Anchor-7" 1149 -420 basechar 0
AnchorPoint: "Anchor-6" 1275 1900 basechar 0
AnchorPoint: "Anchor-5" 707 495 basechar 0
AnchorPoint: "Anchor-4" 1061 943 basechar 0
AnchorPoint: "Anchor-2" 631 -470 basechar 0
AnchorPoint: "Anchor-1" 1091 1200 basechar 0
AnchorPoint: "Anchor-0" 641 1300 basechar 0
LayerCount: 2
Fore
SplineSet
1243 678 m 0,0,1
 1243 471 1243 471 1156 308.5 c 128,-1,2
 1069 146 1069 146 912.5 60.5 c 128,-1,3
 756 -25 756 -25 549 -25 c 0,4,5
 535 -25 535 -25 481 -22 c 128,-1,6
 427 -19 427 -19 422 -16 c 1,7,-1
 322 -471 l 1,8,-1
 -106 -471 l 1,9,-1
 135 664 l 2,10,11
 158 766 158 766 176 873 c 128,-1,12
 194 980 194 980 197 1024 c 1,13,-1
 606 1024 l 1,14,15
 601 940 601 940 584 842 c 1,16,-1
 588 842 l 1,17,18
 729 1049 729 1049 942 1049 c 0,19,20
 1078 1049 1078 1049 1160.5 946 c 128,-1,21
 1243 843 1243 843 1243 678 c 0,0,1
819 612 m 0,22,23
 819 737 819 737 723 737 c 0,24,25
 658 737 658 737 602 656.5 c 128,-1,26
 546 576 546 576 510 422 c 2,27,-1
 471 252 l 1,28,29
 507 246 507 246 535 246 c 0,30,31
 654 246 654 246 736.5 353 c 128,-1,32
 819 460 819 460 819 612 c 0,22,23
EndSplineSet
EndChar

StartChar: q
Encoding: 113 113 183
Width: 1292
GlyphClass: 2
Flags: W
AnchorPoint: "Anchor-14" 0 2100 basechar 0
AnchorPoint: "Anchor-13" 1247 2100 basechar 0
AnchorPoint: "Anchor-12" 700 -446 basechar 0
AnchorPoint: "Anchor-11" 748 -446 basechar 0
AnchorPoint: "Anchor-10" 921 -480 basechar 0
AnchorPoint: "Anchor-8" 1200 1027 basechar 0
AnchorPoint: "Anchor-7" 1081 -420 basechar 0
AnchorPoint: "Anchor-6" 1275 1900 basechar 0
AnchorPoint: "Anchor-5" 646 531 basechar 0
AnchorPoint: "Anchor-4" 1073 1027 basechar 0
AnchorPoint: "Anchor-2" 631 -470 basechar 0
AnchorPoint: "Anchor-1" 1131 1200 basechar 0
AnchorPoint: "Anchor-0" 631 1300 basechar 0
LayerCount: 2
Fore
SplineSet
981 -471 m 1,0,-1
 555 -471 l 1,1,-1
 643 -57 l 1,2,-1
 671 58 l 1,3,-1
 698 166 l 1,4,-1
 694 166 l 1,5,6
 630 75 630 75 544 25 c 128,-1,7
 458 -25 458 -25 365 -25 c 0,8,9
 214 -25 214 -25 131.5 79.5 c 128,-1,10
 49 184 49 184 49 373 c 0,11,12
 49 512 49 512 102.5 643.5 c 128,-1,13
 156 775 156 775 248 864 c 128,-1,14
 340 953 340 953 473.5 1001 c 128,-1,15
 607 1049 607 1049 776 1049 c 0,16,17
 1045 1049 1045 1049 1286 971 c 1,18,-1
 981 -471 l 1,0,-1
819 766 m 1,19,20
 792 778 792 778 748 778 c 0,21,22
 676 778 676 778 614.5 731 c 128,-1,23
 553 684 553 684 513 594.5 c 128,-1,24
 473 505 473 505 473 418 c 0,25,26
 473 353 473 353 497 320 c 128,-1,27
 521 287 521 287 561 287 c 0,28,29
 632 287 632 287 689.5 364.5 c 128,-1,30
 747 442 747 442 776 578 c 2,31,-1
 819 766 l 1,19,20
EndSplineSet
EndChar

StartChar: r
Encoding: 114 114 184
Width: 886
GlyphClass: 2
Flags: W
AnchorPoint: "Anchor-14" 0 2100 basechar 0
AnchorPoint: "Anchor-13" 780 2100 basechar 0
AnchorPoint: "Anchor-12" 148 0 basechar 0
AnchorPoint: "Anchor-11" 180 0 basechar 0
AnchorPoint: "Anchor-10" 180 0 basechar 0
AnchorPoint: "Anchor-9" 246 0 basechar 0
AnchorPoint: "Anchor-8" 900 1026 basechar 0
AnchorPoint: "Anchor-7" 768 -420 basechar 0
AnchorPoint: "Anchor-6" 826 1900 basechar 0
AnchorPoint: "Anchor-5" 344 485 basechar 0
AnchorPoint: "Anchor-4" 759 1030 basechar 0
AnchorPoint: "Anchor-2" 368 -15 basechar 0
AnchorPoint: "Anchor-1" 808 1200 basechar 0
AnchorPoint: "Anchor-0" 528 1300 basechar 0
LayerCount: 2
Fore
SplineSet
882 659 m 1,0,-1
 880 659 l 1,1,2
 830 684 830 684 771 684 c 0,3,4
 667 684 667 684 602.5 624 c 128,-1,5
 538 564 538 564 505 418 c 2,6,-1
 417 0 l 1,7,-1
 -9 0 l 1,8,-1
 130 653 l 2,9,10
 179 881 179 881 194 1024 c 1,11,-1
 613 1024 l 1,12,13
 602 927 602 927 587 827 c 1,14,-1
 591 827 l 1,15,16
 650 941 650 941 718.5 995 c 128,-1,17
 787 1049 787 1049 878 1049 c 0,18,19
 916 1049 916 1049 968 1036 c 1,20,-1
 882 659 l 1,0,-1
EndSplineSet
EndChar

StartChar: s
Encoding: 115 115 185
Width: 973
GlyphClass: 2
Flags: W
AnchorPoint: "Anchor-14" 0 2100 basechar 0
AnchorPoint: "Anchor-13" 922 2100 basechar 0
AnchorPoint: "Anchor-12" 461 80 basechar 0
AnchorPoint: "Anchor-11" 561 80 basechar 0
AnchorPoint: "Anchor-10" 460 0 basechar 0
AnchorPoint: "Anchor-9" 477 -15 basechar 0
AnchorPoint: "Anchor-8" 889 1011 basechar 0
AnchorPoint: "Anchor-7" 836 -420 basechar 0
AnchorPoint: "Anchor-6" 936 1900 basechar 0
AnchorPoint: "Anchor-5" 487 536 basechar 0
AnchorPoint: "Anchor-4" 793 1020 basechar 0
AnchorPoint: "Anchor-2" 483 -25 basechar 0
AnchorPoint: "Anchor-1" 823 1200 basechar 0
AnchorPoint: "Anchor-0" 483 1300 basechar 0
LayerCount: 2
Fore
SplineSet
893 721 m 1,0,1
 841 743 841 743 765.5 762.5 c 128,-1,2
 690 782 690 782 629 782 c 0,3,4
 537 782 537 782 537 725 c 0,5,6
 537 694 537 694 560 679.5 c 128,-1,7
 583 665 583 665 621 649 c 0,8,9
 740 601 740 601 790.5 562.5 c 128,-1,10
 841 524 841 524 865 471.5 c 128,-1,11
 889 419 889 419 889 340 c 0,12,13
 889 232 889 232 826 149.5 c 128,-1,14
 763 67 763 67 643 21 c 128,-1,15
 523 -25 523 -25 352 -25 c 0,16,17
 251 -25 251 -25 156.5 -10.5 c 128,-1,18
 62 4 62 4 -4 25 c 1,19,-1
 51 319 l 1,20,21
 229 238 229 238 367 238 c 0,22,23
 492 238 492 238 492 303 c 0,24,25
 492 332 492 332 464.5 350.5 c 128,-1,26
 437 369 437 369 395 383 c 0,27,28
 245 432 245 432 184 504 c 128,-1,29
 123 576 123 576 123 690 c 0,30,31
 123 797 123 797 186.5 881 c 128,-1,32
 250 965 250 965 361.5 1007 c 128,-1,33
 473 1049 473 1049 625 1049 c 0,34,35
 697 1049 697 1049 796 1035.5 c 128,-1,36
 895 1022 895 1022 948 1008 c 1,37,-1
 893 721 l 1,0,1
EndSplineSet
EndChar

StartChar: t
Encoding: 116 116 186
Width: 842
GlyphClass: 2
Flags: W
AnchorPoint: "Anchor-14" 0 2100 basechar 0
AnchorPoint: "Anchor-13" 751 2100 basechar 0
AnchorPoint: "Anchor-12" 343 0 basechar 0
AnchorPoint: "Anchor-11" 443 0 basechar 0
AnchorPoint: "Anchor-10" 497 -15 basechar 0
AnchorPoint: "Anchor-9" 447 0 basechar 0
AnchorPoint: "Anchor-8" 881 1027 basechar 0
AnchorPoint: "Anchor-7" 698 -420 basechar 0
AnchorPoint: "Anchor-6" 797 1900 basechar 0
AnchorPoint: "Anchor-5" 387 539 basechar 0
AnchorPoint: "Anchor-4" 685 1022 basechar 0
AnchorPoint: "Anchor-2" 457 -25 basechar 0
AnchorPoint: "Anchor-1" 537 1400 basechar 0
AnchorPoint: "Anchor-0" 387 1500 basechar 0
LayerCount: 2
Fore
SplineSet
838 729 m 1,0,-1
 608 729 l 1,1,-1
 549 451 l 2,2,3
 535 386 535 386 535 348 c 0,4,5
 535 287 535 287 606 287 c 0,6,7
 666 287 666 287 743 315 c 1,8,-1
 682 20 l 1,9,10
 635 2 635 2 548.5 -11.5 c 128,-1,11
 462 -25 462 -25 393 -25 c 0,12,13
 98 -25 98 -25 98 254 c 0,14,15
 98 290 98 290 111.5 361 c 128,-1,16
 125 432 125 432 188 729 c 1,17,-1
 33 729 l 1,18,-1
 104 1024 l 1,19,-1
 250 1024 l 1,20,-1
 299 1260 l 1,21,-1
 743 1362 l 1,22,-1
 672 1024 l 1,23,-1
 909 1024 l 1,24,-1
 838 729 l 1,0,-1
EndSplineSet
EndChar

StartChar: u
Encoding: 117 117 187
Width: 1282
GlyphClass: 2
Flags: W
AnchorPoint: "Anchor-14" 0 2100 basechar 0
AnchorPoint: "Anchor-13" 1203 2100 basechar 0
AnchorPoint: "Anchor-12" 809 0 basechar 0
AnchorPoint: "Anchor-11" 849 0 basechar 0
AnchorPoint: "Anchor-10" 830 0 basechar 0
AnchorPoint: "Anchor-9" 573 -15 basechar 0
AnchorPoint: "Anchor-8" 1224 1020 basechar 0
AnchorPoint: "Anchor-7" 1038 -420 basechar 0
AnchorPoint: "Anchor-6" 1239 1900 basechar 0
AnchorPoint: "Anchor-5" 639 524 basechar 0
AnchorPoint: "Anchor-4" 1034 1020 basechar 0
AnchorPoint: "Anchor-2" 594 -25 basechar 0
AnchorPoint: "Anchor-1" 1074 1200 basechar 0
AnchorPoint: "Anchor-0" 634 1300 basechar 0
LayerCount: 2
Fore
SplineSet
1100 0 m 1,0,-1
 668 0 l 1,1,2
 675 116 675 116 684 168 c 1,3,-1
 680 168 l 1,4,5
 590 71 590 71 490 23 c 128,-1,6
 390 -25 390 -25 291 -25 c 0,7,8
 41 -25 41 -25 41 227 c 0,9,10
 41 302 41 302 63 401 c 2,11,-1
 195 1024 l 1,12,-1
 621 1024 l 1,13,-1
 502 469 l 2,14,15
 485 401 485 401 485 356 c 0,16,17
 485 336 485 336 499.5 320.5 c 128,-1,18
 514 305 514 305 545 305 c 0,19,20
 618 305 618 305 677 379.5 c 128,-1,21
 736 454 736 454 758 563 c 2,22,-1
 854 1024 l 1,23,-1
 1280 1024 l 1,24,-1
 1143 381 l 2,25,26
 1124 291 1124 291 1112 182 c 128,-1,27
 1100 73 1100 73 1100 0 c 1,0,-1
EndSplineSet
EndChar

StartChar: v
Encoding: 118 118 188
Width: 1184
GlyphClass: 2
Flags: W
AnchorPoint: "Anchor-14" 0 2100 basechar 0
AnchorPoint: "Anchor-13" 1064 2100 basechar 0
AnchorPoint: "Anchor-12" 390 0 basechar 0
AnchorPoint: "Anchor-11" 430 0 basechar 0
AnchorPoint: "Anchor-10" 420 0 basechar 0
AnchorPoint: "Anchor-8" 1230 1024 basechar 0
AnchorPoint: "Anchor-7" 1054 -420 basechar 0
AnchorPoint: "Anchor-6" 1122 1900 basechar 0
AnchorPoint: "Anchor-5" 603 620 basechar 0
AnchorPoint: "Anchor-4" 1044 1024 basechar 0
AnchorPoint: "Anchor-2" 623 -15 basechar 0
AnchorPoint: "Anchor-1" 1123 1200 basechar 0
AnchorPoint: "Anchor-0" 623 1300 basechar 0
LayerCount: 2
Fore
SplineSet
733 0 m 1,0,-1
 213 0 l 1,1,-1
 94 1024 l 1,2,-1
 518 1024 l 1,3,-1
 532 368 l 2,4,5
 532 308 532 308 526 262 c 1,6,-1
 532 262 l 1,7,-1
 566 358 l 1,8,-1
 604 459 l 1,9,-1
 836 1024 l 1,10,-1
 1298 1024 l 1,11,-1
 733 0 l 1,0,-1
EndSplineSet
EndChar

StartChar: w
Encoding: 119 119 189
Width: 1731
GlyphClass: 2
Flags: W
AnchorPoint: "Anchor-14" 0 2100 basechar 0
AnchorPoint: "Anchor-13" 1571 2100 basechar 0
AnchorPoint: "Anchor-12" 1013 0 basechar 0
AnchorPoint: "Anchor-11" 1080 9 basechar 0
AnchorPoint: "Anchor-10" 990 0 basechar 0
AnchorPoint: "Anchor-8" 1737 1024 basechar 0
AnchorPoint: "Anchor-7" 1547 -420 basechar 0
AnchorPoint: "Anchor-6" 1640 1900 basechar 0
AnchorPoint: "Anchor-5" 866 512 basechar 0
AnchorPoint: "Anchor-4" 1531 1024 basechar 0
AnchorPoint: "Anchor-2" 866 -15 basechar 0
AnchorPoint: "Anchor-1" 1611 1200 basechar 0
AnchorPoint: "Anchor-0" 866 1300 basechar 0
LayerCount: 2
Fore
SplineSet
1315 0 m 1,0,-1
 872 0 l 1,1,-1
 877 518 l 2,2,3
 877 590 877 590 889 672 c 1,4,-1
 885 672 l 1,5,6
 874 629 874 629 855.5 579 c 128,-1,7
 837 529 837 529 625 0 c 1,8,-1
 170 0 l 1,9,-1
 117 1024 l 1,10,-1
 524 1024 l 1,11,-1
 487 428 l 2,12,13
 479 333 479 333 473 295 c 1,14,-1
 479 295 l 1,15,16
 510 394 510 394 526 432 c 2,17,-1
 772 1024 l 1,18,-1
 1188 1024 l 1,19,-1
 1174 432 l 2,20,21
 1174 369 1174 369 1165 297 c 1,22,-1
 1171 297 l 1,23,-1
 1212 432 l 1,24,-1
 1413 1024 l 1,25,-1
 1819 1024 l 1,26,-1
 1315 0 l 1,0,-1
EndSplineSet
EndChar

StartChar: x
Encoding: 120 120 190
Width: 1272
GlyphClass: 2
Flags: W
AnchorPoint: "Anchor-14" 0 2100 basechar 0
AnchorPoint: "Anchor-13" 1063 2100 basechar 0
AnchorPoint: "Anchor-10" 720 0 basechar 0
AnchorPoint: "Anchor-8" 1202 1024 basechar 0
AnchorPoint: "Anchor-7" 1037 -420 basechar 0
AnchorPoint: "Anchor-6" 1149 1900 basechar 0
AnchorPoint: "Anchor-5" 636 512 basechar 0
AnchorPoint: "Anchor-4" 993 1024 basechar 0
AnchorPoint: "Anchor-2" 636 -15 basechar 0
AnchorPoint: "Anchor-1" 1093 1200 basechar 0
AnchorPoint: "Anchor-0" 636 1300 basechar 0
LayerCount: 2
Fore
SplineSet
950 528 m 1,0,-1
 1165 0 l 1,1,-1
 692 0 l 1,2,-1
 627 233 l 2,3,4
 613 277 613 277 606 340 c 1,5,-1
 602 340 l 1,6,-1
 575 288 l 1,7,-1
 547 238 l 1,8,-1
 391 0 l 1,9,-1
 -113 0 l 1,10,-1
 336 524 l 1,11,-1
 125 1024 l 1,12,-1
 600 1024 l 1,13,14
 640 875 640 875 661 797.5 c 128,-1,15
 682 720 682 720 684 674 c 1,16,-1
 688 674 l 1,17,18
 704 704 704 704 727 744 c 128,-1,19
 750 784 750 784 903 1024 c 1,20,-1
 1384 1024 l 1,21,-1
 950 528 l 1,0,-1
EndSplineSet
EndChar

StartChar: y
Encoding: 121 121 191
Width: 1176
GlyphClass: 2
Flags: W
AnchorPoint: "Anchor-14" 0 2100 basechar 0
AnchorPoint: "Anchor-13" 1059 2100 basechar 0
AnchorPoint: "Anchor-10" 288 -440 basechar 0
AnchorPoint: "Anchor-8" 1216 1036 basechar 0
AnchorPoint: "Anchor-7" 1049 -420 basechar 0
AnchorPoint: "Anchor-6" 1109 1900 basechar 0
AnchorPoint: "Anchor-5" 598 602 basechar 0
AnchorPoint: "Anchor-4" 1028 1020 basechar 0
AnchorPoint: "Anchor-2" 573 -470 basechar 0
AnchorPoint: "Anchor-1" 1118 1200 basechar 0
AnchorPoint: "Anchor-0" 588 1300 basechar 0
LayerCount: 2
Fore
SplineSet
72 -481 m 0,0,1
 -62 -481 -62 -481 -164 -440 c 1,2,-1
 -94 -127 l 1,3,4
 -42 -170 -42 -170 43 -170 c 0,5,6
 163 -170 163 -170 221 -74 c 2,7,-1
 272 10 l 1,8,-1
 63 1024 l 1,9,-1
 510 1024 l 1,10,-1
 551 530 l 2,11,12
 557 461 557 461 557 383 c 2,13,-1
 555 344 l 1,14,-1
 559 344 l 1,15,16
 574 388 574 388 595.5 442.5 c 128,-1,17
 617 497 617 497 842 1024 c 1,18,-1
 1280 1024 l 1,19,-1
 686 -29 l 2,20,21
 580 -216 580 -216 495 -304.5 c 128,-1,22
 410 -393 410 -393 307.5 -437 c 128,-1,23
 205 -481 205 -481 72 -481 c 0,0,1
EndSplineSet
EndChar

StartChar: z
Encoding: 122 122 192
Width: 1067
GlyphClass: 2
Flags: W
AnchorPoint: "Anchor-14" 0 2100 basechar 0
AnchorPoint: "Anchor-13" 972 2100 basechar 0
AnchorPoint: "Anchor-12" 615 0 basechar 0
AnchorPoint: "Anchor-11" 680 -9 basechar 0
AnchorPoint: "Anchor-10" 670 0 basechar 0
AnchorPoint: "Anchor-8" 1066 1024 basechar 0
AnchorPoint: "Anchor-7" 926 -420 basechar 0
AnchorPoint: "Anchor-6" 997 1900 basechar 0
AnchorPoint: "Anchor-5" 509 512 basechar 0
AnchorPoint: "Anchor-4" 896 1024 basechar 0
AnchorPoint: "Anchor-2" 526 -15 basechar 0
AnchorPoint: "Anchor-1" 966 1200 basechar 0
AnchorPoint: "Anchor-0" 526 1300 basechar 0
LayerCount: 2
Fore
SplineSet
567 295 m 1,0,-1
 977 295 l 1,1,-1
 915 0 l 1,2,-1
 -82 0 l 1,3,-1
 -41 199 l 1,4,-1
 532 729 l 1,5,-1
 117 729 l 1,6,-1
 178 1024 l 1,7,-1
 1124 1024 l 1,8,-1
 1071 772 l 1,9,-1
 567 295 l 1,0,-1
EndSplineSet
EndChar

StartChar: braceleft
Encoding: 123 123 193
Width: 862
GlyphClass: 2
Flags: W
LayerCount: 2
Fore
SplineSet
434 500 m 1,0,-1
 434 496 l 1,1,2
 479 470 479 470 509 417.5 c 128,-1,3
 539 365 539 365 539 291 c 0,4,5
 539 221 539 221 522 156 c 2,6,-1
 481 -29 l 2,7,8
 475 -57 475 -57 475 -84 c 0,9,10
 475 -199 475 -199 606 -199 c 1,11,-1
 559 -422 l 1,12,13
 354 -422 354 -422 249.5 -346.5 c 128,-1,14
 145 -271 145 -271 145 -113 c 0,15,16
 145 -49 145 -49 164 31 c 2,17,-1
 209 227 l 2,18,19
 217 257 217 257 217 293 c 0,20,21
 217 351 217 351 184 380.5 c 128,-1,22
 151 410 151 410 92 410 c 1,23,-1
 141 635 l 1,24,25
 217 635 217 635 260.5 665.5 c 128,-1,26
 304 696 304 696 319 770 c 2,27,-1
 367 997 l 2,28,29
 392 1118 392 1118 435.5 1202.5 c 128,-1,30
 479 1287 479 1287 542 1338 c 128,-1,31
 605 1389 605 1389 695.5 1411.5 c 128,-1,32
 786 1434 786 1434 952 1434 c 1,33,-1
 905 1208 l 1,34,35
 817 1208 817 1208 773.5 1171.5 c 128,-1,36
 730 1135 730 1135 707 1026 c 2,37,-1
 659 801 l 2,38,39
 635 682 635 682 578.5 603 c 128,-1,40
 522 524 522 524 434 500 c 1,0,-1
EndSplineSet
EndChar

StartChar: bar
Encoding: 124 124 194
Width: 815
GlyphClass: 2
Flags: W
LayerCount: 2
Fore
SplineSet
281 -481 m 1,0,-1
 281 1567 l 1,1,-1
 608 1567 l 1,2,-1
 608 -481 l 1,3,-1
 281 -481 l 1,0,-1
99 1540 m 1024,4,-1
EndSplineSet
EndChar

StartChar: braceright
Encoding: 125 125 195
Width: 862
GlyphClass: 2
Flags: W
LayerCount: 2
Fore
SplineSet
-98 -420 m 1,0,-1
 -49 -195 l 1,1,2
 40 -195 40 -195 84 -157 c 128,-1,3
 128 -119 128 -119 150 -12 c 2,4,-1
 197 213 l 2,5,6
 221 332 221 332 277.5 410.5 c 128,-1,7
 334 489 334 489 422 514 c 1,8,-1
 422 518 l 1,9,10
 377 544 377 544 347 596.5 c 128,-1,11
 317 649 317 649 317 723 c 0,12,13
 317 786 317 786 334 858 c 2,14,-1
 375 1042 l 2,15,16
 379 1061 379 1061 379 1098 c 0,17,18
 379 1212 379 1212 250 1212 c 1,19,-1
 297 1436 l 1,20,21
 504 1436 504 1436 606.5 1363 c 128,-1,22
 709 1290 709 1290 709 1133 c 0,23,24
 709 1048 709 1048 692 983 c 2,25,-1
 647 786 l 2,26,27
 639 757 639 757 639 721 c 0,28,29
 639 658 639 658 674 631 c 128,-1,30
 709 604 709 604 762 604 c 1,31,-1
 715 379 l 1,32,33
 639 379 639 379 595.5 348.5 c 128,-1,34
 552 318 552 318 537 244 c 2,35,-1
 489 16 l 2,36,37
 464 -105 464 -105 420 -189 c 128,-1,38
 376 -273 376 -273 314 -323.5 c 128,-1,39
 252 -374 252 -374 161.5 -397 c 128,-1,40
 71 -420 71 -420 -98 -420 c 1,0,-1
EndSplineSet
EndChar

StartChar: asciitilde
Encoding: 126 126 196
Width: 1464
GlyphClass: 2
Flags: W
LayerCount: 2
Fore
SplineSet
1282 776 m 1,0,1
 1276 601 1276 601 1189 495 c 128,-1,2
 1102 389 1102 389 958 389 c 0,3,4
 876 389 876 389 815.5 411 c 128,-1,5
 755 433 755 433 685 474 c 0,6,7
 612 518 612 518 569 518 c 0,8,9
 522 518 522 518 492 483.5 c 128,-1,10
 462 449 462 449 455 377 c 1,11,-1
 207 377 l 1,12,13
 212 558 212 558 300 662 c 128,-1,14
 388 766 388 766 539 766 c 0,15,16
 608 766 608 766 660 749 c 128,-1,17
 712 732 712 732 762 705 c 0,18,19
 809 679 809 679 848 658 c 128,-1,20
 887 637 887 637 926 637 c 0,21,22
 973 637 973 637 1002.5 677 c 128,-1,23
 1032 717 1032 717 1034 776 c 1,24,-1
 1282 776 l 1,0,1
EndSplineSet
EndChar

StartChar: Aring
Encoding: 197 197 198
Width: 1536
GlyphClass: 2
Flags: W
AnchorPoint: "Anchor-14" 0 2100 basechar 0
AnchorPoint: "Anchor-13" 1402 2100 basechar 0
AnchorPoint: "Anchor-10" 1125 0 basechar 0
AnchorPoint: "Anchor-7" 1379 -420 basechar 0
AnchorPoint: "Anchor-6" 1456 2100 basechar 0
AnchorPoint: "Anchor-2" 768 -15 basechar 0
AnchorPoint: "Anchor-1" 1156 1660 basechar 0
AnchorPoint: "Anchor-0" 770 1920 basechar 0
LayerCount: 2
Fore
SplineSet
961 0 m 1,0,-1
 940 264 l 1,1,-1
 510 264 l 1,2,-1
 381 0 l 1,3,-1
 -94 0 l 1,4,-1
 702 1434 l 1,5,6
 678 1482 678 1482 678 1546 c 0,7,8
 678 1662 678 1662 759.5 1732 c 128,-1,9
 841 1802 841 1802 969 1802 c 0,10,11
 1105 1802 1105 1802 1185.5 1731 c 128,-1,12
 1266 1660 1266 1660 1266 1546 c 0,13,14
 1266 1483 1266 1483 1239 1427 c 1,15,-1
 1401 0 l 1,16,-1
 961 0 l 1,0,-1
1075 1546 m 0,17,18
 1075 1581 1075 1581 1049 1606.5 c 128,-1,19
 1023 1632 1023 1632 969 1632 c 0,20,21
 926 1632 926 1632 898 1607 c 128,-1,22
 870 1582 870 1582 870 1546 c 0,23,24
 870 1508 870 1508 897.5 1483 c 128,-1,25
 925 1458 925 1458 969 1458 c 256,26,27
 1013 1458 1013 1458 1044 1483.5 c 128,-1,28
 1075 1509 1075 1509 1075 1546 c 0,17,18
898 1008 m 2,29,30
 898 1076 898 1076 903 1106 c 1,31,-1
 893 1106 l 1,32,-1
 874 1056 l 1,33,-1
 836 969 l 1,34,-1
 662 602 l 1,35,-1
 918 602 l 1,36,-1
 899 961 l 1,37,-1
 898 1008 l 2,29,30
EndSplineSet
EndChar

StartChar: dagger
Encoding: 8224 8224 229
Width: 885
GlyphClass: 2
Flags: W
LayerCount: 2
Fore
SplineSet
891 907 m 1,0,-1
 643 907 l 1,1,-1
 502 242 l 1,2,-1
 236 242 l 1,3,-1
 377 907 l 1,4,-1
 129 907 l 1,5,-1
 178 1135 l 1,6,-1
 426 1135 l 1,7,-1
 489 1434 l 1,8,-1
 756 1434 l 1,9,-1
 692 1135 l 1,10,-1
 940 1135 l 1,11,-1
 891 907 l 1,0,-1
EndSplineSet
EndChar

StartChar: degree
Encoding: 176 176 230
Width: 791
GlyphClass: 2
Flags: W
LayerCount: 2
Fore
SplineSet
817 1184 m 0,0,1
 817 1110 817 1110 779.5 1046 c 128,-1,2
 742 982 742 982 675.5 944.5 c 128,-1,3
 609 907 609 907 535 907 c 0,4,5
 417 907 417 907 334.5 987.5 c 128,-1,6
 252 1068 252 1068 252 1184 c 0,7,8
 252 1297 252 1297 333.5 1377.5 c 128,-1,9
 415 1458 415 1458 535 1458 c 0,10,11
 652 1458 652 1458 734.5 1378 c 128,-1,12
 817 1298 817 1298 817 1184 c 0,0,1
639 1184 m 256,13,14
 639 1230 639 1230 609 1261 c 128,-1,15
 579 1292 579 1292 535 1292 c 0,16,17
 488 1292 488 1292 457 1261 c 128,-1,18
 426 1230 426 1230 426 1184 c 256,19,20
 426 1138 426 1138 458 1105.5 c 128,-1,21
 490 1073 490 1073 535 1073 c 0,22,23
 578 1073 578 1073 608.5 1105.5 c 128,-1,24
 639 1138 639 1138 639 1184 c 256,13,14
EndSplineSet
EndChar

StartChar: cent
Encoding: 162 162 231
Width: 1227
GlyphClass: 2
Flags: W
LayerCount: 2
Fore
SplineSet
1065 862 m 1,0,1
 1034 881 1034 881 966 893 c 128,-1,2
 898 905 898 905 825 905 c 0,3,4
 686 905 686 905 602 830.5 c 128,-1,5
 518 756 518 756 518 629 c 0,6,7
 518 548 518 548 578 501.5 c 128,-1,8
 638 455 638 455 735 455 c 0,9,10
 792 455 792 455 859 470 c 128,-1,11
 926 485 926 485 983 514 c 1,12,-1
 920 219 l 1,13,14
 824 172 824 172 721 154 c 1,15,-1
 680 -31 l 1,16,-1
 442 -31 l 1,17,-1
 481 152 l 1,18,19
 307 179 307 179 214 288 c 128,-1,20
 121 397 121 397 121 565 c 0,21,22
 121 728 121 728 193.5 867 c 128,-1,23
 266 1006 266 1006 398.5 1094.5 c 128,-1,24
 531 1183 531 1183 707 1208 c 1,25,-1
 752 1423 l 1,26,-1
 989 1423 l 1,27,-1
 944 1212 l 1,28,29
 1052 1202 1052 1202 1128 1163 c 1,30,-1
 1065 862 l 1,0,1
475 1434 m 1024,31,-1
EndSplineSet
EndChar

StartChar: sterling
Encoding: 163 163 232
Width: 1227
GlyphClass: 2
Flags: W
LayerCount: 2
Fore
SplineSet
1157 1063 m 1,0,1
 1131 1089 1131 1089 1074 1109.5 c 128,-1,2
 1017 1130 1017 1130 967 1130 c 0,3,4
 813 1130 813 1130 778 956 c 2,5,-1
 760 866 l 1,6,-1
 999 866 l 1,7,-1
 942 604 l 1,8,-1
 702 604 l 1,9,-1
 694 563 l 2,10,11
 667 423 667 423 518 313 c 1,12,-1
 1102 313 l 1,13,-1
 1034 0 l 1,14,-1
 10 0 l 1,15,-1
 74 293 l 1,16,17
 176 318 176 318 230 373 c 128,-1,18
 284 428 284 428 307 530 c 2,19,-1
 324 604 l 1,20,-1
 160 604 l 1,21,-1
 215 866 l 1,22,-1
 379 866 l 1,23,-1
 406 993 l 2,24,25
 453 1212 453 1212 602 1335 c 128,-1,26
 751 1458 751 1458 973 1458 c 0,27,28
 1112 1458 1112 1458 1229 1403 c 1,29,-1
 1157 1063 l 1,0,1
EndSplineSet
EndChar

StartChar: section
Encoding: 167 167 233
Width: 1063
GlyphClass: 2
Flags: W
LayerCount: 2
Fore
SplineSet
1001 1163 m 1,0,1
 944 1197 944 1197 859.5 1220 c 128,-1,2
 775 1243 775 1243 707 1243 c 0,3,4
 594 1243 594 1243 594 1171 c 0,5,6
 594 1133 594 1133 628 1104 c 128,-1,7
 662 1075 662 1075 778 1024 c 0,8,9
 891 976 891 976 944 911 c 128,-1,10
 997 846 997 846 997 760 c 0,11,12
 997 692 997 692 970.5 637.5 c 128,-1,13
 944 583 944 583 902.5 540 c 128,-1,14
 861 497 861 497 780 446 c 1,15,16
 805 416 805 416 822.5 370.5 c 128,-1,17
 840 325 840 325 840 279 c 0,18,19
 840 181 840 181 785 103.5 c 128,-1,20
 730 26 730 26 627.5 -17.5 c 128,-1,21
 525 -61 525 -61 391 -61 c 0,22,23
 295 -61 295 -61 189.5 -37.5 c 128,-1,24
 84 -14 84 -14 25 23 c 1,25,-1
 82 291 l 1,26,27
 242 188 242 188 403 188 c 0,28,29
 460 188 460 188 496 211 c 128,-1,30
 532 234 532 234 532 270 c 0,31,32
 532 341 532 341 407 395 c 0,33,34
 308 438 308 438 258 480.5 c 128,-1,35
 208 523 208 523 182 576.5 c 128,-1,36
 156 630 156 630 156 694 c 0,37,38
 156 761 156 761 175 809.5 c 128,-1,39
 194 858 194 858 226.5 893.5 c 128,-1,40
 259 929 259 929 344 981 c 1,41,42
 308 1037 308 1037 295.5 1076.5 c 128,-1,43
 283 1116 283 1116 283 1161 c 0,44,45
 283 1256 283 1256 339 1332 c 128,-1,46
 395 1408 395 1408 497 1449.5 c 128,-1,47
 599 1491 599 1491 735 1491 c 0,48,49
 913 1491 913 1491 1053 1425 c 1,50,-1
 1001 1163 l 1,0,1
709 696 m 0,51,52
 709 737 709 737 676.5 764.5 c 128,-1,53
 644 792 644 792 575 825 c 0,54,55
 541 844 541 844 512 856 c 1,56,57
 481 839 481 839 458.5 810 c 128,-1,58
 436 781 436 781 436 754 c 0,59,60
 436 715 436 715 453.5 691.5 c 128,-1,61
 471 668 471 668 516.5 642 c 128,-1,62
 562 616 562 616 621 592 c 1,63,64
 660 608 660 608 684.5 636 c 128,-1,65
 709 664 709 664 709 696 c 0,51,52
EndSplineSet
EndChar

StartChar: bullet
Encoding: 8226 8226 234
Width: 885
GlyphClass: 2
Flags: W
LayerCount: 2
Fore
SplineSet
729 487 m 0,0,1
 729 410 729 410 689 342 c 128,-1,2
 649 274 649 274 580.5 234.5 c 128,-1,3
 512 195 512 195 436 195 c 0,4,5
 319 195 319 195 233 280 c 128,-1,6
 147 365 147 365 147 487 c 0,7,8
 147 607 147 607 231 691.5 c 128,-1,9
 315 776 315 776 436 776 c 0,10,11
 560 776 560 776 644.5 689.5 c 128,-1,12
 729 603 729 603 729 487 c 0,0,1
EndSplineSet
EndChar

StartChar: paragraph
Encoding: 182 182 235
Width: 1147
GlyphClass: 2
Flags: W
LayerCount: 2
Fore
SplineSet
977 1225 m 1,0,-1
 977 0 l 1,1,-1
 750 0 l 1,2,-1
 750 1225 l 1,3,-1
 651 1225 l 1,4,-1
 651 0 l 1,5,-1
 424 0 l 1,6,-1
 424 774 l 1,7,8
 299 788 299 788 219 882 c 128,-1,9
 139 976 139 976 139 1108 c 0,10,11
 139 1201 139 1201 183 1276.5 c 128,-1,12
 227 1352 227 1352 303 1393 c 128,-1,13
 379 1434 379 1434 471 1434 c 2,14,-1
 1085 1434 l 1,15,-1
 1085 1225 l 1,16,-1
 977 1225 l 1,0,-1
EndSplineSet
EndChar

StartChar: germandbls
Encoding: 223 223 236
Width: 1406
GlyphClass: 2
Flags: W
AnchorPoint: "Anchor-14" 0 2100 basechar 0
AnchorPoint: "Anchor-13" 1227 2100 basechar 0
AnchorPoint: "Anchor-10" 709 0 basechar 0
AnchorPoint: "Anchor-7" 1157 -420 basechar 0
AnchorPoint: "Anchor-6" 1304 1900 basechar 0
AnchorPoint: "Anchor-2" 683 -25 basechar 0
AnchorPoint: "Anchor-1" 1227 1538 basechar 0
AnchorPoint: "Anchor-0" 670 1698 basechar 0
LayerCount: 2
Fore
SplineSet
1374 1165 m 0,0,1
 1374 892 1374 892 1026 788 c 1,2,-1
 1026 784 l 1,3,4
 1341 712 1341 712 1341 438 c 0,5,6
 1341 308 1341 308 1265.5 197.5 c 128,-1,7
 1190 87 1190 87 1059.5 31 c 128,-1,8
 929 -25 929 -25 760 -25 c 0,9,10
 600 -25 600 -25 500 12 c 1,11,-1
 569 326 l 1,12,13
 629 287 629 287 723 287 c 0,14,15
 804 287 804 287 855.5 335.5 c 128,-1,16
 907 384 907 384 907 453 c 0,17,18
 907 534 907 534 836.5 576 c 128,-1,19
 766 618 766 618 631 618 c 1,20,-1
 690 901 l 1,21,22
 806 901 806 901 873 955.5 c 128,-1,23
 940 1010 940 1010 940 1104 c 0,24,25
 940 1160 940 1160 904.5 1194.5 c 128,-1,26
 869 1229 869 1229 809 1229 c 256,27,28
 749 1229 749 1229 702.5 1179.5 c 128,-1,29
 656 1130 656 1130 635 1030 c 2,30,-1
 416 0 l 1,31,-1
 -10 0 l 1,32,-1
 201 995 l 2,33,34
 259 1270 259 1270 418.5 1405 c 128,-1,35
 578 1540 578 1540 844 1540 c 0,36,37
 1015 1540 1015 1540 1133 1492 c 128,-1,38
 1251 1444 1251 1444 1312.5 1360 c 128,-1,39
 1374 1276 1374 1276 1374 1165 c 0,0,1
EndSplineSet
EndChar

StartChar: registered
Encoding: 174 174 238
Width: 1755
GlyphClass: 2
Flags: W
LayerCount: 2
Fore
SplineSet
1504 856 m 0,0,1
 1504 691 1504 691 1420 551.5 c 128,-1,2
 1336 412 1336 412 1190.5 334 c 128,-1,3
 1045 256 1045 256 875 256 c 0,4,5
 699 256 699 256 556 332 c 128,-1,6
 413 408 413 408 332.5 545.5 c 128,-1,7
 252 683 252 683 252 853 c 0,8,9
 252 1019 252 1019 335 1158.5 c 128,-1,10
 418 1298 418 1298 563 1376 c 128,-1,11
 708 1454 708 1454 882 1454 c 256,12,13
 1056 1454 1056 1454 1199 1377.5 c 128,-1,14
 1342 1301 1342 1301 1423 1164 c 128,-1,15
 1504 1027 1504 1027 1504 856 c 0,0,1
1369 853 m 0,16,17
 1369 990 1369 990 1305.5 1102.5 c 128,-1,18
 1242 1215 1242 1215 1129.5 1277 c 128,-1,19
 1017 1339 1017 1339 878 1339 c 0,20,21
 740 1339 740 1339 627 1275.5 c 128,-1,22
 514 1212 514 1212 450 1099.5 c 128,-1,23
 386 987 386 987 386 854 c 0,24,25
 386 717 386 717 450 606.5 c 128,-1,26
 514 496 514 496 628 434.5 c 128,-1,27
 742 373 742 373 878 373 c 0,28,29
 1011 373 1011 373 1125.5 435.5 c 128,-1,30
 1240 498 1240 498 1304.5 609 c 128,-1,31
 1369 720 1369 720 1369 853 c 0,16,17
960 500 m 1,32,-1
 917 695 l 2,33,34
 902 763 902 763 860 763 c 2,35,-1
 802 763 l 1,36,-1
 802 500 l 1,37,-1
 588 500 l 1,38,-1
 588 1224 l 1,39,-1
 882 1224 l 2,40,41
 1030 1224 1030 1224 1110.5 1171.5 c 128,-1,42
 1191 1119 1191 1119 1191 1011 c 0,43,44
 1191 875 1191 875 1033 826 c 1,45,-1
 1033 822 l 1,46,47
 1107 806 1107 806 1134 727 c 2,48,-1
 1210 500 l 1,49,-1
 960 500 l 1,32,-1
958 986 m 0,50,51
 958 1014 958 1014 937 1033.5 c 128,-1,52
 916 1053 916 1053 868 1053 c 2,53,-1
 802 1053 l 1,54,-1
 802 916 l 1,55,-1
 884 916 l 2,56,57
 918 916 918 916 938 935 c 128,-1,58
 958 954 958 954 958 986 c 0,50,51
EndSplineSet
EndChar

StartChar: copyright
Encoding: 169 169 239
Width: 1755
GlyphClass: 2
Flags: W
LayerCount: 2
Fore
SplineSet
1688 719 m 0,0,1
 1688 515 1688 515 1584.5 342.5 c 128,-1,2
 1481 170 1481 170 1301 72.5 c 128,-1,3
 1121 -25 1121 -25 909 -25 c 0,4,5
 690 -25 690 -25 512.5 69.5 c 128,-1,6
 335 164 335 164 236 334 c 128,-1,7
 137 504 137 504 137 713 c 0,8,9
 137 920 137 920 239 1091 c 128,-1,10
 341 1262 341 1262 520 1360 c 128,-1,11
 699 1458 699 1458 918 1458 c 0,12,13
 1135 1458 1135 1458 1312 1363.5 c 128,-1,14
 1489 1269 1489 1269 1588.5 1098.5 c 128,-1,15
 1688 928 1688 928 1688 719 c 0,0,1
1520 715 m 0,16,17
 1520 886 1520 886 1442.5 1023.5 c 128,-1,18
 1365 1161 1365 1161 1225 1238 c 128,-1,19
 1085 1315 1085 1315 913 1315 c 256,20,21
 741 1315 741 1315 601 1236.5 c 128,-1,22
 461 1158 461 1158 383 1019 c 128,-1,23
 305 880 305 880 305 715 c 0,24,25
 305 547 305 547 383.5 410 c 128,-1,26
 462 273 462 273 602.5 196 c 128,-1,27
 743 119 743 119 913 119 c 0,28,29
 1078 119 1078 119 1219 197.5 c 128,-1,30
 1360 276 1360 276 1440 413 c 128,-1,31
 1520 550 1520 550 1520 715 c 0,16,17
1221 324 m 1,32,33
 1093 258 1093 258 948 258 c 0,34,35
 813 258 813 258 703.5 315 c 128,-1,36
 594 372 594 372 532.5 473.5 c 128,-1,37
 471 575 471 575 471 698 c 0,38,39
 471 914 471 914 612 1046 c 128,-1,40
 753 1178 753 1178 981 1178 c 0,41,42
 1101 1178 1101 1178 1221 1120 c 1,43,-1
 1221 836 l 1,44,45
 1179 867 1179 867 1117.5 888 c 128,-1,46
 1056 909 1056 909 987 909 c 0,47,48
 898 909 898 909 839 853 c 128,-1,49
 780 797 780 797 780 709 c 0,50,51
 780 627 780 627 842.5 573.5 c 128,-1,52
 905 520 905 520 993 520 c 0,53,54
 1126 520 1126 520 1221 592 c 1,55,-1
 1221 324 l 1,32,33
EndSplineSet
EndChar

StartChar: trademark
Encoding: 8482 8482 240
Width: 1577
GlyphClass: 2
Flags: W
LayerCount: 2
Fore
SplineSet
1317 772 m 1,0,-1
 1317 1206 l 1,1,-1
 1311 1206 l 1,2,-1
 1204 772 l 1,3,-1
 997 772 l 1,4,-1
 907 1210 l 1,5,-1
 901 1210 l 1,6,-1
 901 772 l 1,7,-1
 721 772 l 1,8,-1
 721 1434 l 1,9,-1
 1012 1434 l 1,10,-1
 1106 999 l 1,11,-1
 1110 999 l 1,12,-1
 1229 1434 l 1,13,-1
 1493 1434 l 1,14,-1
 1493 772 l 1,15,-1
 1317 772 l 1,0,-1
510 1296 m 1,16,-1
 510 772 l 1,17,-1
 328 772 l 1,18,-1
 328 1296 l 1,19,-1
 178 1296 l 1,20,-1
 178 1434 l 1,21,-1
 668 1434 l 1,22,-1
 668 1296 l 1,23,-1
 510 1296 l 1,16,-1
EndSplineSet
EndChar

StartChar: acute
Encoding: 180 180 241
Width: 1024
GlyphClass: 2
Flags: W
LayerCount: 2
Fore
SplineSet
731 1145 m 1,0,-1
 406 1145 l 1,1,-1
 745 1466 l 1,2,-1
 1128 1466 l 1,3,-1
 731 1145 l 1,0,-1
EndSplineSet
EndChar

StartChar: dieresis
Encoding: 168 168 242
Width: 1024
GlyphClass: 2
Flags: W
LayerCount: 2
Fore
SplineSet
1122 1309 m 0,0,1
 1122 1236 1122 1236 1070 1190.5 c 128,-1,2
 1018 1145 1018 1145 930 1145 c 0,3,4
 846 1145 846 1145 791.5 1191.5 c 128,-1,5
 737 1238 737 1238 737 1309 c 256,6,7
 737 1380 737 1380 790 1424 c 128,-1,8
 843 1468 843 1468 930 1468 c 0,9,10
 1016 1468 1016 1468 1069 1423.5 c 128,-1,11
 1122 1379 1122 1379 1122 1309 c 0,0,1
621 1309 m 0,12,13
 621 1238 621 1238 569.5 1191.5 c 128,-1,14
 518 1145 518 1145 428 1145 c 0,15,16
 343 1145 343 1145 289.5 1192.5 c 128,-1,17
 236 1240 236 1240 236 1309 c 0,18,19
 236 1380 236 1380 289 1424 c 128,-1,20
 342 1468 342 1468 428 1468 c 0,21,22
 515 1468 515 1468 568 1424.5 c 128,-1,23
 621 1381 621 1381 621 1309 c 0,12,13
EndSplineSet
EndChar

StartChar: notequal
Encoding: 8800 8800 243
Width: 1464
GlyphClass: 2
Flags: W
LayerCount: 2
Fore
SplineSet
709 236 m 1,0,-1
 584 0 l 1,1,-1
 268 0 l 1,2,-1
 393 236 l 1,3,-1
 238 236 l 1,4,-1
 238 483 l 1,5,-1
 524 483 l 1,6,-1
 621 666 l 1,7,-1
 238 666 l 1,8,-1
 238 913 l 1,9,-1
 752 913 l 1,10,-1
 895 1188 l 1,11,-1
 1210 1188 l 1,12,-1
 1067 913 l 1,13,-1
 1229 913 l 1,14,-1
 1229 666 l 1,15,-1
 936 666 l 1,16,-1
 840 483 l 1,17,-1
 1229 483 l 1,18,-1
 1229 236 l 1,19,-1
 709 236 l 1,0,-1
EndSplineSet
EndChar

StartChar: AE
Encoding: 198 198 244
Width: 2050
GlyphClass: 2
Flags: W
AnchorPoint: "Anchor-14" 0 2100 basechar 0
AnchorPoint: "Anchor-13" 1862 2100 basechar 0
AnchorPoint: "Anchor-10" 1450 0 basechar 0
AnchorPoint: "Anchor-7" 1767 -420 basechar 0
AnchorPoint: "Anchor-6" 1931 1900 basechar 0
AnchorPoint: "Anchor-2" 1100 -15 basechar 0
AnchorPoint: "Anchor-1" 1862 1500 basechar 0
AnchorPoint: "Anchor-0" 1120 1600 basechar 0
LayerCount: 2
Fore
SplineSet
2034 1096 m 1,0,-1
 1573 1096 l 1,1,-1
 1530 887 l 1,2,-1
 1962 887 l 1,3,-1
 1890 549 l 1,4,-1
 1458 549 l 1,5,-1
 1413 338 l 1,6,-1
 1907 338 l 1,7,-1
 1835 0 l 1,8,-1
 909 0 l 1,9,-1
 965 264 l 1,10,-1
 516 264 l 1,11,-1
 334 0 l 1,12,-1
 -162 0 l 1,13,-1
 913 1434 l 1,14,-1
 2105 1434 l 1,15,-1
 2034 1096 l 1,0,-1
1085 1100 m 1,16,-1
 750 602 l 1,17,-1
 1036 602 l 1,18,-1
 1143 1100 l 1,19,-1
 1085 1100 l 1,16,-1
EndSplineSet
EndChar

StartChar: Oslash
Encoding: 216 216 245
Width: 1565
GlyphClass: 2
Flags: W
AnchorPoint: "Anchor-14" 0 2100 basechar 0
AnchorPoint: "Anchor-13" 1554 2100 basechar 0
AnchorPoint: "Anchor-10" 840 -15 basechar 0
AnchorPoint: "Anchor-7" 1460 -420 basechar 0
AnchorPoint: "Anchor-6" 1558 1900 basechar 0
AnchorPoint: "Anchor-2" 780 -25 basechar 0
AnchorPoint: "Anchor-1" 1430 1660 basechar 0
AnchorPoint: "Anchor-0" 784 1600 basechar 0
LayerCount: 2
Fore
SplineSet
1421 1229 m 1,0,1
 1534 1072 1534 1072 1534 829 c 0,2,3
 1534 593 1534 593 1430.5 390 c 128,-1,4
 1327 187 1327 187 1143.5 81 c 128,-1,5
 960 -25 960 -25 707 -25 c 0,6,7
 496 -25 496 -25 350 70 c 1,8,-1
 182 -115 l 1,9,-1
 37 29 l 1,10,-1
 205 211 l 1,11,12
 92 378 92 378 92 602 c 0,13,14
 92 840 92 840 197 1042 c 128,-1,15
 302 1244 302 1244 486 1351 c 128,-1,16
 670 1458 670 1458 913 1458 c 0,17,18
 1124 1458 1124 1458 1270 1368 c 1,19,-1
 1413 1522 l 1,20,-1
 1561 1378 l 1,21,-1
 1421 1229 l 1,0,1
1026 1100 m 1,22,23
 1000 1121 1000 1121 958.5 1134 c 128,-1,24
 917 1147 917 1147 872 1147 c 0,25,26
 767 1147 767 1147 685 1075 c 128,-1,27
 603 1003 603 1003 554.5 871.5 c 128,-1,28
 506 740 506 740 506 618 c 2,29,-1
 506 539 l 1,30,-1
 1026 1100 l 1,22,23
1120 815 m 0,31,32
 1120 874 1120 874 1116 899 c 1,33,-1
 592 330 l 1,34,35
 661 281 661 281 743 281 c 0,36,37
 856 281 856 281 942 352 c 128,-1,38
 1028 423 1028 423 1074 549.5 c 128,-1,39
 1120 676 1120 676 1120 815 c 0,31,32
EndSplineSet
EndChar

StartChar: infinity
Encoding: 8734 8734 246
Width: 1655
GlyphClass: 2
Flags: W
LayerCount: 2
Fore
SplineSet
1610 569 m 0,0,1
 1610 462 1610 462 1558.5 369.5 c 128,-1,2
 1507 277 1507 277 1417 223.5 c 128,-1,3
 1327 170 1327 170 1221 170 c 0,4,5
 1094 170 1094 170 1002 231.5 c 128,-1,6
 910 293 910 293 842 412 c 1,7,8
 776 311 776 311 673.5 249.5 c 128,-1,9
 571 188 571 188 461 188 c 0,10,11
 289 188 289 188 181.5 302 c 128,-1,12
 74 416 74 416 74 602 c 0,13,14
 74 709 74 709 125.5 801.5 c 128,-1,15
 177 894 177 894 267 947.5 c 128,-1,16
 357 1001 357 1001 463 1001 c 0,17,18
 590 1001 590 1001 681 940 c 128,-1,19
 772 879 772 879 840 760 c 1,20,21
 907 863 907 863 1010.5 923 c 128,-1,22
 1114 983 1114 983 1223 983 c 0,23,24
 1395 983 1395 983 1502.5 869 c 128,-1,25
 1610 755 1610 755 1610 569 c 0,0,1
1313 573 m 0,26,27
 1313 638 1313 638 1271.5 677.5 c 128,-1,28
 1230 717 1230 717 1163 717 c 0,29,30
 1058 717 1058 717 977 575 c 1,31,32
 1034 490 1034 490 1075 462 c 128,-1,33
 1116 434 1116 434 1167 434 c 0,34,35
 1225 434 1225 434 1269 474.5 c 128,-1,36
 1313 515 1313 515 1313 573 c 0,26,27
707 596 m 1,37,38
 650 681 650 681 608.5 709 c 128,-1,39
 567 737 567 737 516 737 c 0,40,41
 455 737 455 737 413 696 c 128,-1,42
 371 655 371 655 371 598 c 0,43,44
 371 535 371 535 412.5 495 c 128,-1,45
 454 455 454 455 520 455 c 0,46,47
 623 455 623 455 707 596 c 1,37,38
EndSplineSet
EndChar

StartChar: plusminus
Encoding: 177 177 247
Width: 1464
GlyphClass: 2
Flags: W
LayerCount: 2
Fore
SplineSet
856 725 m 1,0,-1
 856 352 l 1,1,-1
 608 352 l 1,2,-1
 608 725 l 1,3,-1
 244 725 l 1,4,-1
 244 973 l 1,5,-1
 608 973 l 1,6,-1
 608 1356 l 1,7,-1
 856 1356 l 1,8,-1
 856 973 l 1,9,-1
 1231 973 l 1,10,-1
 1231 725 l 1,11,-1
 856 725 l 1,0,-1
238 0 m 1,12,-1
 238 248 l 1,13,-1
 1223 248 l 1,14,-1
 1223 0 l 1,15,-1
 238 0 l 1,12,-1
EndSplineSet
EndChar

StartChar: lessequal
Encoding: 8804 8804 248
Width: 1464
GlyphClass: 2
Flags: W
LayerCount: 2
Fore
SplineSet
268 643 m 1,0,-1
 268 901 l 1,1,-1
 1260 1257 l 1,2,-1
 1260 965 l 1,3,-1
 557 770 l 1,4,-1
 557 766 l 1,5,-1
 1260 571 l 1,6,-1
 1260 279 l 1,7,-1
 268 643 l 1,0,-1
268 0 m 1,8,-1
 268 248 l 1,9,-1
 1260 248 l 1,10,-1
 1260 0 l 1,11,-1
 268 0 l 1,8,-1
EndSplineSet
EndChar

StartChar: greaterequal
Encoding: 8805 8805 249
Width: 1464
GlyphClass: 2
Flags: W
LayerCount: 2
Fore
SplineSet
268 279 m 1,0,-1
 268 571 l 1,1,-1
 969 766 l 1,2,-1
 969 770 l 1,3,-1
 268 965 l 1,4,-1
 268 1257 l 1,5,-1
 1260 901 l 1,6,-1
 1260 643 l 1,7,-1
 268 279 l 1,0,-1
268 0 m 1,8,-1
 268 248 l 1,9,-1
 1260 248 l 1,10,-1
 1260 0 l 1,11,-1
 268 0 l 1,8,-1
EndSplineSet
EndChar

StartChar: yen
Encoding: 165 165 250
Width: 1227
GlyphClass: 2
Flags: W
LayerCount: 2
Fore
SplineSet
928 793 m 1,0,-1
 1171 793 l 1,1,-1
 1128 584 l 1,2,-1
 836 584 l 1,3,-1
 809 461 l 1,4,-1
 1102 461 l 1,5,-1
 1057 248 l 1,6,-1
 764 248 l 1,7,-1
 711 0 l 1,8,-1
 301 0 l 1,9,-1
 354 248 l 1,10,-1
 53 248 l 1,11,-1
 98 461 l 1,12,-1
 399 461 l 1,13,-1
 426 584 l 1,14,-1
 125 584 l 1,15,-1
 168 793 l 1,16,-1
 414 793 l 1,17,-1
 207 1434 l 1,18,-1
 612 1434 l 1,19,-1
 702 956 l 1,20,-1
 715 897 l 1,21,-1
 719 897 l 1,22,-1
 756 956 l 1,23,-1
 1040 1434 l 1,24,-1
 1425 1434 l 1,25,-1
 928 793 l 1,0,-1
EndSplineSet
EndChar

StartChar: partialdiff
Encoding: 8706 8706 252
Width: 1247
GlyphClass: 2
Flags: W
LayerCount: 2
Fore
SplineSet
1227 907 m 0,0,1
 1227 618 1227 618 1138.5 403 c 128,-1,2
 1050 188 1050 188 889 81.5 c 128,-1,3
 728 -25 728 -25 506 -25 c 0,4,5
 286 -25 286 -25 167.5 87.5 c 128,-1,6
 49 200 49 200 49 410 c 0,7,8
 49 566 49 566 118 707 c 128,-1,9
 187 848 187 848 301.5 920.5 c 128,-1,10
 416 993 416 993 559 993 c 0,11,12
 734 993 734 993 823 862 c 1,13,-1
 827 862 l 1,14,-1
 829 905 l 1,15,16
 829 1061 829 1061 771 1133.5 c 128,-1,17
 713 1206 713 1206 592 1206 c 0,18,19
 526 1206 526 1206 450.5 1189 c 128,-1,20
 375 1172 375 1172 307 1141 c 1,21,-1
 387 1452 l 1,22,23
 546 1509 546 1509 694 1509 c 0,24,25
 959 1509 959 1509 1093 1361 c 128,-1,26
 1227 1213 1227 1213 1227 907 c 0,0,1
762 608 m 1,27,28
 751 662 751 662 723.5 691.5 c 128,-1,29
 696 721 696 721 655 721 c 0,30,31
 606 721 606 721 564 676.5 c 128,-1,32
 522 632 522 632 495.5 559.5 c 128,-1,33
 469 487 469 487 469 422 c 0,34,35
 469 351 469 351 496 319 c 128,-1,36
 523 287 523 287 565 287 c 0,37,38
 630 287 630 287 683 374.5 c 128,-1,39
 736 462 736 462 762 608 c 1,27,28
315 1024 m 1024,40,-1
EndSplineSet
EndChar

StartChar: summation
Encoding: 8721 8721 253
Width: 1358
GlyphClass: 2
Flags: W
LayerCount: 2
Fore
SplineSet
80 -471 m 1,0,-1
 80 -231 l 1,1,-1
 639 492 l 1,2,-1
 102 1182 l 1,3,-1
 102 1434 l 1,4,-1
 1323 1434 l 1,5,-1
 1323 1096 l 1,6,-1
 705 1096 l 1,7,-1
 1133 502 l 1,8,-1
 678 -133 l 1,9,-1
 1358 -133 l 1,10,-1
 1358 -471 l 1,11,-1
 80 -471 l 1,0,-1
EndSplineSet
EndChar

StartChar: product
Encoding: 8719 8719 254
Width: 1681
GlyphClass: 2
Flags: W
LayerCount: 2
Fore
SplineSet
1161 -471 m 1,0,-1
 1161 1065 l 1,1,-1
 604 1065 l 1,2,-1
 604 -471 l 1,3,-1
 172 -471 l 1,4,-1
 172 1434 l 1,5,-1
 1593 1434 l 1,6,-1
 1593 -471 l 1,7,-1
 1161 -471 l 1,0,-1
EndSplineSet
EndChar

StartChar: integral
Encoding: 8747 8747 255
Width: 1227
GlyphClass: 2
Flags: W
LayerCount: 2
Fore
SplineSet
1120 1206 m 1,0,1
 1054 1229 1054 1229 997 1229 c 0,2,3
 926 1229 926 1229 892 1192.5 c 128,-1,4
 858 1156 858 1156 858 1094 c 2,5,-1
 858 -74 l 2,6,7
 858 -199 858 -199 800 -294.5 c 128,-1,8
 742 -390 742 -390 631.5 -443 c 128,-1,9
 521 -496 521 -496 362 -496 c 0,10,11
 323 -496 323 -496 264 -489.5 c 128,-1,12
 205 -483 205 -483 170 -473 c 1,13,-1
 170 -162 l 1,14,15
 233 -184 233 -184 293 -184 c 0,16,17
 364 -184 364 -184 398 -147.5 c 128,-1,18
 432 -111 432 -111 432 -49 c 2,19,-1
 432 1118 l 2,20,21
 432 1243 432 1243 490 1338.5 c 128,-1,22
 548 1434 548 1434 658.5 1487 c 128,-1,23
 769 1540 769 1540 928 1540 c 0,24,25
 1041 1540 1041 1540 1120 1518 c 1,26,-1
 1120 1206 l 1,0,1
EndSplineSet
EndChar

StartChar: ordfeminine
Encoding: 170 170 256
Width: 991
GlyphClass: 2
Flags: W
LayerCount: 2
Fore
SplineSet
938 715 m 1,0,-1
 631 715 l 1,1,-1
 638 812 l 1,2,-1
 641 844 l 1,3,-1
 637 844 l 1,4,5
 533 696 533 696 385 696 c 0,6,7
 278 696 278 696 221 769.5 c 128,-1,8
 164 843 164 843 164 979 c 0,9,10
 164 1105 164 1105 231 1221.5 c 128,-1,11
 298 1338 298 1338 417 1396 c 128,-1,12
 536 1454 536 1454 692 1454 c 0,13,14
 773 1454 773 1454 877 1442 c 128,-1,15
 981 1430 981 1430 1061 1411 c 1,16,-1
 967 969 l 2,17,18
 956 917 956 917 947 842.5 c 128,-1,19
 938 768 938 768 938 715 c 1,0,-1
719 1257 m 1,20,21
 688 1264 688 1264 676 1264 c 0,22,23
 613 1264 613 1264 567.5 1226.5 c 128,-1,24
 522 1189 522 1189 496.5 1127.5 c 128,-1,25
 471 1066 471 1066 471 1004 c 0,26,27
 471 960 471 960 490 939 c 128,-1,28
 509 918 509 918 537 918 c 0,29,30
 639 918 639 918 690 1139 c 2,31,-1
 719 1257 l 1,20,21
EndSplineSet
EndChar

StartChar: ordmasculine
Encoding: 186 186 257
Width: 950
GlyphClass: 2
Flags: W
LayerCount: 2
Fore
SplineSet
997 1124 m 0,0,1
 997 1006 997 1006 935.5 907.5 c 128,-1,2
 874 809 874 809 764 752.5 c 128,-1,3
 654 696 654 696 524 696 c 0,4,5
 344 696 344 696 241.5 787 c 128,-1,6
 139 878 139 878 139 1038 c 0,7,8
 139 1148 139 1148 200 1245.5 c 128,-1,9
 261 1343 261 1343 368 1398.5 c 128,-1,10
 475 1454 475 1454 600 1454 c 0,11,12
 793 1454 793 1454 895 1371 c 128,-1,13
 997 1288 997 1288 997 1124 c 0,0,1
686 1112 m 0,14,15
 686 1237 686 1237 582 1237 c 0,16,17
 529 1237 529 1237 489 1177.5 c 128,-1,18
 449 1118 449 1118 449 1024 c 0,19,20
 449 973 449 973 475 944 c 128,-1,21
 501 915 501 915 551 915 c 256,22,23
 601 915 601 915 643.5 975.5 c 128,-1,24
 686 1036 686 1036 686 1112 c 0,14,15
EndSplineSet
EndChar

StartChar: glyph159
Encoding: 1114114 -1 258
Width: 1587
GlyphClass: 2
Flags: W
LayerCount: 2
Fore
SplineSet
750 0 m 1,0,-1
 836 406 l 1,1,2
 980 480 980 480 1053 588 c 128,-1,3
 1126 696 1126 696 1126 850 c 0,4,5
 1126 956 1126 956 1061.5 1023 c 128,-1,6
 997 1090 997 1090 889 1090 c 0,7,8
 795 1090 795 1090 725 1049 c 128,-1,9
 655 1008 655 1008 615 929.5 c 128,-1,10
 575 851 575 851 575 733 c 0,11,12
 575 638 575 638 609.5 552.5 c 128,-1,13
 644 467 644 467 705 406 c 1,14,-1
 618 0 l 1,15,-1
 -39 0 l 1,16,-1
 33 338 l 1,17,-1
 383 338 l 1,18,19
 264 414 264 414 190.5 541.5 c 128,-1,20
 117 669 117 669 117 805 c 0,21,22
 117 1004 117 1004 213 1150 c 128,-1,23
 309 1296 309 1296 490.5 1377 c 128,-1,24
 672 1458 672 1458 911 1458 c 0,25,26
 1108 1458 1108 1458 1262.5 1389.5 c 128,-1,27
 1417 1321 1417 1321 1503 1193 c 128,-1,28
 1589 1065 1589 1065 1589 901 c 0,29,30
 1589 708 1589 708 1475.5 561.5 c 128,-1,31
 1362 415 1362 415 1153 338 c 1,32,-1
 1481 338 l 1,33,-1
 1409 0 l 1,34,-1
 750 0 l 1,0,-1
EndSplineSet
EndChar

StartChar: ae
Encoding: 230 230 259
Width: 1812
GlyphClass: 2
Flags: W
AnchorPoint: "Anchor-14" 0 2100 basechar 0
AnchorPoint: "Anchor-13" 1712 2100 basechar 0
AnchorPoint: "Anchor-10" 1416 39 basechar 0
AnchorPoint: "Anchor-7" 1630 -420 basechar 0
AnchorPoint: "Anchor-6" 1630 1700 basechar 0
AnchorPoint: "Anchor-4" 1592 910 basechar 0
AnchorPoint: "Anchor-2" 848 -25 basechar 0
AnchorPoint: "Anchor-1" 1612 1200 basechar 0
AnchorPoint: "Anchor-0" 848 1300 basechar 0
LayerCount: 2
Fore
SplineSet
1819 743 m 0,0,1
 1819 565 1819 565 1655 480 c 128,-1,2
 1491 395 1491 395 1159 385 c 1,3,-1
 1159 377 l 2,4,5
 1159 319 1159 319 1208 286.5 c 128,-1,6
 1257 254 1257 254 1339 254 c 0,7,8
 1413 254 1413 254 1514 279 c 128,-1,9
 1615 304 1615 304 1683 338 c 1,10,-1
 1624 59 l 1,11,12
 1545 22 1545 22 1434.5 -1.5 c 128,-1,13
 1324 -25 1324 -25 1212 -25 c 0,14,15
 1082 -25 1082 -25 980 19 c 128,-1,16
 878 63 878 63 819 156 c 1,17,-1
 815 156 l 1,18,19
 727 56 727 56 632 15.5 c 128,-1,20
 537 -25 537 -25 410 -25 c 0,21,22
 306 -25 306 -25 223 23.5 c 128,-1,23
 140 72 140 72 94.5 162 c 128,-1,24
 49 252 49 252 49 375 c 0,25,26
 49 502 49 502 102.5 636 c 128,-1,27
 156 770 156 770 245.5 860 c 128,-1,28
 335 950 335 950 461.5 999.5 c 128,-1,29
 588 1049 588 1049 750 1049 c 0,30,31
 920 1049 920 1049 1120 991 c 1,32,33
 1242 1049 1242 1049 1411 1049 c 0,34,35
 1604 1049 1604 1049 1711.5 970 c 128,-1,36
 1819 891 1819 891 1819 743 c 0,0,1
1425 745 m 0,37,38
 1425 767 1425 767 1411.5 785 c 128,-1,39
 1398 803 1398 803 1364 803 c 0,40,41
 1298 803 1298 803 1249.5 752 c 128,-1,42
 1201 701 1201 701 1184 608 c 1,43,44
 1296 608 1296 608 1360.5 642 c 128,-1,45
 1425 676 1425 676 1425 745 c 0,37,38
821 772 m 1,46,47
 797 778 797 778 760 778 c 0,48,49
 680 778 680 778 616 732 c 128,-1,50
 552 686 552 686 512.5 594 c 128,-1,51
 473 502 473 502 473 410 c 0,52,53
 473 350 473 350 499 318.5 c 128,-1,54
 525 287 525 287 563 287 c 0,55,56
 635 287 635 287 692 368.5 c 128,-1,57
 749 450 749 450 782 602 c 2,58,-1
 821 772 l 1,46,47
EndSplineSet
EndChar

StartChar: oslash
Encoding: 248 248 260
Width: 1237
GlyphClass: 2
Flags: W
AnchorPoint: "Anchor-14" 0 2100 basechar 0
AnchorPoint: "Anchor-13" 1238 2100 basechar 0
AnchorPoint: "Anchor-10" 670 0 basechar 0
AnchorPoint: "Anchor-7" 1212 -420 basechar 0
AnchorPoint: "Anchor-6" 1261 1900 basechar 0
AnchorPoint: "Anchor-4" 1124 775 basechar 0
AnchorPoint: "Anchor-2" 650 -25 basechar 0
AnchorPoint: "Anchor-1" 1118 1360 basechar 0
AnchorPoint: "Anchor-0" 638 1300 basechar 0
LayerCount: 2
Fore
SplineSet
1120 860 m 1,0,1
 1188 755 1188 755 1188 598 c 0,2,3
 1188 418 1188 418 1107 270 c 128,-1,4
 1026 122 1026 122 882 48.5 c 128,-1,5
 738 -25 738 -25 543 -25 c 0,6,7
 368 -25 368 -25 252 39 c 1,8,-1
 127 -80 l 1,9,-1
 8 63 l 1,10,-1
 117 168 l 1,11,12
 49 279 49 279 49 428 c 0,13,14
 49 608 49 608 132.5 756.5 c 128,-1,15
 216 905 216 905 360 977 c 128,-1,16
 504 1049 504 1049 696 1049 c 0,17,18
 859 1049 859 1049 979 987 c 1,19,-1
 1116 1118 l 1,20,-1
 1235 975 l 1,21,-1
 1120 860 l 1,0,1
735 756 m 1,22,23
 701 774 701 774 668 774 c 0,24,25
 546 774 546 774 477 688.5 c 128,-1,26
 408 603 408 603 408 465 c 2,27,-1
 408 444 l 1,28,-1
 735 756 l 1,22,23
829 563 m 1,29,-1
 827 592 l 1,30,-1
 500 276 l 1,31,32
 537 252 537 252 573 252 c 0,33,34
 695 252 695 252 762 333.5 c 128,-1,35
 829 415 829 415 829 563 c 1,29,-1
EndSplineSet
EndChar

StartChar: questiondown
Encoding: 191 191 261
Width: 907
GlyphClass: 2
Flags: W
LayerCount: 2
Fore
SplineSet
797 862 m 0,0,1
 797 767 797 767 727.5 708 c 128,-1,2
 658 649 658 649 545 649 c 0,3,4
 445 649 445 649 382 701.5 c 128,-1,5
 319 754 319 754 319 834 c 0,6,7
 319 930 319 930 389 989.5 c 128,-1,8
 459 1049 459 1049 573 1049 c 0,9,10
 674 1049 674 1049 735.5 996.5 c 128,-1,11
 797 944 797 944 797 862 c 0,0,1
317 -453 m 0,12,13
 104 -453 104 -453 -12.5 -362.5 c 128,-1,14
 -129 -272 -129 -272 -129 -102 c 0,15,16
 -129 153 -129 153 178 324 c 0,17,18
 260 370 260 370 297 418.5 c 128,-1,19
 334 467 334 467 352 561 c 1,20,-1
 688 561 l 1,21,22
 664 442 664 442 640 381.5 c 128,-1,23
 616 321 616 321 580 273 c 128,-1,24
 544 225 544 225 487 184 c 0,25,26
 367 98 367 98 344 76 c 128,-1,27
 321 54 321 54 310 33.5 c 128,-1,28
 299 13 299 13 299 -12 c 0,29,30
 299 -63 299 -63 336.5 -88 c 128,-1,31
 374 -113 374 -113 440 -113 c 0,32,33
 588 -113 588 -113 760 -27 c 1,34,-1
 684 -375 l 1,35,36
 604 -411 604 -411 501.5 -432 c 128,-1,37
 399 -453 399 -453 317 -453 c 0,12,13
484 -471 m 1024,38,-1
EndSplineSet
EndChar

StartChar: exclamdown
Encoding: 161 161 263
Width: 713
GlyphClass: 2
Flags: W
LayerCount: 2
Fore
SplineSet
651 862 m 0,0,1
 651 765 651 765 581.5 707 c 128,-1,2
 512 649 512 649 399 649 c 0,3,4
 300 649 300 649 237 700.5 c 128,-1,5
 174 752 174 752 174 834 c 0,6,7
 174 930 174 930 244 989.5 c 128,-1,8
 314 1049 314 1049 428 1049 c 0,9,10
 528 1049 528 1049 589.5 996 c 128,-1,11
 651 943 651 943 651 862 c 0,0,1
381 -410 m 1,12,-1
 -68 -410 l 1,13,-1
 188 541 l 1,14,-1
 530 541 l 1,15,-1
 381 -410 l 1,12,-1
EndSplineSet
EndChar

StartChar: logicalnot
Encoding: 172 172 264
Width: 1464
GlyphClass: 2
Flags: W
LayerCount: 2
Fore
SplineSet
981 236 m 1,0,-1
 981 578 l 1,1,-1
 238 578 l 1,2,-1
 238 825 l 1,3,-1
 1229 825 l 1,4,-1
 1229 236 l 1,5,-1
 981 236 l 1,0,-1
EndSplineSet
EndChar

StartChar: radical
Encoding: 8730 8730 265
Width: 1331
GlyphClass: 2
Flags: W
LayerCount: 2
Fore
SplineSet
868 -2 m 1,0,-1
 606 -2 l 1,1,-1
 287 709 l 1,2,-1
 98 709 l 1,3,-1
 98 915 l 1,4,-1
 508 915 l 1,5,-1
 729 410 l 1,6,-1
 1034 1516 l 1,7,-1
 1284 1516 l 1,8,-1
 868 -2 l 1,0,-1
EndSplineSet
EndChar

StartChar: florin
Encoding: 402 402 266
Width: 1227
GlyphClass: 2
Flags: W
AnchorPoint: "Anchor-14" 0 2100 basechar 0
AnchorPoint: "Anchor-13" 1125 2100 basechar 0
AnchorPoint: "Anchor-10" 262 -242 basechar 0
AnchorPoint: "Anchor-7" 973 -420 basechar 0
AnchorPoint: "Anchor-6" 1158 1900 basechar 0
AnchorPoint: "Anchor-2" 352 -300 basechar 0
AnchorPoint: "Anchor-1" 1045 1434 basechar 0
AnchorPoint: "Anchor-0" 791 1650 basechar 0
LayerCount: 2
Fore
SplineSet
1163 1155 m 1,0,1
 1099 1182 1099 1182 1044 1182 c 0,2,3
 935 1182 935 1182 897 1049 c 2,4,-1
 874 965 l 1,5,-1
 1059 965 l 1,6,-1
 993 702 l 1,7,-1
 813 702 l 1,8,-1
 682 154 l 2,9,10
 630 -65 630 -65 520.5 -170.5 c 128,-1,11
 411 -276 411 -276 233 -276 c 0,12,13
 126 -276 126 -276 41 -244 c 1,14,-1
 86 0 l 1,15,16
 129 -18 129 -18 168 -18 c 0,17,18
 224 -18 224 -18 257.5 14.5 c 128,-1,19
 291 47 291 47 307 119 c 2,20,-1
 444 702 l 1,21,-1
 301 702 l 1,22,-1
 367 965 l 1,23,-1
 508 965 l 1,24,-1
 530 1053 l 2,25,26
 583 1258 583 1258 703.5 1358 c 128,-1,27
 824 1458 824 1458 1001 1458 c 0,28,29
 1117 1458 1117 1458 1221 1413 c 1,30,-1
 1163 1155 l 1,0,1
EndSplineSet
EndChar

StartChar: approxequal
Encoding: 8776 8776 267
Width: 1464
GlyphClass: 2
Flags: W
LayerCount: 2
Fore
SplineSet
1270 1012 m 1,0,1
 1264 834 1264 834 1176 728.5 c 128,-1,2
 1088 623 1088 623 946 623 c 0,3,4
 868 623 868 623 809 643 c 128,-1,5
 750 663 750 663 673 708 c 0,6,7
 597 752 597 752 557 752 c 0,8,9
 510 752 510 752 479 716.5 c 128,-1,10
 448 681 448 681 442 612 c 1,11,-1
 195 612 l 1,12,13
 200 791 200 791 287.5 895 c 128,-1,14
 375 999 375 999 526 999 c 0,15,16
 641 999 641 999 750 938 c 0,17,18
 797 912 797 912 836 891 c 128,-1,19
 875 870 875 870 913 870 c 0,20,21
 961 870 961 870 990.5 911 c 128,-1,22
 1020 952 1020 952 1022 1012 c 1,23,-1
 1270 1012 l 1,0,1
1270 539 m 1,24,25
 1264 364 1264 364 1177 258 c 128,-1,26
 1090 152 1090 152 946 152 c 0,27,28
 868 152 868 152 809 172 c 128,-1,29
 750 192 750 192 673 237 c 0,30,31
 597 281 597 281 557 281 c 0,32,33
 509 281 509 281 478.5 245 c 128,-1,34
 448 209 448 209 442 139 c 1,35,-1
 195 139 l 1,36,37
 200 320 200 320 288 424 c 128,-1,38
 376 528 376 528 526 528 c 0,39,40
 641 528 641 528 750 467 c 0,41,42
 797 441 797 441 836 420 c 128,-1,43
 875 399 875 399 913 399 c 0,44,45
 960 399 960 399 990 439 c 128,-1,46
 1020 479 1020 479 1022 539 c 1,47,-1
 1270 539 l 1,24,25
EndSplineSet
EndChar

StartChar: uni0394
Encoding: 916 916 268
Width: 1614
GlyphClass: 2
Flags: W
LayerCount: 2
Fore
SplineSet
-35 0 m 1,0,-1
 0 164 l 1,1,-1
 745 1434 l 1,2,-1
 1282 1434 l 1,3,-1
 1466 164 l 1,4,-1
 1432 0 l 1,5,-1
 -35 0 l 1,0,-1
948 1007 m 1,6,-1
 953 1085 l 1,7,-1
 954 1106 l 1,8,-1
 944 1106 l 1,9,10
 930 1050 930 1050 887 969 c 2,11,-1
 547 338 l 1,12,-1
 1020 338 l 1,13,-1
 950 961 l 1,14,-1
 948 1007 l 1,6,-1
EndSplineSet
EndChar

StartChar: guillemotleft
Encoding: 171 171 269
Width: 1290
GlyphClass: 2
Flags: W
LayerCount: 2
Fore
SplineSet
920 516 m 1,0,-1
 1182 193 l 1,1,-1
 848 193 l 1,2,-1
 573 537 l 1,3,-1
 950 872 l 1,4,-1
 1307 872 l 1,5,-1
 920 516 l 1,0,-1
379 516 m 1,6,-1
 641 193 l 1,7,-1
 307 193 l 1,8,-1
 33 537 l 1,9,-1
 410 872 l 1,10,-1
 766 872 l 1,11,-1
 379 516 l 1,6,-1
EndSplineSet
EndChar

StartChar: guillemotright
Encoding: 187 187 270
Width: 1290
GlyphClass: 2
Flags: W
LayerCount: 2
Fore
SplineSet
881 201 m 1,0,-1
 524 201 l 1,1,-1
 911 557 l 1,2,-1
 649 881 l 1,3,-1
 983 881 l 1,4,-1
 1257 537 l 1,5,-1
 881 201 l 1,0,-1
340 201 m 1,6,-1
 -16 201 l 1,7,-1
 371 557 l 1,8,-1
 109 881 l 1,9,-1
 442 881 l 1,10,-1
 717 537 l 1,11,-1
 340 201 l 1,6,-1
EndSplineSet
EndChar

StartChar: ellipsis
Encoding: 8230 8230 271
Width: 2142
GlyphClass: 2
Flags: W
LayerCount: 2
Fore
SplineSet
1956 188 m 0,0,1
 1956 93 1956 93 1886.5 34 c 128,-1,2
 1817 -25 1817 -25 1704 -25 c 0,3,4
 1605 -25 1605 -25 1542 26.5 c 128,-1,5
 1479 78 1479 78 1479 160 c 0,6,7
 1479 257 1479 257 1548 316 c 128,-1,8
 1617 375 1617 375 1733 375 c 0,9,10
 1833 375 1833 375 1894.5 322 c 128,-1,11
 1956 269 1956 269 1956 188 c 0,0,1
1243 188 m 0,12,13
 1243 91 1243 91 1173.5 33 c 128,-1,14
 1104 -25 1104 -25 991 -25 c 0,15,16
 892 -25 892 -25 829 26.5 c 128,-1,17
 766 78 766 78 766 160 c 0,18,19
 766 257 766 257 835 316 c 128,-1,20
 904 375 904 375 1020 375 c 0,21,22
 1120 375 1120 375 1181.5 322 c 128,-1,23
 1243 269 1243 269 1243 188 c 0,12,13
530 188 m 0,24,25
 530 91 530 91 460.5 33 c 128,-1,26
 391 -25 391 -25 279 -25 c 0,27,28
 179 -25 179 -25 116 27.5 c 128,-1,29
 53 80 53 80 53 160 c 0,30,31
 53 256 53 256 123 315.5 c 128,-1,32
 193 375 193 375 307 375 c 0,33,34
 407 375 407 375 468.5 322 c 128,-1,35
 530 269 530 269 530 188 c 0,24,25
EndSplineSet
EndChar

StartChar: OE
Encoding: 338 338 275
Width: 1862
GlyphClass: 2
Flags: W
AnchorPoint: "Anchor-14" 0 2100 basechar 0
AnchorPoint: "Anchor-13" 1926 2100 basechar 0
AnchorPoint: "Anchor-10" 1610 0 basechar 0
AnchorPoint: "Anchor-7" 1830 -420 basechar 0
AnchorPoint: "Anchor-6" 1935 1900 basechar 0
AnchorPoint: "Anchor-2" 1160 -25 basechar 0
AnchorPoint: "Anchor-1" 1826 1500 basechar 0
AnchorPoint: "Anchor-0" 1160 1600 basechar 0
LayerCount: 2
Fore
SplineSet
1884 1096 m 1,0,-1
 1423 1096 l 1,1,-1
 1380 887 l 1,2,-1
 1812 887 l 1,3,-1
 1741 549 l 1,4,-1
 1309 549 l 1,5,-1
 1264 338 l 1,6,-1
 1757 338 l 1,7,-1
 1686 0 l 1,8,-1
 936 0 l 1,9,10
 816 -25 816 -25 672 -25 c 0,11,12
 506 -25 506 -25 373 53.5 c 128,-1,13
 240 132 240 132 166 277.5 c 128,-1,14
 92 423 92 423 92 616 c 0,15,16
 92 861 92 861 188 1053 c 128,-1,17
 284 1245 284 1245 457.5 1351.5 c 128,-1,18
 631 1458 631 1458 881 1458 c 0,19,20
 1015 1458 1015 1458 1114 1434 c 1,21,-1
 1956 1434 l 1,22,-1
 1884 1096 l 1,0,-1
981 1051 m 1,23,24
 972 1062 972 1062 942 1072.5 c 128,-1,25
 912 1083 912 1083 864 1083 c 0,26,27
 774 1083 774 1083 707 1026.5 c 128,-1,28
 640 970 640 970 595.5 848.5 c 128,-1,29
 551 727 551 727 551 602 c 0,30,31
 551 478 551 478 606 411 c 128,-1,32
 661 344 661 344 758 344 c 0,33,34
 803 344 803 344 836 354 c 1,35,-1
 981 1051 l 1,23,24
EndSplineSet
EndChar

StartChar: oe
Encoding: 339 339 276
Width: 1804
GlyphClass: 2
Flags: W
AnchorPoint: "Anchor-14" 0 2100 basechar 0
AnchorPoint: "Anchor-13" 1901 2100 basechar 0
AnchorPoint: "Anchor-10" 1520 0 basechar 0
AnchorPoint: "Anchor-7" 1826 -420 basechar 0
AnchorPoint: "Anchor-6" 1898 1900 basechar 0
AnchorPoint: "Anchor-4" 1781 910 basechar 0
AnchorPoint: "Anchor-2" 1021 -25 basechar 0
AnchorPoint: "Anchor-1" 1801 1200 basechar 0
AnchorPoint: "Anchor-0" 1021 1300 basechar 0
LayerCount: 2
Fore
SplineSet
1810 743 m 0,0,1
 1810 567 1810 567 1648.5 481 c 128,-1,2
 1487 395 1487 395 1151 385 c 1,3,-1
 1151 377 l 2,4,5
 1151 319 1151 319 1200 286.5 c 128,-1,6
 1249 254 1249 254 1331 254 c 0,7,8
 1405 254 1405 254 1506 279 c 128,-1,9
 1607 304 1607 304 1675 338 c 1,10,-1
 1616 59 l 1,11,12
 1463 -25 1463 -25 1262 -25 c 0,13,14
 1149 -25 1149 -25 1051.5 14 c 128,-1,15
 954 53 954 53 901 117 c 1,16,-1
 897 117 l 1,17,18
 839 50 839 50 740.5 12.5 c 128,-1,19
 642 -25 642 -25 530 -25 c 0,20,21
 386 -25 386 -25 279 29 c 128,-1,22
 172 83 172 83 110.5 191.5 c 128,-1,23
 49 300 49 300 49 430 c 0,24,25
 49 602 49 602 121 745.5 c 128,-1,26
 193 889 193 889 321.5 969 c 128,-1,27
 450 1049 450 1049 616 1049 c 0,28,29
 736 1049 736 1049 827 1011 c 128,-1,30
 918 973 918 973 989 889 c 1,31,-1
 993 889 l 1,32,33
 1072 966 1072 966 1176 1007.5 c 128,-1,34
 1280 1049 1280 1049 1395 1049 c 0,35,36
 1534 1049 1534 1049 1624.5 1010 c 128,-1,37
 1715 971 1715 971 1762.5 902.5 c 128,-1,38
 1810 834 1810 834 1810 743 c 0,0,1
1417 745 m 0,39,40
 1417 767 1417 767 1403.5 785 c 128,-1,41
 1390 803 1390 803 1356 803 c 0,42,43
 1290 803 1290 803 1241.5 752 c 128,-1,44
 1193 701 1193 701 1176 608 c 1,45,46
 1288 608 1288 608 1352.5 642 c 128,-1,47
 1417 676 1417 676 1417 745 c 0,39,40
764 598 m 0,48,49
 764 666 764 666 735 701.5 c 128,-1,50
 706 737 706 737 657 737 c 0,51,52
 602 737 602 737 561 694.5 c 128,-1,53
 520 652 520 652 496.5 577.5 c 128,-1,54
 473 503 473 503 473 424 c 0,55,56
 473 356 473 356 502.5 321.5 c 128,-1,57
 532 287 532 287 582 287 c 0,58,59
 664 287 664 287 714 375 c 128,-1,60
 764 463 764 463 764 598 c 0,48,49
EndSplineSet
EndChar

StartChar: endash
Encoding: 8211 8211 277
Width: 1024
GlyphClass: 2
Flags: W
LayerCount: 2
Fore
SplineSet
-27 393 m 1,0,-1
 35 680 l 1,1,-1
 1059 680 l 1,2,-1
 997 393 l 1,3,-1
 -27 393 l 1,0,-1
EndSplineSet
EndChar

StartChar: emdash
Encoding: 8212 8212 278
Width: 2048
GlyphClass: 2
Flags: W
LayerCount: 2
Fore
SplineSet
-27 393 m 1,0,-1
 35 680 l 1,1,-1
 2083 680 l 1,2,-1
 2021 393 l 1,3,-1
 -27 393 l 1,0,-1
EndSplineSet
EndChar

StartChar: quotedblleft
Encoding: 8220 8220 279
Width: 1188
GlyphClass: 2
Flags: W
LayerCount: 2
Fore
SplineSet
1040 1024 m 1,0,-1
 713 1024 l 1,1,-1
 911 1468 l 1,2,-1
 1161 1468 l 1,3,-1
 1040 1024 l 1,0,-1
586 1024 m 1,4,-1
 258 1024 l 1,5,-1
 457 1468 l 1,6,-1
 707 1468 l 1,7,-1
 586 1024 l 1,4,-1
EndSplineSet
EndChar

StartChar: quotedblright
Encoding: 8221 8221 280
Width: 1188
GlyphClass: 2
Flags: W
LayerCount: 2
Fore
SplineSet
1006 1024 m 1,0,-1
 758 1024 l 1,1,-1
 881 1468 l 1,2,-1
 1206 1468 l 1,3,-1
 1006 1024 l 1,0,-1
553 1024 m 1,4,-1
 305 1024 l 1,5,-1
 428 1468 l 1,6,-1
 754 1468 l 1,7,-1
 553 1024 l 1,4,-1
EndSplineSet
EndChar

StartChar: quoteleft
Encoding: 8216 8216 281
Width: 735
GlyphClass: 2
Flags: W
LayerCount: 2
Fore
SplineSet
588 1024 m 1,0,-1
 258 1024 l 1,1,-1
 457 1468 l 1,2,-1
 709 1468 l 1,3,-1
 588 1024 l 1,0,-1
EndSplineSet
EndChar

StartChar: quoteright
Encoding: 8217 8217 282
Width: 735
GlyphClass: 2
Flags: W
LayerCount: 2
Fore
SplineSet
553 1024 m 1,0,-1
 305 1024 l 1,1,-1
 428 1468 l 1,2,-1
 754 1468 l 1,3,-1
 553 1024 l 1,0,-1
EndSplineSet
EndChar

StartChar: divide
Encoding: 247 247 283
Width: 1464
GlyphClass: 2
Flags: W
LayerCount: 2
Fore
SplineSet
899 983 m 0,0,1
 899 914 899 914 854 868.5 c 128,-1,2
 809 823 809 823 741 823 c 256,3,4
 673 823 673 823 626.5 870.5 c 128,-1,5
 580 918 580 918 580 981 c 0,6,7
 580 1050 580 1050 625.5 1098.5 c 128,-1,8
 671 1147 671 1147 741 1147 c 0,9,10
 813 1147 813 1147 856 1100 c 128,-1,11
 899 1053 899 1053 899 983 c 0,0,1
244 455 m 1,12,-1
 244 702 l 1,13,-1
 1235 702 l 1,14,-1
 1235 455 l 1,15,-1
 244 455 l 1,12,-1
899 170 m 0,16,17
 899 101 899 101 854 55.5 c 128,-1,18
 809 10 809 10 741 10 c 256,19,20
 673 10 673 10 626.5 57.5 c 128,-1,21
 580 105 580 105 580 168 c 0,22,23
 580 237 580 237 625 284.5 c 128,-1,24
 670 332 670 332 741 332 c 0,25,26
 811 332 811 332 855 287 c 128,-1,27
 899 242 899 242 899 170 c 0,16,17
EndSplineSet
EndChar

StartChar: lozenge
Encoding: 9674 9674 284
Width: 1188
GlyphClass: 2
Flags: W
LayerCount: 2
Fore
SplineSet
690 0 m 1,0,-1
 549 0 l 1,1,-1
 66 715 l 1,2,-1
 549 1434 l 1,3,-1
 690 1434 l 1,4,-1
 1176 717 l 1,5,-1
 690 0 l 1,0,-1
621 1110 m 1,6,-1
 365 717 l 1,7,-1
 621 324 l 1,8,-1
 877 717 l 1,9,-1
 621 1110 l 1,6,-1
EndSplineSet
EndChar

StartChar: uni2215
Encoding: 8725 8725 287
Width: 500
GlyphClass: 2
Flags: W
LayerCount: 2
Fore
SplineSet
-203 0 m 1,0,-1
 -520 0 l 1,1,-1
 707 1434 l 1,2,-1
 1022 1434 l 1,3,-1
 -203 0 l 1,0,-1
EndSplineSet
EndChar

StartChar: Euro
Encoding: 8364 8364 288
Width: 1227
GlyphClass: 2
Flags: W
LayerCount: 2
Fore
SplineSet
1223 1077 m 1,0,-1
 1185 1111 l 2,1,2
 1108 1176 1108 1176 997 1176 c 0,3,4
 888 1176 888 1176 804.5 1124.5 c 128,-1,5
 721 1073 721 1073 670 977 c 1,6,-1
 1051 977 l 1,7,-1
 1006 768 l 1,8,-1
 580 768 l 1,9,10
 570 734 570 734 566 704 c 128,-1,11
 562 674 562 674 557 645 c 1,12,-1
 981 645 l 1,13,-1
 936 432 l 1,14,-1
 561 432 l 1,15,16
 577 348 577 348 633 301 c 128,-1,17
 689 254 689 254 780 254 c 0,18,19
 850 254 850 254 916 274 c 128,-1,20
 982 294 982 294 1067 348 c 1,21,-1
 1006 41 l 1,22,23
 912 3 912 3 848.5 -11 c 128,-1,24
 785 -25 785 -25 713 -25 c 0,25,26
 488 -25 488 -25 353 94 c 128,-1,27
 218 213 218 213 197 432 c 1,28,-1
 45 432 l 1,29,-1
 90 645 l 1,30,-1
 190 645 l 1,31,32
 194 670 194 670 196.5 703 c 128,-1,33
 199 736 199 736 207 768 c 1,34,-1
 115 768 l 1,35,-1
 160 977 l 1,36,-1
 270 977 l 1,37,38
 365 1205 365 1205 557.5 1331.5 c 128,-1,39
 750 1458 750 1458 999 1458 c 0,40,41
 1102 1458 1102 1458 1181 1442 c 128,-1,42
 1260 1426 1260 1426 1290 1403 c 1,43,-1
 1223 1077 l 1,0,-1
EndSplineSet
EndChar

StartChar: guilsinglleft
Encoding: 8249 8249 289
Width: 750
GlyphClass: 2
Flags: W
LayerCount: 2
Fore
SplineSet
381 516 m 1,0,-1
 643 193 l 1,1,-1
 309 193 l 1,2,-1
 35 537 l 1,3,-1
 412 872 l 1,4,-1
 768 872 l 1,5,-1
 381 516 l 1,0,-1
EndSplineSet
EndChar

StartChar: guilsinglright
Encoding: 8250 8250 290
Width: 750
GlyphClass: 2
Flags: W
LayerCount: 2
Fore
SplineSet
340 201 m 1,0,-1
 -16 201 l 1,1,-1
 371 557 l 1,2,-1
 109 881 l 1,3,-1
 442 881 l 1,4,-1
 717 537 l 1,5,-1
 340 201 l 1,0,-1
EndSplineSet
EndChar

StartChar: daggerdbl
Encoding: 8225 8225 293
Width: 885
GlyphClass: 2
Flags: W
LayerCount: 2
Fore
SplineSet
899 924 m 1,0,-1
 651 924 l 1,1,-1
 616 764 l 1,2,-1
 864 764 l 1,3,-1
 817 543 l 1,4,-1
 569 543 l 1,5,-1
 506 242 l 1,6,-1
 240 242 l 1,7,-1
 303 543 l 1,8,-1
 55 543 l 1,9,-1
 102 764 l 1,10,-1
 350 764 l 1,11,-1
 385 924 l 1,12,-1
 137 924 l 1,13,-1
 186 1151 l 1,14,-1
 434 1151 l 1,15,-1
 494 1434 l 1,16,-1
 760 1434 l 1,17,-1
 700 1151 l 1,18,-1
 948 1151 l 1,19,-1
 899 924 l 1,0,-1
EndSplineSet
EndChar

StartChar: glyph195
Encoding: 1114116 -1 294
Width: 655
GlyphClass: 2
Flags: W
LayerCount: 2
Fore
SplineSet
563 721 m 0,0,1
 563 641 563 641 505 594.5 c 128,-1,2
 447 548 447 548 358 548 c 0,3,4
 278 548 278 548 227 589 c 128,-1,5
 176 630 176 630 176 697 c 0,6,7
 176 774 176 774 233 822.5 c 128,-1,8
 290 871 290 871 383 871 c 0,9,10
 461 871 461 871 512 829.5 c 128,-1,11
 563 788 563 788 563 721 c 0,0,1
EndSplineSet
EndChar

StartChar: quotesinglbase
Encoding: 8218 8218 295
Width: 735
GlyphClass: 2
Flags: W
LayerCount: 2
Fore
SplineSet
283 -225 m 1,0,-1
 35 -225 l 1,1,-1
 158 219 l 1,2,-1
 483 219 l 1,3,-1
 283 -225 l 1,0,-1
EndSplineSet
EndChar

StartChar: quotedblbase
Encoding: 8222 8222 296
Width: 1188
GlyphClass: 2
Flags: W
LayerCount: 2
Fore
SplineSet
735 -225 m 1,0,-1
 487 -225 l 1,1,-1
 610 219 l 1,2,-1
 936 219 l 1,3,-1
 735 -225 l 1,0,-1
283 -225 m 1,4,-1
 35 -225 l 1,5,-1
 158 219 l 1,6,-1
 483 219 l 1,7,-1
 283 -225 l 1,4,-1
EndSplineSet
EndChar

StartChar: perthousand
Encoding: 8240 8240 297
Width: 2654
GlyphClass: 2
Flags: W
LayerCount: 2
Fore
SplineSet
2568 416 m 0,0,1
 2568 288 2568 288 2517 185 c 128,-1,2
 2466 82 2466 82 2375.5 31 c 128,-1,3
 2285 -20 2285 -20 2161 -20 c 0,4,5
 2003 -20 2003 -20 1911 66.5 c 128,-1,6
 1819 153 1819 153 1819 293 c 0,7,8
 1819 419 1819 419 1872 523.5 c 128,-1,9
 1925 628 1925 628 2018 677.5 c 128,-1,10
 2111 727 2111 727 2234 727 c 0,11,12
 2390 727 2390 727 2479 645 c 128,-1,13
 2568 563 2568 563 2568 416 c 0,0,1
1753 416 m 0,14,15
 1753 288 1753 288 1702 185 c 128,-1,16
 1651 82 1651 82 1560.5 31 c 128,-1,17
 1470 -20 1470 -20 1346 -20 c 0,18,19
 1188 -20 1188 -20 1096 66.5 c 128,-1,20
 1004 153 1004 153 1004 293 c 0,21,22
 1004 419 1004 419 1057 523.5 c 128,-1,23
 1110 628 1110 628 1203 677.5 c 128,-1,24
 1296 727 1296 727 1419 727 c 0,25,26
 1575 727 1575 727 1664 645 c 128,-1,27
 1753 563 1753 563 1753 416 c 0,14,15
506 0 m 1,28,-1
 188 0 l 1,29,-1
 1415 1434 l 1,30,-1
 1731 1434 l 1,31,-1
 506 0 l 1,28,-1
911 1143 m 0,32,33
 911 1016 911 1016 859 911.5 c 128,-1,34
 807 807 807 807 716.5 757 c 128,-1,35
 626 707 626 707 502 707 c 0,36,37
 344 707 344 707 253 793.5 c 128,-1,38
 162 880 162 880 162 1020 c 0,39,40
 162 1146 162 1146 215 1250.5 c 128,-1,41
 268 1355 268 1355 361 1404.5 c 128,-1,42
 454 1454 454 1454 578 1454 c 0,43,44
 735 1454 735 1454 823 1371 c 128,-1,45
 911 1288 911 1288 911 1143 c 0,32,33
2300 410 m 0,46,47
 2300 458 2300 458 2277 485 c 128,-1,48
 2254 512 2254 512 2218 512 c 0,49,50
 2158 512 2158 512 2123.5 453 c 128,-1,51
 2089 394 2089 394 2089 297 c 0,52,53
 2089 251 2089 251 2111.5 224 c 128,-1,54
 2134 197 2134 197 2171 197 c 0,55,56
 2230 197 2230 197 2265 257 c 128,-1,57
 2300 317 2300 317 2300 410 c 0,46,47
1485 410 m 0,58,59
 1485 458 1485 458 1462 485 c 128,-1,60
 1439 512 1439 512 1403 512 c 0,61,62
 1343 512 1343 512 1308.5 455 c 128,-1,63
 1274 398 1274 398 1274 297 c 0,64,65
 1274 251 1274 251 1296.5 224 c 128,-1,66
 1319 197 1319 197 1356 197 c 0,67,68
 1415 197 1415 197 1450 257 c 128,-1,69
 1485 317 1485 317 1485 410 c 0,58,59
643 1137 m 0,70,71
 643 1184 643 1184 621.5 1211.5 c 128,-1,72
 600 1239 600 1239 561 1239 c 0,73,74
 501 1239 501 1239 466.5 1180 c 128,-1,75
 432 1121 432 1121 432 1024 c 0,76,77
 432 978 432 978 454.5 951 c 128,-1,78
 477 924 477 924 514 924 c 0,79,80
 573 924 573 924 608 984 c 128,-1,81
 643 1044 643 1044 643 1137 c 0,70,71
EndSplineSet
EndChar

StartChar: dotlessi
Encoding: 305 305 313
Width: 631
GlyphClass: 2
Flags: W
AnchorPoint: "Anchor-14" 0 2100 basechar 0
AnchorPoint: "Anchor-13" 544 2100 basechar 0
AnchorPoint: "Anchor-10" 180 0 basechar 0
AnchorPoint: "Anchor-7" 378 -420 basechar 0
AnchorPoint: "Anchor-6" 583 1900 basechar 0
AnchorPoint: "Anchor-4" 368 1030 basechar 0
AnchorPoint: "Anchor-2" 315 -15 basechar 0
AnchorPoint: "Anchor-1" 428 1104 basechar 0
AnchorPoint: "Anchor-0" 315 1184 basechar 0
LayerCount: 2
Fore
SplineSet
364 -25 m 0,0,1
 214 -25 214 -25 127 54 c 128,-1,2
 40 133 40 133 40 264 c 0,3,4
 40 328 40 328 61 420 c 2,5,-1
 192 1024 l 1,6,-1
 618 1024 l 1,7,-1
 493 434 l 2,8,9
 483 392 483 392 483 356 c 0,10,11
 483 299 483 299 552 299 c 0,12,13
 608 299 608 299 665 324 c 1,14,-1
 599 14 l 1,15,16
 570 0 570 0 508 -12.5 c 128,-1,17
 446 -25 446 -25 364 -25 c 0,0,1
EndSplineSet
EndChar

StartChar: circumflex
Encoding: 710 710 314
Width: 1024
GlyphClass: 4
Flags: W
LayerCount: 2
Fore
SplineSet
795 1145 m 1,0,-1
 678 1305 l 1,1,-1
 500 1145 l 1,2,-1
 223 1145 l 1,3,-1
 545 1473 l 1,4,-1
 862 1473 l 1,5,-1
 1053 1145 l 1,6,-1
 795 1145 l 1,0,-1
EndSplineSet
EndChar

StartChar: tilde
Encoding: 732 732 315
Width: 1024
GlyphClass: 4
Flags: W
LayerCount: 2
Fore
SplineSet
1108 1499 m 1,0,1
 1045 1159 1045 1159 815 1159 c 0,2,3
 761 1159 761 1159 724 1172.5 c 128,-1,4
 687 1186 687 1186 657.5 1202 c 128,-1,5
 628 1218 628 1218 601.5 1231.5 c 128,-1,6
 575 1245 575 1245 543 1245 c 0,7,8
 502 1245 502 1245 476.5 1222.5 c 128,-1,9
 451 1200 451 1200 436 1145 c 1,10,-1
 242 1145 l 1,11,12
 271 1311 271 1311 345.5 1398 c 128,-1,13
 420 1485 420 1485 532 1485 c 0,14,15
 589 1485 589 1485 626 1471.5 c 128,-1,16
 663 1458 663 1458 692.5 1442 c 128,-1,17
 722 1426 722 1426 748.5 1412.5 c 128,-1,18
 775 1399 775 1399 811 1399 c 0,19,20
 891 1399 891 1399 911 1499 c 1,21,-1
 1108 1499 l 1,0,1
EndSplineSet
EndChar

StartChar: uni02C9
Encoding: 713 713 316
Width: 1024
GlyphClass: 4
Flags: W
LayerCount: 2
Fore
SplineSet
310 1145 m 1,0,-1
 357 1368 l 1,1,-1
 1012 1368 l 1,2,-1
 965 1145 l 1,3,-1
 310 1145 l 1,0,-1
EndSplineSet
EndChar

StartChar: breve
Encoding: 728 728 317
Width: 1024
GlyphClass: 4
Flags: W
LayerCount: 2
Fore
SplineSet
1055 1491 m 1,0,1
 1006 1322 1006 1322 902 1233.5 c 128,-1,2
 798 1145 798 1145 647 1145 c 0,3,4
 524 1145 524 1145 453.5 1214 c 128,-1,5
 383 1283 383 1283 383 1405 c 0,6,7
 383 1436 383 1436 395 1491 c 1,8,-1
 600 1491 l 1,9,-1
 594 1454 l 1,10,11
 594 1407 594 1407 620.5 1386.5 c 128,-1,12
 647 1366 647 1366 684 1366 c 0,13,14
 798 1366 798 1366 842 1491 c 1,15,-1
 1055 1491 l 1,0,1
EndSplineSet
EndChar

StartChar: dotaccent
Encoding: 729 729 318
Width: 1024
GlyphClass: 4
Flags: W
LayerCount: 2
Fore
SplineSet
872 1309 m 0,0,1
 872 1236 872 1236 819 1190.5 c 128,-1,2
 766 1145 766 1145 680 1145 c 0,3,4
 596 1145 596 1145 541.5 1192 c 128,-1,5
 487 1239 487 1239 487 1309 c 0,6,7
 487 1381 487 1381 540.5 1424.5 c 128,-1,8
 594 1468 594 1468 680 1468 c 0,9,10
 767 1468 767 1468 819.5 1424.5 c 128,-1,11
 872 1381 872 1381 872 1309 c 0,0,1
EndSplineSet
EndChar

StartChar: ring
Encoding: 730 730 319
Width: 1024
GlyphClass: 4
Flags: W
LayerCount: 2
Fore
SplineSet
965 1380 m 0,0,1
 965 1274 965 1274 889.5 1209.5 c 128,-1,2
 814 1145 814 1145 694 1145 c 0,3,4
 579 1145 579 1145 504.5 1210.5 c 128,-1,5
 430 1276 430 1276 430 1380 c 0,6,7
 430 1452 430 1452 464.5 1504.5 c 128,-1,8
 499 1557 499 1557 560 1585.5 c 128,-1,9
 621 1614 621 1614 694 1614 c 0,10,11
 818 1614 818 1614 891.5 1549.5 c 128,-1,12
 965 1485 965 1485 965 1380 c 0,0,1
791 1380 m 0,13,14
 791 1412 791 1412 767.5 1436 c 128,-1,15
 744 1460 744 1460 694 1460 c 0,16,17
 655 1460 655 1460 629.5 1436 c 128,-1,18
 604 1412 604 1412 604 1380 c 0,19,20
 604 1346 604 1346 629.5 1323 c 128,-1,21
 655 1300 655 1300 694 1300 c 0,22,23
 735 1300 735 1300 763 1322.5 c 128,-1,24
 791 1345 791 1345 791 1380 c 0,13,14
EndSplineSet
EndChar

StartChar: cedilla
Encoding: 184 184 320
Width: 1024
GlyphClass: 2
Flags: W
LayerCount: 2
Fore
SplineSet
618 -233 m 0,0,1
 618 -300 618 -300 573 -356.5 c 128,-1,2
 528 -413 528 -413 447.5 -445 c 128,-1,3
 367 -477 367 -477 254 -477 c 0,4,5
 175 -477 175 -477 119 -467 c 1,6,-1
 160 -295 l 1,7,8
 198 -305 198 -305 242 -305 c 0,9,10
 294 -305 294 -305 323 -287.5 c 128,-1,11
 352 -270 352 -270 352 -244 c 0,12,13
 352 -184 352 -184 244 -184 c 1,14,-1
 201 -186 l 1,15,-1
 244 0 l 1,16,-1
 444 0 l 1,17,-1
 428 -66 l 1,18,19
 528 -74 528 -74 573 -115 c 128,-1,20
 618 -156 618 -156 618 -233 c 0,0,1
EndSplineSet
EndChar

StartChar: hungarumlaut
Encoding: 733 733 321
Width: 1024
GlyphClass: 4
Flags: W
LayerCount: 2
Fore
SplineSet
987 1145 m 1,0,-1
 684 1145 l 1,1,-1
 901 1468 l 1,2,-1
 1247 1468 l 1,3,-1
 987 1145 l 1,0,-1
502 1145 m 1,4,-1
 199 1145 l 1,5,-1
 416 1468 l 1,6,-1
 762 1468 l 1,7,-1
 502 1145 l 1,4,-1
EndSplineSet
EndChar

StartChar: ogonek
Encoding: 731 731 322
Width: 1024
GlyphClass: 4
Flags: W
LayerCount: 2
Fore
SplineSet
504 0 m 1,0,1
 424 -78 424 -78 397.5 -116.5 c 128,-1,2
 371 -155 371 -155 371 -184 c 0,3,4
 371 -252 371 -252 444 -252 c 0,5,6
 489 -252 489 -252 539 -231 c 1,7,-1
 502 -395 l 1,8,9
 440 -426 440 -426 350 -426 c 0,10,11
 241 -426 241 -426 184 -380 c 128,-1,12
 127 -334 127 -334 127 -254 c 0,13,14
 127 -191 127 -191 166.5 -135 c 128,-1,15
 206 -79 206 -79 311 0 c 1,16,-1
 504 0 l 1,0,1
EndSplineSet
EndChar

StartChar: caron
Encoding: 711 711 323
Width: 1024
GlyphClass: 4
Flags: W
LayerCount: 2
Fore
SplineSet
815 1145 m 1,0,-1
 498 1145 l 1,1,-1
 307 1473 l 1,2,-1
 565 1473 l 1,3,-1
 682 1313 l 1,4,-1
 860 1473 l 1,5,-1
 1137 1473 l 1,6,-1
 815 1145 l 1,0,-1
EndSplineSet
EndChar

StartChar: Lslash
Encoding: 321 321 324
Width: 1108
GlyphClass: 2
Flags: W
AnchorPoint: "Anchor-14" 0 2100 basechar 0
AnchorPoint: "Anchor-13" 1018 2100 basechar 0
AnchorPoint: "Anchor-10" 730 0 basechar 0
AnchorPoint: "Anchor-7" 986 -420 basechar 0
AnchorPoint: "Anchor-6" 1055 1900 basechar 0
AnchorPoint: "Anchor-2" 644 -15 basechar 0
AnchorPoint: "Anchor-1" 954 1500 basechar 0
AnchorPoint: "Anchor-0" 644 1600 basechar 0
LayerCount: 2
Fore
SplineSet
956 0 m 1,0,-1
 31 0 l 1,1,-1
 117 406 l 1,2,-1
 -51 340 l 1,3,-1
 20 678 l 1,4,-1
 188 743 l 1,5,-1
 334 1434 l 1,6,-1
 766 1434 l 1,7,-1
 659 928 l 1,8,-1
 942 1038 l 1,9,-1
 870 700 l 1,10,-1
 588 590 l 1,11,-1
 535 338 l 1,12,-1
 1028 338 l 1,13,-1
 956 0 l 1,0,-1
EndSplineSet
EndChar

StartChar: lslash
Encoding: 322 322 325
Width: 717
GlyphClass: 2
Flags: W
AnchorPoint: "Anchor-14" 0 2100 basechar 0
AnchorPoint: "Anchor-13" 608 2100 basechar 0
AnchorPoint: "Anchor-10" 200 0 basechar 0
AnchorPoint: "Anchor-7" 577 -420 basechar 0
AnchorPoint: "Anchor-6" 645 1900 basechar 0
AnchorPoint: "Anchor-2" 346 -15 basechar 0
AnchorPoint: "Anchor-1" 467 1600 basechar 0
AnchorPoint: "Anchor-0" 346 1650 basechar 0
LayerCount: 2
Fore
SplineSet
369 -25 m 0,0,1
 219 -25 219 -25 132 54 c 128,-1,2
 45 133 45 133 45 264 c 0,3,4
 45 329 45 329 64 412 c 1,5,-1
 -43 356 l 1,6,-1
 25 678 l 1,7,-1
 134 736 l 1,8,-1
 302 1516 l 1,9,-1
 728 1516 l 1,10,-1
 615 987 l 1,11,-1
 729 1047 l 1,12,-1
 662 725 l 1,13,-1
 547 666 l 1,14,-1
 498 434 l 2,15,16
 488 392 488 392 488 356 c 0,17,18
 488 299 488 299 557 299 c 0,19,20
 613 299 613 299 670 324 c 1,21,-1
 604 14 l 1,22,23
 575 0 575 0 513 -12.5 c 128,-1,24
 451 -25 451 -25 369 -25 c 0,0,1
EndSplineSet
EndChar

StartChar: brokenbar
Encoding: 166 166 330
Width: 815
GlyphClass: 2
Flags: W
LayerCount: 2
Fore
SplineSet
281 657 m 1,0,-1
 281 1567 l 1,1,-1
 608 1567 l 1,2,-1
 608 657 l 1,3,-1
 281 657 l 1,0,-1
281 -481 m 1,4,-1
 281 453 l 1,5,-1
 608 453 l 1,6,-1
 608 -481 l 1,7,-1
 281 -481 l 1,4,-1
176 1540 m 1024,8,-1
EndSplineSet
EndChar

StartChar: Eth
Encoding: 208 208 331
Width: 1591
GlyphClass: 2
Flags: W
AnchorPoint: "Anchor-14" 0 2100 basechar 0
AnchorPoint: "Anchor-13" 1479 2100 basechar 0
AnchorPoint: "Anchor-10" 795 27 basechar 0
AnchorPoint: "Anchor-7" 1385 -420 basechar 0
AnchorPoint: "Anchor-6" 1512 1900 basechar 0
AnchorPoint: "Anchor-2" 743 -15 basechar 0
AnchorPoint: "Anchor-1" 1273 1500 basechar 0
AnchorPoint: "Anchor-0" 743 1600 basechar 0
LayerCount: 2
Fore
SplineSet
1561 852 m 0,0,1
 1561 597 1561 597 1454.5 400 c 128,-1,2
 1348 203 1348 203 1155.5 101.5 c 128,-1,3
 963 0 963 0 700 0 c 2,4,-1
 31 0 l 1,5,-1
 147 549 l 1,6,-1
 -20 549 l 1,7,-1
 51 887 l 1,8,-1
 219 887 l 1,9,-1
 334 1434 l 1,10,-1
 905 1434 l 2,11,12
 1229 1434 1229 1434 1395 1281 c 128,-1,13
 1561 1128 1561 1128 1561 852 c 0,0,1
1102 819 m 0,14,15
 1102 958 1102 958 1029 1027 c 128,-1,16
 956 1096 956 1096 805 1096 c 2,17,-1
 694 1096 l 1,18,-1
 649 887 l 1,19,-1
 889 887 l 1,20,-1
 817 549 l 1,21,-1
 580 549 l 1,22,-1
 535 338 l 1,23,-1
 680 338 l 2,24,25
 878 338 878 338 990 467.5 c 128,-1,26
 1102 597 1102 597 1102 819 c 0,14,15
EndSplineSet
EndChar

StartChar: eth
Encoding: 240 240 332
Width: 1237
GlyphClass: 2
Flags: W
AnchorPoint: "Anchor-14" 0 2100 basechar 0
AnchorPoint: "Anchor-13" 1196 2100 basechar 0
AnchorPoint: "Anchor-10" 717 9 basechar 0
AnchorPoint: "Anchor-7" 1099 -420 basechar 0
AnchorPoint: "Anchor-6" 1227 1900 basechar 0
AnchorPoint: "Anchor-5" 663 463 basechar 0
AnchorPoint: "Anchor-2" 663 -25 basechar 0
AnchorPoint: "Anchor-1" 1096 1524 basechar 0
AnchorPoint: "Anchor-0" 623 1684 basechar 0
LayerCount: 2
Fore
SplineSet
895 1321 m 1,0,1
 1030 1206 1030 1206 1109 1037 c 128,-1,2
 1188 868 1188 868 1188 692 c 0,3,4
 1188 481 1188 481 1110 317.5 c 128,-1,5
 1032 154 1032 154 885 64.5 c 128,-1,6
 738 -25 738 -25 545 -25 c 0,7,8
 310 -25 310 -25 179.5 98.5 c 128,-1,9
 49 222 49 222 49 446 c 0,10,11
 49 609 49 609 119 749 c 128,-1,12
 189 889 189 889 313 969 c 128,-1,13
 437 1049 437 1049 586 1049 c 0,14,15
 645 1049 645 1049 684.5 1029 c 128,-1,16
 724 1009 724 1009 758 975 c 1,17,-1
 762 975 l 1,18,19
 743 1032 743 1032 693 1102.5 c 128,-1,20
 643 1173 643 1173 600 1212 c 1,21,-1
 305 1098 l 1,22,-1
 223 1241 l 1,23,-1
 467 1333 l 1,24,25
 293 1484 293 1484 248 1516 c 1,26,-1
 668 1516 l 1,27,-1
 689 1502 l 2,28,29
 744 1465 744 1465 766 1446 c 1,30,-1
 1038 1554 l 1,31,-1
 1114 1407 l 1,32,-1
 895 1321 l 1,0,1
764 602 m 0,33,34
 764 668 764 668 736 702.5 c 128,-1,35
 708 737 708 737 657 737 c 0,36,37
 602 737 602 737 561 694.5 c 128,-1,38
 520 652 520 652 496.5 577.5 c 128,-1,39
 473 503 473 503 473 424 c 0,40,41
 473 356 473 356 500.5 321.5 c 128,-1,42
 528 287 528 287 578 287 c 0,43,44
 659 287 659 287 711.5 376.5 c 128,-1,45
 764 466 764 466 764 602 c 0,33,34
EndSplineSet
EndChar

StartChar: Thorn
Encoding: 222 222 335
Width: 1364
GlyphClass: 2
Flags: W
AnchorPoint: "Anchor-14" 0 2100 basechar 0
AnchorPoint: "Anchor-13" 1220 2100 basechar 0
AnchorPoint: "Anchor-10" 190 0 basechar 0
AnchorPoint: "Anchor-7" 1138 -420 basechar 0
AnchorPoint: "Anchor-6" 1270 1900 basechar 0
AnchorPoint: "Anchor-2" 646 -15 basechar 0
AnchorPoint: "Anchor-1" 1220 1274 basechar 0
AnchorPoint: "Anchor-0" 646 1594 basechar 0
LayerCount: 2
Fore
SplineSet
1370 799 m 0,0,1
 1370 635 1370 635 1288 509.5 c 128,-1,2
 1206 384 1206 384 1060.5 321 c 128,-1,3
 915 258 915 258 721 258 c 2,4,-1
 516 258 l 1,5,-1
 463 0 l 1,6,-1
 31 0 l 1,7,-1
 334 1434 l 1,8,-1
 766 1434 l 1,9,-1
 723 1231 l 1,10,-1
 870 1231 l 2,11,12
 1114 1231 1114 1231 1242 1120 c 128,-1,13
 1370 1009 1370 1009 1370 799 c 0,0,1
911 768 m 0,14,15
 911 841 911 841 866 881.5 c 128,-1,16
 821 922 821 922 733 922 c 2,17,-1
 657 922 l 1,18,-1
 584 567 l 1,19,-1
 705 567 l 2,20,21
 798 567 798 567 854.5 623.5 c 128,-1,22
 911 680 911 680 911 768 c 0,14,15
EndSplineSet
EndChar

StartChar: thorn
Encoding: 254 254 336
Width: 1292
GlyphClass: 2
Flags: W
AnchorPoint: "Anchor-14" 0 2100 basechar 0
AnchorPoint: "Anchor-13" 1245 2100 basechar 0
AnchorPoint: "Anchor-10" 211 -470 basechar 0
AnchorPoint: "Anchor-7" 1149 -420 basechar 0
AnchorPoint: "Anchor-6" 1275 1900 basechar 0
AnchorPoint: "Anchor-2" 643 -470 basechar 0
AnchorPoint: "Anchor-1" 1045 1356 basechar 0
AnchorPoint: "Anchor-0" 643 1676 basechar 0
LayerCount: 2
Fore
SplineSet
1243 678 m 0,0,1
 1243 471 1243 471 1156 308.5 c 128,-1,2
 1069 146 1069 146 912.5 60.5 c 128,-1,3
 756 -25 756 -25 549 -25 c 0,4,5
 535 -25 535 -25 481 -22 c 128,-1,6
 427 -19 427 -19 422 -16 c 1,7,-1
 322 -471 l 1,8,-1
 -106 -471 l 1,9,-1
 315 1516 l 1,10,-1
 741 1516 l 1,11,-1
 649 1081 l 2,12,13
 624 961 624 961 584 842 c 1,14,-1
 588 842 l 1,15,16
 729 1049 729 1049 942 1049 c 0,17,18
 1078 1049 1078 1049 1160.5 946 c 128,-1,19
 1243 843 1243 843 1243 678 c 0,0,1
819 612 m 0,20,21
 819 737 819 737 723 737 c 0,22,23
 658 737 658 737 602 656.5 c 128,-1,24
 546 576 546 576 510 422 c 2,25,-1
 471 252 l 1,26,27
 507 246 507 246 535 246 c 0,28,29
 654 246 654 246 736.5 353 c 128,-1,30
 819 460 819 460 819 612 c 0,20,21
EndSplineSet
EndChar

StartChar: minus
Encoding: 8722 8722 337
Width: 1464
GlyphClass: 2
Flags: W
LayerCount: 2
Fore
SplineSet
252 455 m 1,0,-1
 252 702 l 1,1,-1
 1243 702 l 1,2,-1
 1243 455 l 1,3,-1
 252 455 l 1,0,-1
EndSplineSet
EndChar

StartChar: multiply
Encoding: 215 215 338
Width: 1464
GlyphClass: 2
Flags: W
LayerCount: 2
Fore
SplineSet
1083 66 m 1,0,-1
 748 406 l 1,1,-1
 412 66 l 1,2,-1
 233 242 l 1,3,-1
 569 575 l 1,4,-1
 231 915 l 1,5,-1
 401 1094 l 1,6,-1
 748 754 l 1,7,-1
 1092 1094 l 1,8,-1
 1255 905 l 1,9,-1
 922 575 l 1,10,-1
 1260 240 l 1,11,-1
 1083 66 l 1,0,-1
EndSplineSet
EndChar

StartChar: glyph240
Encoding: 1114117 -1 339
Width: 771
GlyphClass: 2
Flags: W
LayerCount: 2
Fore
SplineSet
277 584 m 1,0,-1
 404 1194 l 1,1,2
 344 1160 344 1160 288 1140.5 c 128,-1,3
 232 1121 232 1121 178 1111 c 1,4,-1
 221 1320 l 1,5,6
 256 1324 256 1324 299.5 1337.5 c 128,-1,7
 343 1351 343 1351 387.5 1370.5 c 128,-1,8
 432 1390 432 1390 473.5 1412 c 128,-1,9
 515 1434 515 1434 545 1454 c 1,10,-1
 718 1454 l 1,11,-1
 537 584 l 1,12,-1
 277 584 l 1,0,-1
EndSplineSet
EndChar

StartChar: glyph241
Encoding: 1114118 -1 340
Width: 883
GlyphClass: 2
Flags: W
LayerCount: 2
Fore
SplineSet
101 584 m 1,0,-1
 119 674 l 2,1,2
 133 743 133 743 169 792.5 c 128,-1,3
 205 842 205 842 252 879.5 c 128,-1,4
 299 917 299 917 351 947 c 128,-1,5
 403 977 403 977 449 1007.5 c 128,-1,6
 495 1038 495 1038 528.5 1073.5 c 128,-1,7
 562 1109 562 1109 572 1157 c 0,8,9
 573 1160 573 1160 573 1163.5 c 128,-1,10
 573 1167 573 1167 573 1170 c 0,11,12
 573 1194 573 1194 553 1211.5 c 128,-1,13
 533 1229 533 1229 491 1229 c 0,14,15
 451 1229 451 1229 390.5 1208 c 128,-1,16
 330 1187 330 1187 269 1147 c 1,17,-1
 321 1393 l 1,18,19
 387 1425 387 1425 453 1439.5 c 128,-1,20
 519 1454 519 1454 591 1454 c 0,21,22
 658 1454 658 1454 708.5 1440 c 128,-1,23
 759 1426 759 1426 793 1400 c 128,-1,24
 827 1374 827 1374 844 1338 c 128,-1,25
 861 1302 861 1302 861 1259 c 0,26,27
 861 1233 861 1233 855 1206 c 0,28,29
 840 1136 840 1136 806.5 1083 c 128,-1,30
 773 1030 773 1030 731 990 c 128,-1,31
 689 950 689 950 643.5 921.5 c 128,-1,32
 598 893 598 893 559.5 871.5 c 128,-1,33
 521 850 521 850 495 834 c 128,-1,34
 469 818 469 818 466 803 c 2,35,-1
 465 799 l 1,36,-1
 784 799 l 1,37,-1
 740 584 l 1,38,-1
 101 584 l 1,0,-1
EndSplineSet
EndChar

StartChar: glyph242
Encoding: 1114119 -1 341
Width: 883
GlyphClass: 2
Flags: W
LayerCount: 2
Fore
SplineSet
177 817 m 1,0,1
 210 798 210 798 279.5 781 c 128,-1,2
 349 764 349 764 410 764 c 0,3,4
 485 764 485 764 519 789 c 128,-1,5
 553 814 553 814 553 849 c 0,6,7
 553 882 553 882 522 898 c 128,-1,8
 491 914 491 914 411 914 c 2,9,-1
 291 914 l 1,10,-1
 335 1115 l 1,11,-1
 459 1115 l 2,12,13
 525 1115 525 1115 563 1137.5 c 128,-1,14
 601 1160 601 1160 601 1192 c 0,15,16
 601 1253 601 1253 491 1253 c 0,17,18
 442 1253 442 1253 388.5 1241.5 c 128,-1,19
 335 1230 335 1230 296 1213 c 1,20,-1
 342 1414 l 1,21,22
 454 1454 454 1454 595 1454 c 0,23,24
 726 1454 726 1454 802.5 1394.5 c 128,-1,25
 879 1335 879 1335 879 1238 c 0,26,27
 879 1159 879 1159 824.5 1100.5 c 128,-1,28
 770 1042 770 1042 677 1021 c 1,29,-1
 677 1017 l 1,30,31
 749 1002 749 1002 787.5 953.5 c 128,-1,32
 826 905 826 905 826 827 c 0,33,34
 826 751 826 751 777.5 690.5 c 128,-1,35
 729 630 729 630 638 596.5 c 128,-1,36
 547 563 547 563 419 563 c 0,37,38
 346 563 346 563 262 576.5 c 128,-1,39
 178 590 178 590 130 610 c 1,40,-1
 177 817 l 1,0,1
EndSplineSet
EndChar

StartChar: franc
Encoding: 8355 8355 345
Width: 1108
GlyphClass: 2
Flags: W
LayerCount: 2
Fore
SplineSet
504 182 m 1,0,-1
 465 0 l 1,1,-1
 34 0 l 1,2,-1
 72 182 l 1,3,-1
 -48 182 l 1,4,-1
 -3 395 l 1,5,-1
 117 395 l 1,6,-1
 338 1434 l 1,7,-1
 1237 1434 l 1,8,-1
 1165 1096 l 1,9,-1
 698 1096 l 1,10,-1
 650 868 l 1,11,-1
 1076 868 l 1,12,-1
 1004 530 l 1,13,-1
 578 530 l 1,14,-1
 549 395 l 1,15,-1
 827 395 l 1,16,-1
 782 182 l 1,17,-1
 504 182 l 1,0,-1
EndSplineSet
EndChar

StartChar: macron
Encoding: 175 175 356
Width: 1024
GlyphClass: 2
Flags: W
LayerCount: 2
Fore
SplineSet
334 1145 m 1,0,-1
 334 1368 l 1,1,-1
 989 1368 l 1,2,-1
 989 1145 l 1,3,-1
 334 1145 l 1,0,-1
EndSplineSet
EndChar

StartChar: Gamma
Encoding: 915 915 399
Width: 1108
GlyphClass: 2
Flags: W
LayerCount: 2
Fore
SplineSet
696 1096 m 1,0,-1
 465 0 l 1,1,-1
 33 0 l 1,2,-1
 336 1434 l 1,3,-1
 1262 1434 l 1,4,-1
 1190 1096 l 1,5,-1
 696 1096 l 1,0,-1
EndSplineSet
EndChar

StartChar: Theta
Encoding: 920 920 400
Width: 1567
GlyphClass: 2
Flags: W
LayerCount: 2
Fore
SplineSet
602 569 m 1,0,-1
 664 866 l 1,1,-1
 1028 866 l 1,2,-1
 967 569 l 1,3,-1
 602 569 l 1,0,-1
1534 829 m 0,4,5
 1534 593 1534 593 1430.5 390 c 128,-1,6
 1327 187 1327 187 1143.5 81 c 128,-1,7
 960 -25 960 -25 707 -25 c 0,8,9
 515 -25 515 -25 376.5 53.5 c 128,-1,10
 238 132 238 132 165 275 c 128,-1,11
 92 418 92 418 92 602 c 0,12,13
 92 840 92 840 197 1042 c 128,-1,14
 302 1244 302 1244 486 1351 c 128,-1,15
 670 1458 670 1458 913 1458 c 0,16,17
 1202 1458 1202 1458 1368 1290 c 128,-1,18
 1534 1122 1534 1122 1534 829 c 0,4,5
1075 815 m 0,19,20
 1075 946 1075 946 1020.5 1014.5 c 128,-1,21
 966 1083 966 1083 864 1083 c 0,22,23
 770 1083 770 1083 700 1020 c 128,-1,24
 630 957 630 957 590.5 845.5 c 128,-1,25
 551 734 551 734 551 612 c 0,26,27
 551 479 551 479 606 411.5 c 128,-1,28
 661 344 661 344 758 344 c 0,29,30
 848 344 848 344 919 400 c 128,-1,31
 990 456 990 456 1032.5 570.5 c 128,-1,32
 1075 685 1075 685 1075 815 c 0,19,20
EndSplineSet
EndChar

StartChar: Phi
Encoding: 934 934 401
Width: 1792
GlyphClass: 2
Flags: W
LayerCount: 2
Fore
SplineSet
1802 799 m 0,0,1
 1802 621 1802 621 1715.5 471.5 c 128,-1,2
 1629 322 1629 322 1481.5 247 c 128,-1,3
 1334 172 1334 172 1139 172 c 2,4,-1
 1026 172 l 1,5,-1
 987 -25 l 1,6,-1
 580 -25 l 1,7,-1
 621 172 l 1,8,-1
 575 172 l 2,9,10
 345 172 345 172 213.5 301.5 c 128,-1,11
 82 431 82 431 82 653 c 0,12,13
 82 841 82 841 168.5 993.5 c 128,-1,14
 255 1146 255 1146 405 1223 c 128,-1,15
 555 1300 555 1300 758 1300 c 2,16,-1
 870 1300 l 1,17,-1
 901 1458 l 1,18,-1
 1296 1458 l 1,19,-1
 1266 1300 l 1,20,-1
 1311 1300 l 2,21,22
 1542 1300 1542 1300 1672 1169.5 c 128,-1,23
 1802 1039 1802 1039 1802 799 c 0,0,1
770 991 m 2,24,25
 691 991 691 991 631.5 948 c 128,-1,26
 572 905 572 905 539 831 c 128,-1,27
 506 757 506 757 506 678 c 0,28,29
 506 590 506 590 552 535.5 c 128,-1,30
 598 481 598 481 674 481 c 2,31,-1
 686 481 l 1,32,-1
 795 991 l 1,33,-1
 770 991 l 2,24,25
1116 481 m 2,34,35
 1196 481 1196 481 1255 524.5 c 128,-1,36
 1314 568 1314 568 1347 641 c 128,-1,37
 1380 714 1380 714 1380 795 c 0,38,39
 1380 885 1380 885 1333.5 938 c 128,-1,40
 1287 991 1287 991 1212 991 c 2,41,-1
 1200 991 l 1,42,-1
 1092 481 l 1,43,-1
 1116 481 l 2,34,35
EndSplineSet
EndChar

StartChar: alpha
Encoding: 945 945 402
Width: 1353
GlyphClass: 2
Flags: W
LayerCount: 2
Fore
SplineSet
754 520 m 1,0,1
 751 628 751 628 731.5 682.5 c 128,-1,2
 712 737 712 737 662 737 c 0,3,4
 611 737 611 737 565.5 685.5 c 128,-1,5
 520 634 520 634 492.5 550.5 c 128,-1,6
 465 467 465 467 465 385 c 0,7,8
 465 342 465 342 484.5 314.5 c 128,-1,9
 504 287 504 287 541 287 c 0,10,11
 585 287 585 287 636 335 c 128,-1,12
 687 383 687 383 727 465 c 2,13,-1
 754 520 l 1,0,1
771 193 m 1,14,15
 608 -25 608 -25 393 -25 c 0,16,17
 229 -25 229 -25 132 80.5 c 128,-1,18
 35 186 35 186 35 365 c 0,19,20
 35 551 35 551 116 709.5 c 128,-1,21
 197 868 197 868 338.5 958.5 c 128,-1,22
 480 1049 480 1049 651 1049 c 0,23,24
 754 1049 754 1049 825.5 1006 c 128,-1,25
 897 963 897 963 934 897 c 1,26,-1
 938 897 l 1,27,-1
 999 1024 l 1,28,-1
 1423 1024 l 1,29,-1
 1094 526 l 1,30,31
 1100 415 1100 415 1128.5 359 c 128,-1,32
 1157 303 1157 303 1202 303 c 0,33,34
 1252 303 1252 303 1302 324 c 1,35,-1
 1238 21 l 1,36,37
 1157 -18 1157 -18 1025 -18 c 0,38,39
 911 -18 911 -18 848 39.5 c 128,-1,40
 785 97 785 97 777 193 c 1,41,-1
 771 193 l 1,14,15
EndSplineSet
EndChar

